<ttFont>
    <TTGlyph name="A" xMin="35" yMin="0" xMax="788" yMax="732">
      <contour>
        <pt x="38" y="27" on="1"/>
        <pt x="114" y="27" on="1"/>
        <pt x="214" y="204" on="0"/>
        <pt x="412" y="554" on="0"/>
        <pt x="512" y="732" on="1"/>
        <pt x="563" y="554" on="0"/>
        <pt x="662" y="204" on="0"/>
        <pt x="712" y="27" on="1"/>
        <pt x="788" y="27" on="1"/>
        <pt x="785" y="0" on="1"/>
        <pt x="601" y="0" on="1"/>
        <pt x="604" y="27" on="1"/>
        <pt x="683" y="27" on="1"/>
        <pt x="663" y="97" on="0"/>
        <pt x="624" y="237" on="0"/>
        <pt x="604" y="308" on="1"/>
        <pt x="302" y="308" on="1"/>
        <pt x="262" y="237" on="0"/>
        <pt x="184" y="97" on="0"/>
        <pt x="143" y="27" on="1"/>
        <pt x="222" y="27" on="1"/>
        <pt x="219" y="0" on="1"/>
        <pt x="35" y="0" on="1"/>
      </contour>
      <contour>
        <pt x="509" y="643" on="1"/>
        <pt x="504" y="670" on="1"/>
        <pt x="503" y="668" on="0"/>
        <pt x="498" y="660" on="0"/>
        <pt x="496" y="655" on="1"/>
        <pt x="490" y="643" on="1"/>
        <pt x="453" y="573" on="0"/>
        <pt x="362" y="413" on="0"/>
        <pt x="318" y="335" on="1"/>
        <pt x="596" y="335" on="1"/>
      </contour>
    </TTGlyph>
    <TTGlyph name="AE" xMin="35" yMin="0" xMax="824" yMax="700">
      <contour>
        <pt x="775" y="546" on="1"/>
        <pt x="794" y="673" on="1"/>
        <pt x="522" y="673" on="1"/>
        <pt x="479" y="366" on="1"/>
        <pt x="738" y="366" on="1"/>
        <pt x="734" y="339" on="1"/>
        <pt x="475" y="339" on="1"/>
        <pt x="431" y="27" on="1"/>
        <pt x="716" y="27" on="1"/>
        <pt x="734" y="154" on="1"/>
        <pt x="761" y="154" on="1"/>
        <pt x="740" y="0" on="1"/>
        <pt x="400" y="0" on="1"/>
        <pt x="443" y="306" on="1"/>
        <pt x="302" y="306" on="1"/>
        <pt x="262" y="235" on="0"/>
        <pt x="184" y="96" on="0"/>
        <pt x="144" y="27" on="1"/>
        <pt x="222" y="27" on="1"/>
        <pt x="219" y="0" on="1"/>
        <pt x="35" y="0" on="1"/>
        <pt x="38" y="27" on="1"/>
        <pt x="116" y="27" on="1"/>
        <pt x="212" y="196" on="0"/>
        <pt x="400" y="530" on="0"/>
        <pt x="495" y="700" on="1"/>
        <pt x="824" y="700" on="1"/>
        <pt x="802" y="546" on="1"/>
      </contour>
      <contour>
        <pt x="446" y="333" on="1"/>
        <pt x="490" y="642" on="1"/>
        <pt x="450" y="563" on="0"/>
        <pt x="361" y="411" on="0"/>
        <pt x="317" y="333" on="1"/>
      </contour>
    </TTGlyph>
    <TTGlyph name="Aacute" xMin="35" yMin="0" xMax="788" yMax="883">
      <component glyphName="acute" x="407" y="271" flags="0x4"/>
      <component glyphName="A" x="0" y="0" flags="0x4"/>
    </TTGlyph>
    <TTGlyph name="Acircumflex" xMin="35" yMin="0" xMax="788" yMax="931">
      <component glyphName="asciicircum" x="293" y="271" flags="0x4"/>
      <component glyphName="A" x="0" y="0" flags="0x4"/>
    </TTGlyph>
    <TTGlyph name="Adieresis" xMin="35" yMin="0" xMax="788" yMax="821">
      <component glyphName="dieresis" x="328" y="290" flags="0x4"/>
      <component glyphName="A" x="0" y="0" flags="0x4"/>
    </TTGlyph>
    <TTGlyph name="Agrave" xMin="35" yMin="0" xMax="788" yMax="883">
      <component glyphName="A" x="0" y="0" flags="0x204"/>
      <component glyphName="grave" x="436" y="271" flags="0x4"/>
    </TTGlyph>
    <TTGlyph name="Aring" xMin="35" yMin="0" xMax="788" yMax="902">
      <contour>
        <pt x="475" y="834" on="1"/>
        <pt x="473" y="816" on="0"/>
        <pt x="495" y="789" on="0"/>
        <pt x="514" y="789" on="1"/>
        <pt x="532" y="789" on="0"/>
        <pt x="564" y="816" on="0"/>
        <pt x="566" y="834" on="1"/>
        <pt x="569" y="853" on="0"/>
        <pt x="545" y="880" on="0"/>
        <pt x="527" y="880" on="1"/>
        <pt x="508" y="880" on="0"/>
        <pt x="477" y="853" on="0"/>
      </contour>
      <contour>
        <pt x="453" y="835" on="1"/>
        <pt x="457" y="864" on="0"/>
        <pt x="501" y="902" on="0"/>
        <pt x="530" y="902" on="1"/>
        <pt x="559" y="902" on="0"/>
        <pt x="592" y="864" on="0"/>
        <pt x="588" y="835" on="1"/>
        <pt x="584" y="806" on="0"/>
        <pt x="541" y="767" on="0"/>
        <pt x="512" y="767" on="1"/>
        <pt x="483" y="767" on="0"/>
        <pt x="448" y="806" on="0"/>
      </contour>
      <contour>
        <pt x="38" y="27" on="1"/>
        <pt x="114" y="27" on="1"/>
        <pt x="214" y="204" on="0"/>
        <pt x="412" y="554" on="0"/>
        <pt x="512" y="732" on="1"/>
        <pt x="563" y="554" on="0"/>
        <pt x="662" y="204" on="0"/>
        <pt x="712" y="27" on="1"/>
        <pt x="788" y="27" on="1"/>
        <pt x="785" y="0" on="1"/>
        <pt x="601" y="0" on="1"/>
        <pt x="604" y="27" on="1"/>
        <pt x="683" y="27" on="1"/>
        <pt x="663" y="97" on="0"/>
        <pt x="624" y="237" on="0"/>
        <pt x="604" y="308" on="1"/>
        <pt x="302" y="308" on="1"/>
        <pt x="262" y="237" on="0"/>
        <pt x="184" y="97" on="0"/>
        <pt x="143" y="27" on="1"/>
        <pt x="222" y="27" on="1"/>
        <pt x="219" y="0" on="1"/>
        <pt x="35" y="0" on="1"/>
      </contour>
      <contour>
        <pt x="509" y="643" on="1"/>
        <pt x="504" y="670" on="1"/>
        <pt x="503" y="668" on="0"/>
        <pt x="498" y="660" on="0"/>
        <pt x="496" y="655" on="1"/>
        <pt x="490" y="643" on="1"/>
        <pt x="453" y="573" on="0"/>
        <pt x="362" y="413" on="0"/>
        <pt x="318" y="335" on="1"/>
        <pt x="596" y="335" on="1"/>
      </contour>
    </TTGlyph>
    <TTGlyph name="Atilde" xMin="35" yMin="0" xMax="788" yMax="834">
      <component glyphName="asciitilde" x="235" y="291" flags="0x4"/>
      <component glyphName="A" x="0" y="0" flags="0x4"/>
    </TTGlyph>
    <TTGlyph name="B" xMin="35" yMin="0" xMax="540" yMax="700">
      <contour>
        <pt x="38" y="27" on="1"/>
        <pt x="104" y="27" on="1"/>
        <pt x="195" y="673" on="1"/>
        <pt x="129" y="673" on="1"/>
        <pt x="133" y="700" on="1"/>
        <pt x="351" y="700" on="1"/>
        <pt x="397" y="700" on="0"/>
        <pt x="471" y="680" on="0"/>
        <pt x="519" y="638" on="0"/>
        <pt x="540" y="571" on="0"/>
        <pt x="533" y="525" on="1"/>
        <pt x="525" y="463" on="0"/>
        <pt x="449" y="369" on="0"/>
        <pt x="383" y="352" on="1"/>
        <pt x="412" y="346" on="0"/>
        <pt x="463" y="318" on="0"/>
        <pt x="499" y="274" on="0"/>
        <pt x="516" y="216" on="0"/>
        <pt x="511" y="180" on="1"/>
        <pt x="505" y="135" on="0"/>
        <pt x="459" y="68" on="0"/>
        <pt x="393" y="23" on="0"/>
        <pt x="313" y="0" on="0"/>
        <pt x="271" y="0" on="1"/>
        <pt x="35" y="0" on="1"/>
      </contour>
      <contour>
        <pt x="176" y="338" on="1"/>
        <pt x="132" y="27" on="1"/>
        <pt x="272" y="27" on="1"/>
        <pt x="311" y="27" on="0"/>
        <pt x="382" y="46" on="0"/>
        <pt x="439" y="84" on="0"/>
        <pt x="478" y="142" on="0"/>
        <pt x="483" y="180" on="1"/>
        <pt x="489" y="221" on="0"/>
        <pt x="462" y="281" on="0"/>
        <pt x="410" y="320" on="0"/>
        <pt x="338" y="338" on="0"/>
        <pt x="298" y="338" on="1"/>
      </contour>
      <contour>
        <pt x="223" y="673" on="1"/>
        <pt x="180" y="365" on="1"/>
        <pt x="319" y="365" on="1"/>
        <pt x="356" y="365" on="0"/>
        <pt x="420" y="388" on="0"/>
        <pt x="469" y="430" on="0"/>
        <pt x="500" y="489" on="0"/>
        <pt x="505" y="525" on="1"/>
        <pt x="511" y="565" on="0"/>
        <pt x="494" y="621" on="0"/>
        <pt x="455" y="657" on="0"/>
        <pt x="395" y="673" on="0"/>
        <pt x="358" y="673" on="1"/>
      </contour>
    </TTGlyph>
    <TTGlyph name="C" xMin="74" yMin="-8" xMax="668" yMax="708">
      <contour>
        <pt x="625" y="546" on="1"/>
        <pt x="639" y="641" on="1"/>
        <pt x="573" y="681" on="0"/>
        <pt x="488" y="681" on="1"/>
        <pt x="420" y="681" on="0"/>
        <pt x="293" y="628" on="0"/>
        <pt x="191" y="538" on="0"/>
        <pt x="122" y="417" on="0"/>
        <pt x="113" y="348" on="1"/>
        <pt x="103" y="280" on="0"/>
        <pt x="138" y="160" on="0"/>
        <pt x="214" y="71" on="0"/>
        <pt x="325" y="19" on="0"/>
        <pt x="393" y="19" on="1"/>
        <pt x="439" y="19" on="0"/>
        <pt x="527" y="43" on="0"/>
        <pt x="567" y="65" on="1"/>
        <pt x="581" y="42" on="1"/>
        <pt x="537" y="19" on="0"/>
        <pt x="443" y="-8" on="0"/>
        <pt x="392" y="-8" on="1"/>
        <pt x="318" y="-8" on="0"/>
        <pt x="196" y="48" on="0"/>
        <pt x="112" y="145" on="0"/>
        <pt x="74" y="275" on="0"/>
        <pt x="85" y="349" on="1"/>
        <pt x="95" y="423" on="0"/>
        <pt x="170" y="554" on="0"/>
        <pt x="280" y="651" on="0"/>
        <pt x="418" y="708" on="0"/>
        <pt x="492" y="708" on="1"/>
        <pt x="543" y="708" on="0"/>
        <pt x="631" y="682" on="0"/>
        <pt x="668" y="658" on="1"/>
        <pt x="652" y="546" on="1"/>
      </contour>
    </TTGlyph>
    <TTGlyph name="Ccedilla" xMin="106" yMin="-228" xMax="699" yMax="708">
      <contour>
        <pt x="646" y="474" on="1"/>
        <pt x="670" y="641" on="1"/>
        <pt x="604" y="681" on="0"/>
        <pt x="519" y="681" on="1"/>
        <pt x="451" y="681" on="0"/>
        <pt x="324" y="628" on="0"/>
        <pt x="222" y="538" on="0"/>
        <pt x="153" y="417" on="0"/>
        <pt x="144" y="348" on="1"/>
        <pt x="134" y="280" on="0"/>
        <pt x="169" y="160" on="0"/>
        <pt x="245" y="71" on="0"/>
        <pt x="356" y="19" on="0"/>
        <pt x="424" y="19" on="1"/>
        <pt x="470" y="19" on="0"/>
        <pt x="557" y="43" on="0"/>
        <pt x="598" y="65" on="1"/>
        <pt x="612" y="42" on="1"/>
        <pt x="568" y="19" on="0"/>
        <pt x="475" y="-7" on="0"/>
        <pt x="426" y="-8" on="1"/>
        <pt x="425" y="-12" on="0"/>
        <pt x="424" y="-19" on="0"/>
        <pt x="425" y="-21" on="1"/>
        <pt x="427" y="-39" on="0"/>
        <pt x="449" y="-54" on="0"/>
        <pt x="459" y="-61" on="1"/>
        <pt x="479" y="-76" on="0"/>
        <pt x="493" y="-114" on="0"/>
        <pt x="491" y="-130" on="1"/>
        <pt x="483" y="-180" on="0"/>
        <pt x="426" y="-228" on="0"/>
        <pt x="389" y="-228" on="1"/>
        <pt x="361" y="-228" on="0"/>
        <pt x="317" y="-198" on="0"/>
        <pt x="312" y="-167" on="1"/>
        <pt x="334" y="-159" on="1"/>
        <pt x="337" y="-179" on="0"/>
        <pt x="366" y="-205" on="0"/>
        <pt x="390" y="-205" on="1"/>
        <pt x="419" y="-205" on="0"/>
        <pt x="462" y="-165" on="0"/>
        <pt x="466" y="-136" on="1"/>
        <pt x="470" y="-110" on="0"/>
        <pt x="449" y="-81" on="0"/>
        <pt x="422" y="-60" on="0"/>
        <pt x="400" y="-39" on="0"/>
        <pt x="403" y="-20" on="1"/>
        <pt x="404" y="-7" on="1"/>
        <pt x="334" y="-4" on="0"/>
        <pt x="219" y="55" on="0"/>
        <pt x="141" y="151" on="0"/>
        <pt x="106" y="277" on="0"/>
        <pt x="116" y="349" on="1"/>
        <pt x="126" y="423" on="0"/>
        <pt x="201" y="554" on="0"/>
        <pt x="311" y="651" on="0"/>
        <pt x="449" y="708" on="0"/>
        <pt x="523" y="708" on="1"/>
        <pt x="574" y="708" on="0"/>
        <pt x="662" y="682" on="0"/>
        <pt x="699" y="658" on="1"/>
        <pt x="673" y="474" on="1"/>
      </contour>
    </TTGlyph>
    <TTGlyph name="D" xMin="35" yMin="0" xMax="657" yMax="700">
      <contour>
        <pt x="38" y="27" on="1"/>
        <pt x="106" y="27" on="1"/>
        <pt x="197" y="673" on="1"/>
        <pt x="129" y="673" on="1"/>
        <pt x="133" y="700" on="1"/>
        <pt x="343" y="700" on="1"/>
        <pt x="415" y="700" on="0"/>
        <pt x="536" y="651" on="0"/>
        <pt x="619" y="560" on="0"/>
        <pt x="657" y="430" on="0"/>
        <pt x="646" y="350" on="1"/>
        <pt x="637" y="291" on="0"/>
        <pt x="579" y="167" on="0"/>
        <pt x="473" y="65" on="0"/>
        <pt x="317" y="0" on="0"/>
        <pt x="211" y="0" on="1"/>
        <pt x="35" y="0" on="1"/>
      </contour>
      <contour>
        <pt x="225" y="673" on="1"/>
        <pt x="134" y="27" on="1"/>
        <pt x="226" y="27" on="1"/>
        <pt x="317" y="27" on="0"/>
        <pt x="457" y="85" on="0"/>
        <pt x="554" y="177" on="0"/>
        <pt x="611" y="292" on="0"/>
        <pt x="619" y="350" on="1"/>
        <pt x="629" y="424" on="0"/>
        <pt x="595" y="544" on="0"/>
        <pt x="518" y="628" on="0"/>
        <pt x="408" y="673" on="0"/>
        <pt x="342" y="673" on="1"/>
      </contour>
    </TTGlyph>
    <TTGlyph name="E" xMin="35" yMin="0" xMax="620" yMax="700">
      <contour>
        <pt x="38" y="27" on="1"/>
        <pt x="115" y="27" on="1"/>
        <pt x="206" y="673" on="1"/>
        <pt x="129" y="673" on="1"/>
        <pt x="133" y="700" on="1"/>
        <pt x="620" y="700" on="1"/>
        <pt x="598" y="546" on="1"/>
        <pt x="571" y="546" on="1"/>
        <pt x="589" y="673" on="1"/>
        <pt x="234" y="673" on="1"/>
        <pt x="191" y="366" on="1"/>
        <pt x="534" y="366" on="1"/>
        <pt x="530" y="339" on="1"/>
        <pt x="187" y="339" on="1"/>
        <pt x="143" y="27" on="1"/>
        <pt x="512" y="27" on="1"/>
        <pt x="530" y="154" on="1"/>
        <pt x="557" y="154" on="1"/>
        <pt x="536" y="0" on="1"/>
        <pt x="35" y="0" on="1"/>
      </contour>
    </TTGlyph>
    <TTGlyph name="Eacute" xMin="35" yMin="0" xMax="620" yMax="883">
      <component glyphName="E" x="0" y="0" flags="0x204"/>
      <component glyphName="acute" x="300" y="271" flags="0x4"/>
    </TTGlyph>
    <TTGlyph name="Ecircumflex" xMin="35" yMin="0" xMax="620" yMax="931">
      <component glyphName="E" x="0" y="0" flags="0x204"/>
      <component glyphName="asciicircum" x="179" y="271" flags="0x4"/>
    </TTGlyph>
    <TTGlyph name="Edieresis" xMin="35" yMin="0" xMax="620" yMax="821">
      <component glyphName="E" x="0" y="0" flags="0x204"/>
      <component glyphName="dieresis" x="211" y="290" flags="0x4"/>
    </TTGlyph>
    <TTGlyph name="Egrave" xMin="35" yMin="0" xMax="620" yMax="883">
      <component glyphName="E" x="0" y="0" flags="0x204"/>
      <component glyphName="grave" x="312" y="271" flags="0x4"/>
    </TTGlyph>
    <TTGlyph name="Eth" xMin="35" yMin="0" xMax="657" yMax="700">
      <contour>
        <pt x="95" y="366" on="1"/>
        <pt x="154" y="366" on="1"/>
        <pt x="197" y="673" on="1"/>
        <pt x="129" y="673" on="1"/>
        <pt x="133" y="700" on="1"/>
        <pt x="343" y="700" on="1"/>
        <pt x="415" y="700" on="0"/>
        <pt x="536" y="651" on="0"/>
        <pt x="619" y="560" on="0"/>
        <pt x="657" y="430" on="0"/>
        <pt x="646" y="350" on="1"/>
        <pt x="637" y="291" on="0"/>
        <pt x="579" y="167" on="0"/>
        <pt x="473" y="65" on="0"/>
        <pt x="317" y="0" on="0"/>
        <pt x="211" y="0" on="1"/>
        <pt x="35" y="0" on="1"/>
        <pt x="38" y="27" on="1"/>
        <pt x="106" y="27" on="1"/>
        <pt x="150" y="339" on="1"/>
        <pt x="91" y="339" on="1"/>
      </contour>
      <contour>
        <pt x="225" y="673" on="1"/>
        <pt x="181" y="366" on="1"/>
        <pt x="397" y="366" on="1"/>
        <pt x="393" y="339" on="1"/>
        <pt x="178" y="339" on="1"/>
        <pt x="134" y="28" on="1"/>
        <pt x="227" y="28" on="1"/>
        <pt x="318" y="28" on="0"/>
        <pt x="457" y="85" on="0"/>
        <pt x="555" y="177" on="0"/>
        <pt x="611" y="292" on="0"/>
        <pt x="619" y="350" on="1"/>
        <pt x="629" y="424" on="0"/>
        <pt x="595" y="544" on="0"/>
        <pt x="518" y="628" on="0"/>
        <pt x="408" y="673" on="0"/>
        <pt x="342" y="673" on="1"/>
      </contour>
    </TTGlyph>
    <TTGlyph name="F" xMin="35" yMin="0" xMax="620" yMax="700">
      <contour>
        <pt x="38" y="27" on="1"/>
        <pt x="115" y="27" on="1"/>
        <pt x="206" y="673" on="1"/>
        <pt x="129" y="673" on="1"/>
        <pt x="133" y="700" on="1"/>
        <pt x="620" y="700" on="1"/>
        <pt x="598" y="546" on="1"/>
        <pt x="571" y="546" on="1"/>
        <pt x="589" y="673" on="1"/>
        <pt x="234" y="673" on="1"/>
        <pt x="191" y="366" on="1"/>
        <pt x="534" y="366" on="1"/>
        <pt x="530" y="339" on="1"/>
        <pt x="187" y="339" on="1"/>
        <pt x="143" y="27" on="1"/>
        <pt x="226" y="27" on="1"/>
        <pt x="223" y="0" on="1"/>
        <pt x="35" y="0" on="1"/>
      </contour>
    </TTGlyph>
    <TTGlyph name="G" xMin="23" yMin="-10" xMax="617" yMax="706">
      <contour>
        <pt x="565" y="298" on="1"/>
        <pt x="529" y="40" on="1"/>
        <pt x="486" y="17" on="0"/>
        <pt x="392" y="-10" on="0"/>
        <pt x="341" y="-10" on="1"/>
        <pt x="267" y="-10" on="0"/>
        <pt x="145" y="46" on="0"/>
        <pt x="61" y="143" on="0"/>
        <pt x="23" y="273" on="0"/>
        <pt x="33" y="347" on="1"/>
        <pt x="43" y="421" on="0"/>
        <pt x="118" y="552" on="0"/>
        <pt x="229" y="649" on="0"/>
        <pt x="367" y="706" on="0"/>
        <pt x="441" y="706" on="1"/>
        <pt x="492" y="706" on="0"/>
        <pt x="579" y="680" on="0"/>
        <pt x="617" y="656" on="1"/>
        <pt x="598" y="633" on="1"/>
        <pt x="529" y="679" on="0"/>
        <pt x="437" y="679" on="1"/>
        <pt x="369" y="679" on="0"/>
        <pt x="242" y="626" on="0"/>
        <pt x="140" y="536" on="0"/>
        <pt x="71" y="415" on="0"/>
        <pt x="61" y="346" on="1"/>
        <pt x="52" y="278" on="0"/>
        <pt x="86" y="158" on="0"/>
        <pt x="163" y="69" on="0"/>
        <pt x="274" y="17" on="0"/>
        <pt x="341" y="17" on="1"/>
        <pt x="426" y="17" on="0"/>
        <pt x="503" y="57" on="1"/>
        <pt x="534" y="271" on="1"/>
        <pt x="376" y="271" on="1"/>
        <pt x="379" y="298" on="1"/>
      </contour>
    </TTGlyph>
    <TTGlyph name="H" xMin="35" yMin="0" xMax="790" yMax="700">
      <contour>
        <pt x="603" y="700" on="1"/>
        <pt x="790" y="700" on="1"/>
        <pt x="786" y="673" on="1"/>
        <pt x="709" y="673" on="1"/>
        <pt x="618" y="27" on="1"/>
        <pt x="695" y="27" on="1"/>
        <pt x="692" y="0" on="1"/>
        <pt x="505" y="0" on="1"/>
        <pt x="508" y="27" on="1"/>
        <pt x="590" y="27" on="1"/>
        <pt x="634" y="339" on="1"/>
        <pt x="187" y="339" on="1"/>
        <pt x="143" y="27" on="1"/>
        <pt x="226" y="27" on="1"/>
        <pt x="223" y="0" on="1"/>
        <pt x="35" y="0" on="1"/>
        <pt x="38" y="27" on="1"/>
        <pt x="115" y="27" on="1"/>
        <pt x="207" y="673" on="1"/>
        <pt x="129" y="673" on="1"/>
        <pt x="133" y="700" on="1"/>
        <pt x="321" y="700" on="1"/>
        <pt x="317" y="673" on="1"/>
        <pt x="234" y="673" on="1"/>
        <pt x="191" y="366" on="1"/>
        <pt x="638" y="366" on="1"/>
        <pt x="681" y="673" on="1"/>
        <pt x="599" y="673" on="1"/>
      </contour>
    </TTGlyph>
    <TTGlyph name="I" xMin="35" yMin="0" xMax="321" yMax="700">
      <contour>
        <pt x="38" y="27" on="1"/>
        <pt x="115" y="27" on="1"/>
        <pt x="207" y="673" on="1"/>
        <pt x="129" y="673" on="1"/>
        <pt x="133" y="700" on="1"/>
        <pt x="321" y="700" on="1"/>
        <pt x="317" y="673" on="1"/>
        <pt x="234" y="673" on="1"/>
        <pt x="143" y="27" on="1"/>
        <pt x="226" y="27" on="1"/>
        <pt x="223" y="0" on="1"/>
        <pt x="35" y="0" on="1"/>
      </contour>
    </TTGlyph>
    <TTGlyph name="Iacute" xMin="35" yMin="0" xMax="360" yMax="883">
      <component glyphName="I" x="0" y="0" flags="0x204"/>
      <component glyphName="acute" x="122" y="271" flags="0x4"/>
    </TTGlyph>
    <TTGlyph name="Icircumflex" xMin="35" yMin="0" xMax="354" yMax="931">
      <component glyphName="I" x="0" y="0" flags="0x204"/>
      <component glyphName="asciicircum" x="15" y="271" flags="0x4"/>
    </TTGlyph>
    <TTGlyph name="Idieresis" xMin="35" yMin="0" xMax="353" yMax="821">
      <component glyphName="I" x="0" y="0" flags="0x4"/>
      <component glyphName="dieresis" x="55" y="290" flags="0x4"/>
    </TTGlyph>
    <TTGlyph name="Igrave" xMin="35" yMin="0" xMax="321" yMax="883">
      <component glyphName="I" x="0" y="0" flags="0x204"/>
      <component glyphName="grave" x="146" y="271" flags="0x4"/>
    </TTGlyph>
    <TTGlyph name="J" xMin="-24" yMin="-142" xMax="289" yMax="700">
      <contour>
        <pt x="93" y="700" on="1"/>
        <pt x="289" y="700" on="1"/>
        <pt x="203" y="90" on="1"/>
        <pt x="195" y="34" on="0"/>
        <pt x="152" y="-51" on="0"/>
        <pt x="91" y="-109" on="0"/>
        <pt x="16" y="-141" on="0"/>
        <pt x="-24" y="-142" on="1"/>
        <pt x="-21" y="-115" on="1"/>
        <pt x="15" y="-113" on="0"/>
        <pt x="81" y="-84" on="0"/>
        <pt x="133" y="-31" on="0"/>
        <pt x="169" y="45" on="0"/>
        <pt x="175" y="93" on="1"/>
        <pt x="258" y="673" on="1"/>
        <pt x="89" y="673" on="1"/>
      </contour>
    </TTGlyph>
    <TTGlyph name="K" xMin="35" yMin="0" xMax="702" yMax="700">
      <contour>
        <pt x="470" y="27" on="1"/>
        <pt x="534" y="27" on="1"/>
        <pt x="473" y="121" on="0"/>
        <pt x="352" y="309" on="0"/>
        <pt x="291" y="404" on="1"/>
        <pt x="183" y="314" on="1"/>
        <pt x="172" y="242" on="0"/>
        <pt x="154" y="99" on="0"/>
        <pt x="143" y="27" on="1"/>
        <pt x="226" y="27" on="1"/>
        <pt x="223" y="0" on="1"/>
        <pt x="35" y="0" on="1"/>
        <pt x="38" y="27" on="1"/>
        <pt x="115" y="27" on="1"/>
        <pt x="206" y="673" on="1"/>
        <pt x="129" y="673" on="1"/>
        <pt x="133" y="700" on="1"/>
        <pt x="317" y="700" on="1"/>
        <pt x="313" y="673" on="1"/>
        <pt x="234" y="673" on="1"/>
        <pt x="192" y="373" on="1"/>
        <pt x="190" y="365" on="0"/>
        <pt x="187" y="352" on="0"/>
        <pt x="186" y="344" on="1"/>
        <pt x="207" y="364" on="1"/>
        <pt x="574" y="673" on="1"/>
        <pt x="515" y="673" on="1"/>
        <pt x="519" y="700" on="1"/>
        <pt x="702" y="700" on="1"/>
        <pt x="699" y="673" on="1"/>
        <pt x="612" y="673" on="1"/>
        <pt x="313" y="422" on="1"/>
        <pt x="378" y="322" on="0"/>
        <pt x="505" y="126" on="0"/>
        <pt x="569" y="27" on="1"/>
        <pt x="654" y="27" on="1"/>
        <pt x="651" y="0" on="1"/>
        <pt x="467" y="0" on="1"/>
      </contour>
    </TTGlyph>
    <TTGlyph name="L" xMin="35" yMin="0" xMax="553" yMax="700">
      <contour>
        <pt x="38" y="27" on="1"/>
        <pt x="111" y="27" on="1"/>
        <pt x="202" y="673" on="1"/>
        <pt x="129" y="673" on="1"/>
        <pt x="133" y="700" on="1"/>
        <pt x="317" y="700" on="1"/>
        <pt x="313" y="673" on="1"/>
        <pt x="230" y="673" on="1"/>
        <pt x="139" y="27" on="1"/>
        <pt x="508" y="27" on="1"/>
        <pt x="526" y="154" on="1"/>
        <pt x="553" y="154" on="1"/>
        <pt x="532" y="0" on="1"/>
        <pt x="35" y="0" on="1"/>
      </contour>
    </TTGlyph>
    <TTGlyph name="M" xMin="35" yMin="0" xMax="1023" yMax="700">
      <contour>
        <pt x="921" y="700" on="1"/>
        <pt x="1023" y="700" on="1"/>
        <pt x="1019" y="673" on="1"/>
        <pt x="940" y="673" on="1"/>
        <pt x="849" y="27" on="1"/>
        <pt x="932" y="27" on="1"/>
        <pt x="929" y="0" on="1"/>
        <pt x="741" y="0" on="1"/>
        <pt x="744" y="27" on="1"/>
        <pt x="821" y="27" on="1"/>
        <pt x="903" y="610" on="1"/>
        <pt x="903" y="611" on="0"/>
        <pt x="906" y="623" on="0"/>
        <pt x="908" y="638" on="0"/>
        <pt x="910" y="651" on="0"/>
        <pt x="910" y="652" on="1"/>
        <pt x="907" y="647" on="0"/>
        <pt x="895" y="634" on="1"/>
        <pt x="879" y="616" on="0"/>
        <pt x="826" y="558" on="0"/>
        <pt x="760" y="485" on="0"/>
        <pt x="685" y="402" on="0"/>
        <pt x="610" y="319" on="0"/>
        <pt x="538" y="240" on="0"/>
        <pt x="509" y="207" on="1"/>
        <pt x="462" y="283" on="0"/>
        <pt x="386" y="404" on="0"/>
        <pt x="322" y="506" on="0"/>
        <pt x="267" y="594" on="0"/>
        <pt x="240" y="637" on="1"/>
        <pt x="231" y="652" on="1"/>
        <pt x="230" y="641" on="0"/>
        <pt x="229" y="621" on="0"/>
        <pt x="227" y="610" on="1"/>
        <pt x="145" y="27" on="1"/>
        <pt x="226" y="27" on="1"/>
        <pt x="223" y="0" on="1"/>
        <pt x="35" y="0" on="1"/>
        <pt x="38" y="27" on="1"/>
        <pt x="117" y="27" on="1"/>
        <pt x="208" y="673" on="1"/>
        <pt x="129" y="673" on="1"/>
        <pt x="133" y="700" on="1"/>
        <pt x="235" y="700" on="1"/>
        <pt x="240" y="693" on="0"/>
        <pt x="272" y="641" on="0"/>
        <pt x="319" y="567" on="0"/>
        <pt x="376" y="476" on="0"/>
        <pt x="435" y="381" on="0"/>
        <pt x="492" y="291" on="0"/>
        <pt x="515" y="254" on="1"/>
        <pt x="617" y="365" on="0"/>
        <pt x="819" y="589" on="0"/>
      </contour>
    </TTGlyph>
    <TTGlyph name="N" xMin="39" yMin="-32" xMax="910" yMax="700">
      <contour>
        <pt x="43" y="27" on="1"/>
        <pt x="122" y="27" on="1"/>
        <pt x="212" y="673" on="1"/>
        <pt x="133" y="673" on="1"/>
        <pt x="137" y="700" on="1"/>
        <pt x="243" y="700" on="1"/>
        <pt x="693" y="58" on="1"/>
        <pt x="708" y="32" on="1"/>
        <pt x="710" y="64" on="1"/>
        <pt x="795" y="673" on="1"/>
        <pt x="719" y="673" on="1"/>
        <pt x="722" y="700" on="1"/>
        <pt x="910" y="700" on="1"/>
        <pt x="906" y="673" on="1"/>
        <pt x="823" y="673" on="1"/>
        <pt x="725" y="-32" on="1"/>
        <pt x="251" y="638" on="1"/>
        <pt x="236" y="660" on="1"/>
        <pt x="234" y="632" on="1"/>
        <pt x="150" y="27" on="1"/>
        <pt x="230" y="27" on="1"/>
        <pt x="227" y="0" on="1"/>
        <pt x="39" y="0" on="1"/>
      </contour>
    </TTGlyph>
    <TTGlyph name="Ntilde" xMin="39" yMin="-32" xMax="910" yMax="836">
      <component glyphName="N" x="0" y="0" flags="0x4"/>
      <component glyphName="asciitilde" x="236" y="293" flags="0x4"/>
    </TTGlyph>
    <TTGlyph name="O" xMin="74" yMin="-8" xMax="811" yMax="708">
      <contour>
        <pt x="85" y="349" on="1"/>
        <pt x="95" y="423" on="0"/>
        <pt x="170" y="554" on="0"/>
        <pt x="280" y="651" on="0"/>
        <pt x="418" y="708" on="0"/>
        <pt x="492" y="708" on="1"/>
        <pt x="566" y="708" on="0"/>
        <pt x="689" y="651" on="0"/>
        <pt x="773" y="554" on="0"/>
        <pt x="811" y="423" on="0"/>
        <pt x="801" y="349" on="1"/>
        <pt x="790" y="275" on="0"/>
        <pt x="716" y="145" on="0"/>
        <pt x="605" y="48" on="0"/>
        <pt x="466" y="-8" on="0"/>
        <pt x="392" y="-8" on="1"/>
        <pt x="318" y="-8" on="0"/>
        <pt x="196" y="48" on="0"/>
        <pt x="112" y="145" on="0"/>
        <pt x="74" y="275" on="0"/>
      </contour>
      <contour>
        <pt x="113" y="348" on="1"/>
        <pt x="103" y="280" on="0"/>
        <pt x="138" y="160" on="0"/>
        <pt x="214" y="71" on="0"/>
        <pt x="325" y="19" on="0"/>
        <pt x="393" y="19" on="1"/>
        <pt x="461" y="19" on="0"/>
        <pt x="590" y="71" on="0"/>
        <pt x="693" y="161" on="0"/>
        <pt x="763" y="281" on="0"/>
        <pt x="773" y="349" on="1"/>
        <pt x="782" y="417" on="0"/>
        <pt x="747" y="538" on="0"/>
        <pt x="669" y="628" on="0"/>
        <pt x="556" y="681" on="0"/>
        <pt x="488" y="681" on="1"/>
        <pt x="420" y="681" on="0"/>
        <pt x="293" y="628" on="0"/>
        <pt x="191" y="538" on="0"/>
        <pt x="122" y="417" on="0"/>
      </contour>
    </TTGlyph>
    <TTGlyph name="Oacute" xMin="74" yMin="-8" xMax="811" yMax="883">
      <component glyphName="O" x="0" y="0" flags="0x204"/>
      <component glyphName="acute" x="395" y="271" flags="0x4"/>
    </TTGlyph>
    <TTGlyph name="Ocircumflex" xMin="74" yMin="-8" xMax="811" yMax="931">
      <component glyphName="O" x="0" y="0" flags="0x204"/>
      <component glyphName="asciicircum" x="280" y="271" flags="0x4"/>
    </TTGlyph>
    <TTGlyph name="Odieresis" xMin="74" yMin="-8" xMax="811" yMax="821">
      <component glyphName="O" x="0" y="0" flags="0x204"/>
      <component glyphName="dieresis" x="312" y="290" flags="0x4"/>
    </TTGlyph>
    <TTGlyph name="Ograve" xMin="74" yMin="-8" xMax="811" yMax="883">
      <component glyphName="O" x="0" y="0" flags="0x204"/>
      <component glyphName="grave" x="429" y="271" flags="0x4"/>
    </TTGlyph>
    <TTGlyph name="Oslash" xMin="74" yMin="-10" xMax="812" yMax="710">
      <contour>
        <pt x="113" y="348" on="1"/>
        <pt x="102" y="276" on="0"/>
        <pt x="140" y="154" on="0"/>
        <pt x="181" y="109" on="1"/>
        <pt x="306" y="237" on="0"/>
        <pt x="552" y="486" on="0"/>
        <pt x="677" y="614" on="1"/>
        <pt x="639" y="646" on="0"/>
        <pt x="544" y="681" on="0"/>
        <pt x="488" y="681" on="1"/>
        <pt x="420" y="681" on="0"/>
        <pt x="293" y="628" on="0"/>
        <pt x="191" y="538" on="0"/>
        <pt x="122" y="417" on="0"/>
      </contour>
      <contour>
        <pt x="393" y="19" on="1"/>
        <pt x="461" y="19" on="0"/>
        <pt x="590" y="71" on="0"/>
        <pt x="693" y="161" on="0"/>
        <pt x="763" y="281" on="0"/>
        <pt x="773" y="349" on="1"/>
        <pt x="784" y="424" on="0"/>
        <pt x="739" y="552" on="0"/>
        <pt x="693" y="598" on="1"/>
        <pt x="568" y="471" on="0"/>
        <pt x="323" y="220" on="0"/>
        <pt x="198" y="93" on="1"/>
        <pt x="236" y="58" on="0"/>
        <pt x="334" y="19" on="0"/>
      </contour>
      <contour>
        <pt x="85" y="349" on="1"/>
        <pt x="95" y="423" on="0"/>
        <pt x="170" y="554" on="0"/>
        <pt x="280" y="651" on="0"/>
        <pt x="418" y="708" on="0"/>
        <pt x="492" y="708" on="1"/>
        <pt x="553" y="708" on="0"/>
        <pt x="657" y="670" on="0"/>
        <pt x="698" y="635" on="1"/>
        <pt x="717" y="654" on="0"/>
        <pt x="753" y="691" on="0"/>
        <pt x="771" y="710" on="1"/>
        <pt x="776" y="705" on="0"/>
        <pt x="783" y="698" on="0"/>
        <pt x="788" y="694" on="1"/>
        <pt x="769" y="675" on="0"/>
        <pt x="733" y="639" on="0"/>
        <pt x="715" y="620" on="1"/>
        <pt x="765" y="570" on="0"/>
        <pt x="812" y="430" on="0"/>
        <pt x="801" y="349" on="1"/>
        <pt x="790" y="275" on="0"/>
        <pt x="716" y="145" on="0"/>
        <pt x="605" y="48" on="0"/>
        <pt x="466" y="-8" on="0"/>
        <pt x="392" y="-8" on="1"/>
        <pt x="328" y="-8" on="0"/>
        <pt x="219" y="34" on="0"/>
        <pt x="178" y="72" on="1"/>
        <pt x="158" y="52" on="0"/>
        <pt x="118" y="10" on="0"/>
        <pt x="98" y="-10" on="1"/>
        <pt x="93" y="-5" on="0"/>
        <pt x="85" y="2" on="0"/>
        <pt x="82" y="7" on="1"/>
        <pt x="102" y="27" on="0"/>
        <pt x="142" y="69" on="0"/>
        <pt x="162" y="89" on="1"/>
        <pt x="116" y="137" on="0"/>
        <pt x="74" y="271" on="0"/>
      </contour>
    </TTGlyph>
    <TTGlyph name="Otilde" xMin="74" yMin="-8" xMax="811" yMax="870">
      <component glyphName="O" x="0" y="0" flags="0x204"/>
      <component glyphName="asciitilde" x="222" y="327" flags="0x4"/>
    </TTGlyph>
    <TTGlyph name="P" xMin="35" yMin="0" xMax="533" yMax="700">
      <contour>
        <pt x="38" y="27" on="1"/>
        <pt x="104" y="27" on="1"/>
        <pt x="195" y="673" on="1"/>
        <pt x="129" y="673" on="1"/>
        <pt x="133" y="700" on="1"/>
        <pt x="344" y="700" on="1"/>
        <pt x="374" y="700" on="0"/>
        <pt x="443" y="680" on="0"/>
        <pt x="500" y="637" on="0"/>
        <pt x="533" y="568" on="0"/>
        <pt x="526" y="520" on="1"/>
        <pt x="514" y="435" on="0"/>
        <pt x="389" y="335" on="0"/>
        <pt x="286" y="335" on="1"/>
        <pt x="175" y="335" on="1"/>
        <pt x="132" y="27" on="1"/>
        <pt x="226" y="27" on="1"/>
        <pt x="223" y="0" on="1"/>
        <pt x="35" y="0" on="1"/>
      </contour>
      <contour>
        <pt x="179" y="362" on="1"/>
        <pt x="288" y="362" on="1"/>
        <pt x="343" y="362" on="0"/>
        <pt x="420" y="392" on="0"/>
        <pt x="470" y="439" on="0"/>
        <pt x="495" y="494" on="0"/>
        <pt x="498" y="520" on="1"/>
        <pt x="502" y="550" on="0"/>
        <pt x="481" y="606" on="0"/>
        <pt x="437" y="648" on="0"/>
        <pt x="373" y="673" on="0"/>
        <pt x="333" y="673" on="1"/>
        <pt x="223" y="673" on="1"/>
      </contour>
    </TTGlyph>
    <TTGlyph name="Q" xMin="74" yMin="-8" xMax="811" yMax="708">
      <contour>
        <pt x="113" y="348" on="1"/>
        <pt x="103" y="280" on="0"/>
        <pt x="138" y="160" on="0"/>
        <pt x="214" y="71" on="0"/>
        <pt x="325" y="19" on="0"/>
        <pt x="393" y="19" on="1"/>
        <pt x="461" y="19" on="0"/>
        <pt x="590" y="71" on="0"/>
        <pt x="693" y="161" on="0"/>
        <pt x="763" y="281" on="0"/>
        <pt x="773" y="349" on="1"/>
        <pt x="782" y="417" on="0"/>
        <pt x="747" y="538" on="0"/>
        <pt x="669" y="628" on="0"/>
        <pt x="556" y="681" on="0"/>
        <pt x="488" y="681" on="1"/>
        <pt x="420" y="681" on="0"/>
        <pt x="293" y="628" on="0"/>
        <pt x="191" y="538" on="0"/>
        <pt x="122" y="417" on="0"/>
      </contour>
      <contour>
        <pt x="85" y="349" on="1"/>
        <pt x="95" y="423" on="0"/>
        <pt x="170" y="554" on="0"/>
        <pt x="280" y="651" on="0"/>
        <pt x="418" y="708" on="0"/>
        <pt x="492" y="708" on="1"/>
        <pt x="566" y="708" on="0"/>
        <pt x="689" y="651" on="0"/>
        <pt x="773" y="554" on="0"/>
        <pt x="811" y="423" on="0"/>
        <pt x="801" y="349" on="1"/>
        <pt x="793" y="295" on="0"/>
        <pt x="748" y="195" on="0"/>
        <pt x="680" y="112" on="0"/>
        <pt x="592" y="47" on="0"/>
        <pt x="543" y="27" on="1"/>
        <pt x="778" y="27" on="1"/>
        <pt x="774" y="0" on="1"/>
        <pt x="467" y="0" on="1"/>
        <pt x="427" y="-8" on="0"/>
        <pt x="392" y="-8" on="1"/>
        <pt x="318" y="-8" on="0"/>
        <pt x="196" y="48" on="0"/>
        <pt x="112" y="145" on="0"/>
        <pt x="74" y="275" on="0"/>
      </contour>
    </TTGlyph>
    <TTGlyph name="R" xMin="35" yMin="0" xMax="538" yMax="700">
      <contour>
        <pt x="38" y="27" on="1"/>
        <pt x="104" y="27" on="1"/>
        <pt x="195" y="673" on="1"/>
        <pt x="129" y="673" on="1"/>
        <pt x="133" y="700" on="1"/>
        <pt x="344" y="700" on="1"/>
        <pt x="374" y="700" on="0"/>
        <pt x="443" y="680" on="0"/>
        <pt x="500" y="637" on="0"/>
        <pt x="533" y="568" on="0"/>
        <pt x="526" y="520" on="1"/>
        <pt x="516" y="449" on="0"/>
        <pt x="425" y="355" on="0"/>
        <pt x="349" y="340" on="1"/>
        <pt x="452" y="27" on="1"/>
        <pt x="538" y="27" on="1"/>
        <pt x="535" y="0" on="1"/>
        <pt x="433" y="0" on="1"/>
        <pt x="320" y="338" on="1"/>
        <pt x="297" y="335" on="0"/>
        <pt x="273" y="335" on="1"/>
        <pt x="175" y="335" on="1"/>
        <pt x="132" y="27" on="1"/>
        <pt x="226" y="27" on="1"/>
        <pt x="223" y="0" on="1"/>
        <pt x="35" y="0" on="1"/>
      </contour>
      <contour>
        <pt x="179" y="362" on="1"/>
        <pt x="288" y="362" on="1"/>
        <pt x="343" y="362" on="0"/>
        <pt x="420" y="392" on="0"/>
        <pt x="470" y="439" on="0"/>
        <pt x="495" y="494" on="0"/>
        <pt x="498" y="520" on="1"/>
        <pt x="502" y="550" on="0"/>
        <pt x="481" y="606" on="0"/>
        <pt x="437" y="648" on="0"/>
        <pt x="373" y="673" on="0"/>
        <pt x="333" y="673" on="1"/>
        <pt x="223" y="673" on="1"/>
      </contour>
    </TTGlyph>
    <TTGlyph name="S" xMin="52" yMin="-8" xMax="486" yMax="704">
      <contour>
        <pt x="52" y="70" on="1"/>
        <pt x="66" y="173" on="1"/>
        <pt x="93" y="173" on="1"/>
        <pt x="80" y="83" on="1"/>
        <pt x="105" y="56" on="0"/>
        <pt x="182" y="19" on="0"/>
        <pt x="240" y="19" on="1"/>
        <pt x="276" y="19" on="0"/>
        <pt x="347" y="42" on="0"/>
        <pt x="405" y="84" on="0"/>
        <pt x="445" y="145" on="0"/>
        <pt x="450" y="183" on="1"/>
        <pt x="456" y="228" on="0"/>
        <pt x="435" y="287" on="0"/>
        <pt x="390" y="324" on="0"/>
        <pt x="330" y="347" on="0"/>
        <pt x="266" y="366" on="0"/>
        <pt x="205" y="387" on="0"/>
        <pt x="158" y="421" on="0"/>
        <pt x="132" y="475" on="0"/>
        <pt x="136" y="517" on="1"/>
        <pt x="139" y="550" on="0"/>
        <pt x="167" y="617" on="0"/>
        <pt x="218" y="671" on="0"/>
        <pt x="291" y="704" on="0"/>
        <pt x="339" y="704" on="1"/>
        <pt x="373" y="704" on="0"/>
        <pt x="455" y="686" on="0"/>
        <pt x="486" y="657" on="1"/>
        <pt x="471" y="546" on="1"/>
        <pt x="444" y="546" on="1"/>
        <pt x="457" y="643" on="1"/>
        <pt x="440" y="657" on="0"/>
        <pt x="379" y="677" on="0"/>
        <pt x="334" y="677" on="1"/>
        <pt x="297" y="677" on="0"/>
        <pt x="238" y="652" on="0"/>
        <pt x="195" y="610" on="0"/>
        <pt x="169" y="556" on="0"/>
        <pt x="165" y="527" on="1"/>
        <pt x="160" y="489" on="0"/>
        <pt x="184" y="440" on="0"/>
        <pt x="230" y="409" on="0"/>
        <pt x="291" y="389" on="0"/>
        <pt x="356" y="369" on="0"/>
        <pt x="417" y="343" on="0"/>
        <pt x="462" y="301" on="0"/>
        <pt x="485" y="235" on="0"/>
        <pt x="479" y="186" on="1"/>
        <pt x="473" y="142" on="0"/>
        <pt x="430" y="70" on="0"/>
        <pt x="366" y="19" on="0"/>
        <pt x="284" y="-8" on="0"/>
        <pt x="241" y="-8" on="1"/>
        <pt x="201" y="-8" on="0"/>
        <pt x="138" y="8" on="0"/>
        <pt x="92" y="32" on="0"/>
        <pt x="60" y="59" on="0"/>
      </contour>
    </TTGlyph>
    <TTGlyph name="T" xMin="111" yMin="0" xMax="686" yMax="700">
      <contour>
        <pt x="220" y="27" on="1"/>
        <pt x="300" y="27" on="1"/>
        <pt x="392" y="673" on="1"/>
        <pt x="156" y="673" on="1"/>
        <pt x="138" y="546" on="1"/>
        <pt x="111" y="546" on="1"/>
        <pt x="133" y="700" on="1"/>
        <pt x="686" y="700" on="1"/>
        <pt x="664" y="546" on="1"/>
        <pt x="637" y="546" on="1"/>
        <pt x="655" y="673" on="1"/>
        <pt x="419" y="673" on="1"/>
        <pt x="328" y="27" on="1"/>
        <pt x="408" y="27" on="1"/>
        <pt x="405" y="0" on="1"/>
        <pt x="217" y="0" on="1"/>
      </contour>
    </TTGlyph>
    <TTGlyph name="Thorn" xMin="35" yMin="0" xMax="515" yMax="700">
      <contour>
        <pt x="38" y="27" on="1"/>
        <pt x="109" y="27" on="1"/>
        <pt x="200" y="673" on="1"/>
        <pt x="129" y="673" on="1"/>
        <pt x="133" y="700" on="1"/>
        <pt x="317" y="700" on="1"/>
        <pt x="313" y="673" on="1"/>
        <pt x="228" y="673" on="1"/>
        <pt x="209" y="535" on="1"/>
        <pt x="326" y="535" on="1"/>
        <pt x="356" y="535" on="0"/>
        <pt x="425" y="515" on="0"/>
        <pt x="482" y="472" on="0"/>
        <pt x="515" y="403" on="0"/>
        <pt x="508" y="355" on="1"/>
        <pt x="496" y="270" on="0"/>
        <pt x="371" y="170" on="0"/>
        <pt x="268" y="170" on="1"/>
        <pt x="157" y="170" on="1"/>
        <pt x="137" y="27" on="1"/>
        <pt x="226" y="27" on="1"/>
        <pt x="223" y="0" on="1"/>
        <pt x="35" y="0" on="1"/>
      </contour>
      <contour>
        <pt x="161" y="197" on="1"/>
        <pt x="270" y="197" on="1"/>
        <pt x="325" y="197" on="0"/>
        <pt x="402" y="227" on="0"/>
        <pt x="452" y="274" on="0"/>
        <pt x="477" y="329" on="0"/>
        <pt x="480" y="355" on="1"/>
        <pt x="484" y="385" on="0"/>
        <pt x="463" y="441" on="0"/>
        <pt x="419" y="483" on="0"/>
        <pt x="355" y="508" on="0"/>
        <pt x="315" y="508" on="1"/>
        <pt x="205" y="508" on="1"/>
      </contour>
    </TTGlyph>
    <TTGlyph name="U" xMin="130" yMin="-8" xMax="749" yMax="700">
      <contour>
        <pt x="134" y="700" on="1"/>
        <pt x="322" y="700" on="1"/>
        <pt x="318" y="673" on="1"/>
        <pt x="235" y="673" on="1"/>
        <pt x="173" y="229" on="1"/>
        <pt x="159" y="127" on="0"/>
        <pt x="256" y="19" on="0"/>
        <pt x="345" y="19" on="1"/>
        <pt x="389" y="19" on="0"/>
        <pt x="467" y="47" on="0"/>
        <pt x="529" y="100" on="0"/>
        <pt x="571" y="178" on="0"/>
        <pt x="578" y="229" on="1"/>
        <pt x="640" y="673" on="1"/>
        <pt x="558" y="673" on="1"/>
        <pt x="561" y="700" on="1"/>
        <pt x="749" y="700" on="1"/>
        <pt x="745" y="673" on="1"/>
        <pt x="668" y="673" on="1"/>
        <pt x="605" y="226" on="1"/>
        <pt x="597" y="169" on="0"/>
        <pt x="550" y="81" on="0"/>
        <pt x="480" y="22" on="0"/>
        <pt x="391" y="-8" on="0"/>
        <pt x="342" y="-8" on="1"/>
        <pt x="292" y="-8" on="0"/>
        <pt x="212" y="22" on="0"/>
        <pt x="159" y="81" on="0"/>
        <pt x="136" y="169" on="0"/>
        <pt x="144" y="226" on="1"/>
        <pt x="207" y="673" on="1"/>
        <pt x="130" y="673" on="1"/>
      </contour>
    </TTGlyph>
    <TTGlyph name="Uacute" xMin="130" yMin="-8" xMax="749" yMax="883">
      <component glyphName="U" x="0" y="0" flags="0x204"/>
      <component glyphName="acute" x="337" y="271" flags="0x4"/>
    </TTGlyph>
    <TTGlyph name="Ucircumflex" xMin="130" yMin="-8" xMax="749" yMax="931">
      <component glyphName="U" x="0" y="0" flags="0x204"/>
      <component glyphName="asciicircum" x="230" y="271" flags="0x4"/>
    </TTGlyph>
    <TTGlyph name="Udieresis" xMin="130" yMin="-8" xMax="749" yMax="822">
      <component glyphName="U" x="0" y="0" flags="0x204"/>
      <component glyphName="dieresis" x="266" y="291" flags="0x4"/>
    </TTGlyph>
    <TTGlyph name="Ugrave" xMin="130" yMin="-8" xMax="749" yMax="883">
      <component glyphName="U" x="0" y="0" flags="0x204"/>
      <component glyphName="grave" x="378" y="271" flags="0x4"/>
    </TTGlyph>
    <TTGlyph name="V" xMin="133" yMin="-32" xMax="904" yMax="700">
      <contour>
        <pt x="137" y="700" on="1"/>
        <pt x="325" y="700" on="1"/>
        <pt x="321" y="673" on="1"/>
        <pt x="246" y="673" on="1"/>
        <pt x="290" y="518" on="0"/>
        <pt x="376" y="212" on="0"/>
        <pt x="421" y="57" on="1"/>
        <pt x="426" y="30" on="1"/>
        <pt x="439" y="57" on="1"/>
        <pt x="526" y="212" on="0"/>
        <pt x="698" y="518" on="0"/>
        <pt x="785" y="673" on="1"/>
        <pt x="713" y="673" on="1"/>
        <pt x="717" y="700" on="1"/>
        <pt x="904" y="700" on="1"/>
        <pt x="900" y="673" on="1"/>
        <pt x="814" y="673" on="1"/>
        <pt x="715" y="495" on="0"/>
        <pt x="517" y="145" on="0"/>
        <pt x="417" y="-32" on="1"/>
        <pt x="367" y="145" on="0"/>
        <pt x="267" y="495" on="0"/>
        <pt x="216" y="673" on="1"/>
        <pt x="133" y="673" on="1"/>
      </contour>
    </TTGlyph>
    <TTGlyph name="W" xMin="133" yMin="-32" xMax="1279" yMax="700">
      <contour>
        <pt x="137" y="700" on="1"/>
        <pt x="325" y="700" on="1"/>
        <pt x="321" y="673" on="1"/>
        <pt x="246" y="673" on="1"/>
        <pt x="289" y="518" on="0"/>
        <pt x="375" y="211" on="0"/>
        <pt x="421" y="57" on="1"/>
        <pt x="426" y="30" on="1"/>
        <pt x="477" y="135" on="0"/>
        <pt x="598" y="338" on="0"/>
        <pt x="655" y="441" on="1"/>
        <pt x="639" y="499" on="0"/>
        <pt x="606" y="614" on="0"/>
        <pt x="589" y="673" on="1"/>
        <pt x="508" y="673" on="1"/>
        <pt x="511" y="700" on="1"/>
        <pt x="699" y="700" on="1"/>
        <pt x="695" y="673" on="1"/>
        <pt x="618" y="673" on="1"/>
        <pt x="661" y="518" on="0"/>
        <pt x="747" y="211" on="0"/>
        <pt x="793" y="57" on="1"/>
        <pt x="798" y="30" on="1"/>
        <pt x="811" y="57" on="1"/>
        <pt x="898" y="212" on="0"/>
        <pt x="1070" y="518" on="0"/>
        <pt x="1158" y="673" on="1"/>
        <pt x="1087" y="673" on="1"/>
        <pt x="1091" y="700" on="1"/>
        <pt x="1279" y="700" on="1"/>
        <pt x="1275" y="673" on="1"/>
        <pt x="1186" y="673" on="1"/>
        <pt x="1087" y="495" on="0"/>
        <pt x="889" y="145" on="0"/>
        <pt x="790" y="-32" on="1"/>
        <pt x="671" y="385" on="1"/>
        <pt x="665" y="410" on="1"/>
        <pt x="606" y="299" on="0"/>
        <pt x="479" y="78" on="0"/>
        <pt x="417" y="-32" on="1"/>
        <pt x="367" y="145" on="0"/>
        <pt x="267" y="495" on="0"/>
        <pt x="216" y="673" on="1"/>
        <pt x="133" y="673" on="1"/>
      </contour>
    </TTGlyph>
    <TTGlyph name="X" xMin="35" yMin="0" xMax="770" yMax="700">
      <contour>
        <pt x="133" y="700" on="1"/>
        <pt x="321" y="700" on="1"/>
        <pt x="317" y="673" on="1"/>
        <pt x="259" y="673" on="1"/>
        <pt x="295" y="603" on="0"/>
        <pt x="366" y="464" on="0"/>
        <pt x="401" y="395" on="1"/>
        <pt x="408" y="379" on="1"/>
        <pt x="419" y="395" on="1"/>
        <pt x="637" y="673" on="1"/>
        <pt x="578" y="673" on="1"/>
        <pt x="582" y="700" on="1"/>
        <pt x="770" y="700" on="1"/>
        <pt x="766" y="673" on="1"/>
        <pt x="670" y="673" on="1"/>
        <pt x="607" y="592" on="0"/>
        <pt x="484" y="435" on="0"/>
        <pt x="421" y="355" on="1"/>
        <pt x="463" y="272" on="0"/>
        <pt x="547" y="109" on="0"/>
        <pt x="589" y="27" on="1"/>
        <pt x="675" y="27" on="1"/>
        <pt x="672" y="0" on="1"/>
        <pt x="484" y="0" on="1"/>
        <pt x="487" y="27" on="1"/>
        <pt x="554" y="27" on="1"/>
        <pt x="427" y="275" on="1"/>
        <pt x="419" y="289" on="0"/>
        <pt x="405" y="322" on="0"/>
        <pt x="397" y="336" on="1"/>
        <pt x="387" y="320" on="1"/>
        <pt x="329" y="245" on="0"/>
        <pt x="214" y="100" on="0"/>
        <pt x="157" y="27" on="1"/>
        <pt x="226" y="27" on="1"/>
        <pt x="223" y="0" on="1"/>
        <pt x="35" y="0" on="1"/>
        <pt x="38" y="27" on="1"/>
        <pt x="124" y="27" on="1"/>
        <pt x="384" y="359" on="1"/>
        <pt x="225" y="673" on="1"/>
        <pt x="129" y="673" on="1"/>
      </contour>
    </TTGlyph>
    <TTGlyph name="Y" xMin="129" yMin="0" xMax="795" yMax="700">
      <contour>
        <pt x="277" y="27" on="1"/>
        <pt x="353" y="27" on="1"/>
        <pt x="387" y="264" on="1"/>
        <pt x="339" y="367" on="0"/>
        <pt x="246" y="570" on="0"/>
        <pt x="199" y="673" on="1"/>
        <pt x="129" y="673" on="1"/>
        <pt x="133" y="700" on="1"/>
        <pt x="321" y="700" on="1"/>
        <pt x="317" y="673" on="1"/>
        <pt x="233" y="673" on="1"/>
        <pt x="275" y="582" on="0"/>
        <pt x="357" y="405" on="0"/>
        <pt x="397" y="314" on="1"/>
        <pt x="406" y="287" on="1"/>
        <pt x="407" y="287" on="1"/>
        <pt x="421" y="314" on="1"/>
        <pt x="686" y="673" on="1"/>
        <pt x="604" y="673" on="1"/>
        <pt x="608" y="700" on="1"/>
        <pt x="795" y="700" on="1"/>
        <pt x="791" y="673" on="1"/>
        <pt x="720" y="673" on="1"/>
        <pt x="645" y="570" on="0"/>
        <pt x="494" y="366" on="0"/>
        <pt x="418" y="263" on="1"/>
        <pt x="385" y="27" on="1"/>
        <pt x="464" y="27" on="1"/>
        <pt x="461" y="0" on="1"/>
        <pt x="274" y="0" on="1"/>
      </contour>
    </TTGlyph>
    <TTGlyph name="Yacute" xMin="129" yMin="0" xMax="795" yMax="883">
      <component glyphName="Y" x="0" y="0" flags="0x204"/>
      <component glyphName="acute" x="374" y="271" flags="0x4"/>
    </TTGlyph>
    <TTGlyph name="Z" xMin="35" yMin="0" xMax="663" yMax="735">
      <contour>
        <pt x="620" y="188" on="1"/>
        <pt x="594" y="0" on="1"/>
        <pt x="35" y="0" on="1"/>
        <pt x="38" y="27" on="1"/>
        <pt x="623" y="673" on="1"/>
        <pt x="146" y="673" on="1"/>
        <pt x="155" y="735" on="1"/>
        <pt x="184" y="735" on="1"/>
        <pt x="179" y="700" on="1"/>
        <pt x="663" y="700" on="1"/>
        <pt x="659" y="673" on="1"/>
        <pt x="74" y="27" on="1"/>
        <pt x="570" y="27" on="1"/>
        <pt x="593" y="188" on="1"/>
      </contour>
    </TTGlyph>
    <TTGlyph name="a" xMin="56" yMin="-7" xMax="504" yMax="383">
      <contour>
        <pt x="62" y="188" on="1"/>
        <pt x="68" y="228" on="0"/>
        <pt x="108" y="299" on="0"/>
        <pt x="168" y="352" on="0"/>
        <pt x="244" y="383" on="0"/>
        <pt x="285" y="383" on="1"/>
        <pt x="315" y="383" on="0"/>
        <pt x="366" y="366" on="0"/>
        <pt x="406" y="336" on="0"/>
        <pt x="434" y="296" on="0"/>
        <pt x="440" y="274" on="1"/>
        <pt x="443" y="299" on="0"/>
        <pt x="453" y="349" on="0"/>
        <pt x="458" y="375" on="1"/>
        <pt x="479" y="375" on="1"/>
        <pt x="430" y="27" on="1"/>
        <pt x="504" y="27" on="1"/>
        <pt x="500" y="0" on="1"/>
        <pt x="401" y="0" on="1"/>
        <pt x="408" y="47" on="1"/>
        <pt x="410" y="61" on="0"/>
        <pt x="414" y="88" on="0"/>
        <pt x="416" y="102" on="1"/>
        <pt x="404" y="80" on="0"/>
        <pt x="366" y="40" on="0"/>
        <pt x="318" y="10" on="0"/>
        <pt x="261" y="-7" on="0"/>
        <pt x="230" y="-7" on="1"/>
        <pt x="189" y="-7" on="0"/>
        <pt x="122" y="24" on="0"/>
        <pt x="77" y="76" on="0"/>
        <pt x="56" y="147" on="0"/>
      </contour>
      <contour>
        <pt x="90" y="188" on="1"/>
        <pt x="85" y="153" on="0"/>
        <pt x="102" y="92" on="0"/>
        <pt x="141" y="47" on="0"/>
        <pt x="198" y="21" on="0"/>
        <pt x="233" y="21" on="1"/>
        <pt x="268" y="21" on="0"/>
        <pt x="334" y="47" on="0"/>
        <pt x="386" y="92" on="0"/>
        <pt x="421" y="153" on="0"/>
        <pt x="426" y="188" on="1"/>
        <pt x="431" y="223" on="0"/>
        <pt x="413" y="284" on="0"/>
        <pt x="374" y="330" on="0"/>
        <pt x="316" y="356" on="0"/>
        <pt x="281" y="356" on="1"/>
        <pt x="246" y="356" on="0"/>
        <pt x="181" y="330" on="0"/>
        <pt x="129" y="284" on="0"/>
        <pt x="95" y="223" on="0"/>
      </contour>
    </TTGlyph>
    <TTGlyph name="aacute" xMin="56" yMin="-7" xMax="504" yMax="612">
      <component glyphName="a" x="0" y="0" flags="0x204"/>
      <component glyphName="acute" x="216" y="0" flags="0x4"/>
    </TTGlyph>
    <TTGlyph name="acircumflex" xMin="56" yMin="-7" xMax="504" yMax="660">
      <component glyphName="a" x="0" y="0" flags="0x204"/>
      <component glyphName="asciicircum" x="105" y="0" flags="0x4"/>
    </TTGlyph>
    <TTGlyph name="acute" xMin="100" yMin="479" xMax="238" yMax="612">
      <contour>
        <pt x="100" y="479" on="1"/>
        <pt x="127" y="512" on="0"/>
        <pt x="181" y="579" on="0"/>
        <pt x="208" y="612" on="1"/>
        <pt x="238" y="612" on="1"/>
        <pt x="209" y="579" on="0"/>
        <pt x="153" y="512" on="0"/>
        <pt x="125" y="479" on="1"/>
      </contour>
    </TTGlyph>
    <TTGlyph name="adieresis" xMin="56" yMin="-7" xMax="504" yMax="531">
      <component glyphName="a" x="0" y="0" flags="0x204"/>
      <component glyphName="dieresis" x="130" y="0" flags="0x4"/>
    </TTGlyph>
    <TTGlyph name="ae" xMin="45" yMin="-10" xMax="587" yMax="381">
      <contour>
        <pt x="382" y="241" on="1"/>
        <pt x="376" y="197" on="1"/>
        <pt x="421" y="214" on="0"/>
        <pt x="509" y="247" on="0"/>
        <pt x="554" y="264" on="1"/>
        <pt x="541" y="304" on="0"/>
        <pt x="476" y="354" on="0"/>
        <pt x="431" y="354" on="1"/>
        <pt x="399" y="354" on="0"/>
        <pt x="367" y="341" on="1"/>
        <pt x="381" y="327" on="0"/>
        <pt x="387" y="277" on="0"/>
      </contour>
      <contour>
        <pt x="344" y="168" on="1"/>
        <pt x="258" y="168" on="1"/>
        <pt x="242" y="168" on="0"/>
        <pt x="185" y="168" on="0"/>
        <pt x="127" y="157" on="0"/>
        <pt x="82" y="128" on="0"/>
        <pt x="78" y="99" on="1"/>
        <pt x="75" y="73" on="0"/>
        <pt x="95" y="41" on="0"/>
        <pt x="131" y="23" on="0"/>
        <pt x="176" y="17" on="0"/>
        <pt x="197" y="17" on="1"/>
        <pt x="219" y="17" on="0"/>
        <pt x="265" y="25" on="0"/>
        <pt x="304" y="44" on="0"/>
        <pt x="331" y="79" on="0"/>
        <pt x="335" y="106" on="1"/>
      </contour>
      <contour>
        <pt x="129" y="320" on="1"/>
        <pt x="124" y="325" on="0"/>
        <pt x="117" y="336" on="0"/>
        <pt x="112" y="341" on="1"/>
        <pt x="123" y="349" on="0"/>
        <pt x="155" y="364" on="0"/>
        <pt x="192" y="375" on="0"/>
        <pt x="229" y="381" on="0"/>
        <pt x="246" y="381" on="1"/>
        <pt x="283" y="381" on="0"/>
        <pt x="334" y="373" on="0"/>
        <pt x="351" y="363" on="1"/>
        <pt x="390" y="381" on="0"/>
        <pt x="435" y="381" on="1"/>
        <pt x="495" y="381" on="0"/>
        <pt x="576" y="308" on="0"/>
        <pt x="587" y="249" on="1"/>
        <pt x="533" y="229" on="0"/>
        <pt x="426" y="188" on="0"/>
        <pt x="372" y="167" on="1"/>
        <pt x="366" y="128" on="1"/>
        <pt x="361" y="94" on="0"/>
        <pt x="340" y="49" on="0"/>
        <pt x="319" y="32" on="1"/>
        <pt x="350" y="19" on="0"/>
        <pt x="385" y="19" on="1"/>
        <pt x="418" y="19" on="0"/>
        <pt x="480" y="44" on="0"/>
        <pt x="506" y="65" on="1"/>
        <pt x="509" y="59" on="0"/>
        <pt x="517" y="49" on="0"/>
        <pt x="520" y="44" on="1"/>
        <pt x="491" y="20" on="0"/>
        <pt x="420" y="-8" on="0"/>
        <pt x="381" y="-8" on="1"/>
        <pt x="332" y="-8" on="0"/>
        <pt x="297" y="11" on="1"/>
        <pt x="277" y="0" on="0"/>
        <pt x="226" y="-10" on="0"/>
        <pt x="193" y="-10" on="1"/>
        <pt x="157" y="-10" on="0"/>
        <pt x="100" y="0" on="0"/>
        <pt x="62" y="26" on="0"/>
        <pt x="45" y="67" on="0"/>
        <pt x="49" y="99" on="1"/>
        <pt x="53" y="127" on="0"/>
        <pt x="84" y="164" on="0"/>
        <pt x="129" y="187" on="0"/>
        <pt x="184" y="197" on="0"/>
        <pt x="213" y="197" on="1"/>
        <pt x="348" y="197" on="1"/>
        <pt x="354" y="243" on="1"/>
        <pt x="358" y="271" on="0"/>
        <pt x="355" y="312" on="0"/>
        <pt x="331" y="340" on="0"/>
        <pt x="283" y="354" on="0"/>
        <pt x="241" y="354" on="1"/>
        <pt x="227" y="354" on="0"/>
        <pt x="196" y="348" on="0"/>
        <pt x="165" y="339" on="0"/>
        <pt x="138" y="326" on="0"/>
      </contour>
    </TTGlyph>
    <TTGlyph name="agrave" xMin="56" yMin="-7" xMax="504" yMax="612">
      <component glyphName="a" x="0" y="0" flags="0x204"/>
      <component glyphName="grave" x="217" y="0" flags="0x4"/>
    </TTGlyph>
    <TTGlyph name="ampersand" xMin="73" yMin="-19" xMax="600" yMax="750">
      <contour>
        <pt x="468" y="375" on="1"/>
        <pt x="600" y="375" on="1"/>
        <pt x="596" y="348" on="1"/>
        <pt x="492" y="348" on="1"/>
        <pt x="482" y="270" on="1"/>
        <pt x="476" y="227" on="0"/>
        <pt x="461" y="136" on="0"/>
        <pt x="433" y="96" on="1"/>
        <pt x="481" y="-4" on="1"/>
        <pt x="457" y="-19" on="1"/>
        <pt x="414" y="70" on="1"/>
        <pt x="382" y="35" on="0"/>
        <pt x="295" y="-7" on="0"/>
        <pt x="247" y="-7" on="1"/>
        <pt x="206" y="-7" on="0"/>
        <pt x="139" y="23" on="0"/>
        <pt x="94" y="76" on="0"/>
        <pt x="73" y="146" on="0"/>
        <pt x="79" y="187" on="1"/>
        <pt x="84" y="223" on="0"/>
        <pt x="118" y="288" on="0"/>
        <pt x="169" y="339" on="0"/>
        <pt x="233" y="373" on="0"/>
        <pt x="268" y="379" on="1"/>
        <pt x="213" y="496" on="1"/>
        <pt x="199" y="526" on="0"/>
        <pt x="194" y="590" on="0"/>
        <pt x="212" y="652" on="0"/>
        <pt x="256" y="706" on="0"/>
        <pt x="292" y="726" on="1"/>
        <pt x="323" y="743" on="0"/>
        <pt x="382" y="750" on="0"/>
        <pt x="436" y="740" on="0"/>
        <pt x="483" y="718" on="0"/>
        <pt x="500" y="706" on="1"/>
        <pt x="485" y="682" on="1"/>
        <pt x="466" y="694" on="0"/>
        <pt x="424" y="715" on="0"/>
        <pt x="379" y="724" on="0"/>
        <pt x="331" y="718" on="0"/>
        <pt x="306" y="704" on="1"/>
        <pt x="243" y="667" on="0"/>
        <pt x="214" y="558" on="0"/>
        <pt x="238" y="506" on="1"/>
        <pt x="415" y="133" on="1"/>
        <pt x="426" y="149" on="0"/>
        <pt x="442" y="185" on="0"/>
        <pt x="445" y="205" on="1"/>
      </contour>
      <contour>
        <pt x="107" y="187" on="1"/>
        <pt x="102" y="152" on="0"/>
        <pt x="119" y="91" on="0"/>
        <pt x="158" y="46" on="0"/>
        <pt x="216" y="20" on="0"/>
        <pt x="251" y="20" on="1"/>
        <pt x="296" y="20" on="0"/>
        <pt x="376" y="61" on="0"/>
        <pt x="402" y="96" on="1"/>
        <pt x="281" y="353" on="1"/>
        <pt x="248" y="350" on="0"/>
        <pt x="189" y="322" on="0"/>
        <pt x="142" y="278" on="0"/>
        <pt x="111" y="220" on="0"/>
      </contour>
    </TTGlyph>
    <TTGlyph name="aring" xMin="56" yMin="-7" xMax="504" yMax="608">
      <contour>
        <pt x="264" y="540" on="1"/>
        <pt x="261" y="521" on="0"/>
        <pt x="285" y="494" on="0"/>
        <pt x="303" y="494" on="1"/>
        <pt x="322" y="494" on="0"/>
        <pt x="353" y="521" on="0"/>
        <pt x="355" y="540" on="1"/>
        <pt x="357" y="558" on="0"/>
        <pt x="334" y="586" on="0"/>
        <pt x="315" y="586" on="1"/>
        <pt x="297" y="586" on="0"/>
        <pt x="266" y="558" on="0"/>
      </contour>
      <contour>
        <pt x="242" y="540" on="1"/>
        <pt x="246" y="569" on="0"/>
        <pt x="290" y="608" on="0"/>
        <pt x="319" y="608" on="1"/>
        <pt x="348" y="608" on="0"/>
        <pt x="382" y="569" on="0"/>
        <pt x="378" y="540" on="1"/>
        <pt x="373" y="511" on="0"/>
        <pt x="329" y="472" on="0"/>
        <pt x="300" y="472" on="1"/>
        <pt x="271" y="472" on="0"/>
        <pt x="237" y="511" on="0"/>
      </contour>
      <contour>
        <pt x="62" y="188" on="1"/>
        <pt x="68" y="228" on="0"/>
        <pt x="108" y="299" on="0"/>
        <pt x="168" y="352" on="0"/>
        <pt x="244" y="383" on="0"/>
        <pt x="285" y="383" on="1"/>
        <pt x="315" y="383" on="0"/>
        <pt x="366" y="366" on="0"/>
        <pt x="406" y="336" on="0"/>
        <pt x="434" y="296" on="0"/>
        <pt x="440" y="274" on="1"/>
        <pt x="443" y="299" on="0"/>
        <pt x="453" y="349" on="0"/>
        <pt x="458" y="375" on="1"/>
        <pt x="479" y="375" on="1"/>
        <pt x="430" y="27" on="1"/>
        <pt x="504" y="27" on="1"/>
        <pt x="500" y="0" on="1"/>
        <pt x="401" y="0" on="1"/>
        <pt x="408" y="47" on="1"/>
        <pt x="410" y="61" on="0"/>
        <pt x="414" y="88" on="0"/>
        <pt x="416" y="102" on="1"/>
        <pt x="404" y="80" on="0"/>
        <pt x="366" y="40" on="0"/>
        <pt x="318" y="10" on="0"/>
        <pt x="261" y="-7" on="0"/>
        <pt x="230" y="-7" on="1"/>
        <pt x="189" y="-7" on="0"/>
        <pt x="122" y="24" on="0"/>
        <pt x="77" y="76" on="0"/>
        <pt x="56" y="147" on="0"/>
      </contour>
      <contour>
        <pt x="90" y="188" on="1"/>
        <pt x="85" y="153" on="0"/>
        <pt x="102" y="92" on="0"/>
        <pt x="141" y="47" on="0"/>
        <pt x="198" y="21" on="0"/>
        <pt x="233" y="21" on="1"/>
        <pt x="268" y="21" on="0"/>
        <pt x="334" y="47" on="0"/>
        <pt x="386" y="92" on="0"/>
        <pt x="421" y="153" on="0"/>
        <pt x="426" y="188" on="1"/>
        <pt x="431" y="223" on="0"/>
        <pt x="413" y="284" on="0"/>
        <pt x="374" y="330" on="0"/>
        <pt x="316" y="356" on="0"/>
        <pt x="281" y="356" on="1"/>
        <pt x="246" y="356" on="0"/>
        <pt x="181" y="330" on="0"/>
        <pt x="129" y="284" on="0"/>
        <pt x="95" y="223" on="0"/>
      </contour>
    </TTGlyph>
    <TTGlyph name="asciicircum" xMin="99" yMin="479" xMax="339" yMax="660">
      <contour>
        <pt x="244" y="660" on="1"/>
        <pt x="268" y="615" on="0"/>
        <pt x="315" y="524" on="0"/>
        <pt x="339" y="479" on="1"/>
        <pt x="314" y="479" on="1"/>
        <pt x="295" y="514" on="0"/>
        <pt x="258" y="582" on="0"/>
        <pt x="238" y="617" on="1"/>
        <pt x="124" y="479" on="1"/>
        <pt x="99" y="479" on="1"/>
        <pt x="135" y="524" on="0"/>
        <pt x="208" y="615" on="0"/>
      </contour>
    </TTGlyph>
    <TTGlyph name="asciitilde" xMin="132" yMin="457" xMax="430" yMax="543">
      <contour>
        <pt x="271" y="494" on="1"/>
        <pt x="257" y="511" on="0"/>
        <pt x="235" y="523" on="0"/>
        <pt x="221" y="523" on="1"/>
        <pt x="213" y="523" on="0"/>
        <pt x="193" y="519" on="0"/>
        <pt x="172" y="507" on="0"/>
        <pt x="154" y="486" on="0"/>
        <pt x="150" y="470" on="1"/>
        <pt x="145" y="471" on="0"/>
        <pt x="136" y="471" on="0"/>
        <pt x="132" y="472" on="1"/>
        <pt x="135" y="491" on="0"/>
        <pt x="155" y="518" on="0"/>
        <pt x="181" y="535" on="0"/>
        <pt x="211" y="543" on="0"/>
        <pt x="225" y="543" on="1"/>
        <pt x="245" y="543" on="0"/>
        <pt x="277" y="523" on="0"/>
        <pt x="291" y="506" on="1"/>
        <pt x="304" y="489" on="0"/>
        <pt x="326" y="477" on="0"/>
        <pt x="340" y="477" on="1"/>
        <pt x="347" y="477" on="0"/>
        <pt x="368" y="481" on="0"/>
        <pt x="389" y="493" on="0"/>
        <pt x="407" y="514" on="0"/>
        <pt x="411" y="530" on="1"/>
        <pt x="416" y="529" on="0"/>
        <pt x="425" y="529" on="0"/>
        <pt x="430" y="528" on="1"/>
        <pt x="422" y="490" on="0"/>
        <pt x="365" y="457" on="0"/>
        <pt x="337" y="457" on="1"/>
        <pt x="317" y="457" on="0"/>
        <pt x="285" y="477" on="0"/>
      </contour>
    </TTGlyph>
    <TTGlyph name="asterisk" xMin="28" yMin="434" xMax="306" yMax="720">
      <contour>
        <pt x="195" y="575" on="1"/>
        <pt x="218" y="561" on="0"/>
        <pt x="266" y="531" on="0"/>
        <pt x="289" y="517" on="1"/>
        <pt x="284" y="510" on="0"/>
        <pt x="274" y="497" on="0"/>
        <pt x="269" y="490" on="1"/>
        <pt x="176" y="550" on="1"/>
        <pt x="171" y="521" on="0"/>
        <pt x="163" y="463" on="0"/>
        <pt x="158" y="434" on="1"/>
        <pt x="131" y="434" on="1"/>
        <pt x="147" y="550" on="1"/>
        <pt x="120" y="535" on="0"/>
        <pt x="66" y="506" on="0"/>
        <pt x="39" y="492" on="1"/>
        <pt x="36" y="499" on="0"/>
        <pt x="31" y="512" on="0"/>
        <pt x="28" y="519" on="1"/>
        <pt x="136" y="576" on="1"/>
        <pt x="113" y="591" on="0"/>
        <pt x="68" y="621" on="0"/>
        <pt x="45" y="636" on="1"/>
        <pt x="48" y="642" on="0"/>
        <pt x="57" y="654" on="0"/>
        <pt x="61" y="660" on="1"/>
        <pt x="84" y="645" on="0"/>
        <pt x="132" y="615" on="0"/>
        <pt x="155" y="600" on="1"/>
        <pt x="172" y="720" on="1"/>
        <pt x="203" y="720" on="1"/>
        <pt x="198" y="690" on="0"/>
        <pt x="189" y="630" on="0"/>
        <pt x="184" y="600" on="1"/>
        <pt x="241" y="629" on="0"/>
        <pt x="296" y="659" on="1"/>
        <pt x="299" y="653" on="0"/>
        <pt x="304" y="641" on="0"/>
        <pt x="306" y="635" on="1"/>
      </contour>
    </TTGlyph>
    <TTGlyph name="at" xMin="76" yMin="-212" xMax="901" yMax="590">
      <contour>
        <pt x="321" y="188" on="1"/>
        <pt x="316" y="153" on="0"/>
        <pt x="333" y="92" on="0"/>
        <pt x="372" y="47" on="0"/>
        <pt x="430" y="21" on="0"/>
        <pt x="465" y="21" on="1"/>
        <pt x="500" y="21" on="0"/>
        <pt x="565" y="47" on="0"/>
        <pt x="617" y="92" on="0"/>
        <pt x="651" y="153" on="0"/>
        <pt x="656" y="188" on="1"/>
        <pt x="661" y="223" on="0"/>
        <pt x="644" y="284" on="0"/>
        <pt x="605" y="330" on="0"/>
        <pt x="547" y="356" on="0"/>
        <pt x="512" y="356" on="1"/>
        <pt x="477" y="356" on="0"/>
        <pt x="412" y="330" on="0"/>
        <pt x="360" y="284" on="0"/>
        <pt x="326" y="223" on="0"/>
      </contour>
      <contour>
        <pt x="889" y="188" on="1"/>
        <pt x="878" y="130" on="0"/>
        <pt x="841" y="57" on="0"/>
        <pt x="794" y="15" on="0"/>
        <pt x="741" y="0" on="0"/>
        <pt x="716" y="0" on="1"/>
        <pt x="632" y="0" on="1"/>
        <pt x="639" y="47" on="1"/>
        <pt x="641" y="61" on="0"/>
        <pt x="645" y="88" on="0"/>
        <pt x="647" y="102" on="1"/>
        <pt x="635" y="79" on="0"/>
        <pt x="597" y="40" on="0"/>
        <pt x="549" y="11" on="0"/>
        <pt x="492" y="-7" on="0"/>
        <pt x="461" y="-7" on="1"/>
        <pt x="420" y="-7" on="0"/>
        <pt x="353" y="24" on="0"/>
        <pt x="308" y="76" on="0"/>
        <pt x="287" y="147" on="0"/>
        <pt x="293" y="188" on="1"/>
        <pt x="299" y="228" on="0"/>
        <pt x="339" y="299" on="0"/>
        <pt x="399" y="352" on="0"/>
        <pt x="475" y="383" on="0"/>
        <pt x="516" y="383" on="1"/>
        <pt x="546" y="383" on="0"/>
        <pt x="597" y="366" on="0"/>
        <pt x="637" y="336" on="0"/>
        <pt x="664" y="296" on="0"/>
        <pt x="670" y="274" on="1"/>
        <pt x="674" y="299" on="0"/>
        <pt x="684" y="349" on="0"/>
        <pt x="689" y="375" on="1"/>
        <pt x="711" y="375" on="1"/>
        <pt x="662" y="27" on="1"/>
        <pt x="725" y="27" on="1"/>
        <pt x="776" y="27" on="0"/>
        <pt x="847" y="103" on="0"/>
        <pt x="861" y="188" on="1"/>
        <pt x="872" y="266" on="0"/>
        <pt x="833" y="402" on="0"/>
        <pt x="746" y="504" on="0"/>
        <pt x="618" y="563" on="0"/>
        <pt x="541" y="563" on="1"/>
        <pt x="463" y="563" on="0"/>
        <pt x="319" y="504" on="0"/>
        <pt x="204" y="402" on="0"/>
        <pt x="126" y="266" on="0"/>
        <pt x="115" y="188" on="1"/>
        <pt x="104" y="111" on="0"/>
        <pt x="144" y="-25" on="0"/>
        <pt x="231" y="-126" on="0"/>
        <pt x="359" y="-185" on="0"/>
        <pt x="436" y="-185" on="1"/>
        <pt x="497" y="-185" on="0"/>
        <pt x="612" y="-147" on="0"/>
        <pt x="663" y="-115" on="1"/>
        <pt x="666" y="-121" on="0"/>
        <pt x="674" y="-131" on="0"/>
        <pt x="677" y="-136" on="1"/>
        <pt x="623" y="-172" on="0"/>
        <pt x="498" y="-212" on="0"/>
        <pt x="432" y="-212" on="1"/>
        <pt x="349" y="-212" on="0"/>
        <pt x="212" y="-149" on="0"/>
        <pt x="119" y="-40" on="0"/>
        <pt x="76" y="106" on="0"/>
        <pt x="88" y="189" on="1"/>
        <pt x="100" y="272" on="0"/>
        <pt x="183" y="418" on="0"/>
        <pt x="307" y="527" on="0"/>
        <pt x="462" y="590" on="0"/>
        <pt x="545" y="590" on="1"/>
        <pt x="628" y="590" on="0"/>
        <pt x="765" y="527" on="0"/>
        <pt x="858" y="418" on="0"/>
        <pt x="901" y="272" on="0"/>
      </contour>
    </TTGlyph>
    <TTGlyph name="atilde" xMin="56" yMin="-7" xMax="504" yMax="543">
      <component glyphName="a" x="0" y="0" flags="0x204"/>
      <component glyphName="asciitilde" x="20" y="0" flags="0x4"/>
    </TTGlyph>
    <TTGlyph name="b" xMin="35" yMin="-7" xMax="533" yMax="750">
      <contour>
        <pt x="39" y="27" on="1"/>
        <pt x="113" y="27" on="1"/>
        <pt x="211" y="723" on="1"/>
        <pt x="139" y="723" on="1"/>
        <pt x="143" y="750" on="1"/>
        <pt x="242" y="750" on="1"/>
        <pt x="183" y="329" on="1"/>
        <pt x="181" y="315" on="0"/>
        <pt x="176" y="288" on="0"/>
        <pt x="173" y="274" on="1"/>
        <pt x="185" y="296" on="0"/>
        <pt x="224" y="336" on="0"/>
        <pt x="272" y="366" on="0"/>
        <pt x="329" y="383" on="0"/>
        <pt x="359" y="383" on="1"/>
        <pt x="400" y="383" on="0"/>
        <pt x="467" y="352" on="0"/>
        <pt x="512" y="300" on="0"/>
        <pt x="533" y="228" on="0"/>
        <pt x="527" y="188" on="1"/>
        <pt x="521" y="147" on="0"/>
        <pt x="481" y="76" on="0"/>
        <pt x="421" y="24" on="0"/>
        <pt x="346" y="-7" on="0"/>
        <pt x="305" y="-7" on="1"/>
        <pt x="274" y="-7" on="0"/>
        <pt x="222" y="10" on="0"/>
        <pt x="181" y="40" on="0"/>
        <pt x="154" y="80" on="0"/>
        <pt x="148" y="102" on="1"/>
        <pt x="146" y="88" on="0"/>
        <pt x="144" y="61" on="0"/>
        <pt x="142" y="47" on="1"/>
        <pt x="135" y="0" on="1"/>
        <pt x="35" y="0" on="1"/>
      </contour>
      <contour>
        <pt x="499" y="188" on="1"/>
        <pt x="504" y="223" on="0"/>
        <pt x="487" y="284" on="0"/>
        <pt x="448" y="330" on="0"/>
        <pt x="390" y="356" on="0"/>
        <pt x="355" y="356" on="1"/>
        <pt x="320" y="356" on="0"/>
        <pt x="255" y="330" on="0"/>
        <pt x="203" y="284" on="0"/>
        <pt x="168" y="223" on="0"/>
        <pt x="163" y="188" on="1"/>
        <pt x="158" y="153" on="0"/>
        <pt x="176" y="92" on="0"/>
        <pt x="215" y="47" on="0"/>
        <pt x="273" y="21" on="0"/>
        <pt x="308" y="21" on="1"/>
        <pt x="343" y="21" on="0"/>
        <pt x="408" y="47" on="0"/>
        <pt x="459" y="92" on="0"/>
        <pt x="494" y="153" on="0"/>
      </contour>
    </TTGlyph>
    <TTGlyph name="backslash" xMin="67" yMin="-19" xMax="268" yMax="736">
      <contour>
        <pt x="97" y="736" on="1"/>
        <pt x="140" y="546" on="0"/>
        <pt x="225" y="171" on="0"/>
        <pt x="268" y="-19" on="1"/>
        <pt x="238" y="-19" on="1"/>
        <pt x="195" y="171" on="0"/>
        <pt x="110" y="546" on="0"/>
        <pt x="67" y="736" on="1"/>
      </contour>
    </TTGlyph>
    <TTGlyph name="bar" xMin="97" yMin="-232" xMax="255" yMax="700">
      <contour>
        <pt x="97" y="-232" on="1"/>
        <pt x="227" y="700" on="1"/>
        <pt x="255" y="700" on="1"/>
        <pt x="125" y="-232" on="1"/>
      </contour>
    </TTGlyph>
    <TTGlyph name="braceleft" xMin="90" yMin="-148" xMax="370" yMax="746">
      <contour>
        <pt x="90" y="281" on="1"/>
        <pt x="96" y="316" on="1"/>
        <pt x="120" y="317" on="0"/>
        <pt x="155" y="344" on="0"/>
        <pt x="178" y="384" on="0"/>
        <pt x="191" y="431" on="0"/>
        <pt x="194" y="451" on="1"/>
        <pt x="218" y="628" on="1"/>
        <pt x="224" y="674" on="0"/>
        <pt x="247" y="722" on="0"/>
        <pt x="276" y="743" on="0"/>
        <pt x="309" y="746" on="0"/>
        <pt x="327" y="746" on="1"/>
        <pt x="370" y="746" on="1"/>
        <pt x="366" y="719" on="1"/>
        <pt x="311" y="719" on="1"/>
        <pt x="280" y="719" on="0"/>
        <pt x="252" y="670" on="0"/>
        <pt x="244" y="608" on="1"/>
        <pt x="223" y="463" on="1"/>
        <pt x="217" y="419" on="0"/>
        <pt x="198" y="362" on="0"/>
        <pt x="175" y="326" on="0"/>
        <pt x="148" y="306" on="0"/>
        <pt x="134" y="299" on="1"/>
        <pt x="146" y="292" on="0"/>
        <pt x="166" y="271" on="0"/>
        <pt x="180" y="234" on="0"/>
        <pt x="183" y="178" on="0"/>
        <pt x="177" y="135" on="1"/>
        <pt x="157" y="-11" on="1"/>
        <pt x="149" y="-72" on="0"/>
        <pt x="162" y="-121" on="0"/>
        <pt x="193" y="-121" on="1"/>
        <pt x="248" y="-121" on="1"/>
        <pt x="244" y="-148" on="1"/>
        <pt x="201" y="-148" on="1"/>
        <pt x="181" y="-148" on="0"/>
        <pt x="148" y="-145" on="0"/>
        <pt x="127" y="-118" on="0"/>
        <pt x="122" y="-58" on="0"/>
        <pt x="130" y="-1" on="1"/>
        <pt x="150" y="146" on="1"/>
        <pt x="153" y="166" on="0"/>
        <pt x="153" y="213" on="0"/>
        <pt x="141" y="253" on="0"/>
        <pt x="114" y="280" on="0"/>
      </contour>
    </TTGlyph>
    <TTGlyph name="braceright" xMin="76" yMin="-148" xMax="356" yMax="746">
      <contour>
        <pt x="356" y="316" on="1"/>
        <pt x="350" y="281" on="1"/>
        <pt x="320" y="279" on="0"/>
        <pt x="283" y="241" on="0"/>
        <pt x="261" y="189" on="0"/>
        <pt x="251" y="135" on="0"/>
        <pt x="248" y="117" on="1"/>
        <pt x="228" y="-30" on="1"/>
        <pt x="222" y="-76" on="0"/>
        <pt x="199" y="-125" on="0"/>
        <pt x="170" y="-146" on="0"/>
        <pt x="137" y="-148" on="0"/>
        <pt x="119" y="-148" on="1"/>
        <pt x="76" y="-148" on="1"/>
        <pt x="80" y="-121" on="1"/>
        <pt x="135" y="-121" on="1"/>
        <pt x="166" y="-121" on="0"/>
        <pt x="194" y="-72" on="0"/>
        <pt x="202" y="-11" on="1"/>
        <pt x="227" y="165" on="1"/>
        <pt x="232" y="198" on="0"/>
        <pt x="252" y="244" on="0"/>
        <pt x="276" y="275" on="0"/>
        <pt x="302" y="293" on="0"/>
        <pt x="312" y="299" on="1"/>
        <pt x="300" y="306" on="0"/>
        <pt x="279" y="326" on="0"/>
        <pt x="266" y="362" on="0"/>
        <pt x="263" y="419" on="0"/>
        <pt x="269" y="463" on="1"/>
        <pt x="289" y="608" on="1"/>
        <pt x="297" y="670" on="0"/>
        <pt x="284" y="719" on="0"/>
        <pt x="253" y="719" on="1"/>
        <pt x="199" y="719" on="1"/>
        <pt x="202" y="746" on="1"/>
        <pt x="245" y="746" on="1"/>
        <pt x="263" y="746" on="0"/>
        <pt x="295" y="744" on="0"/>
        <pt x="318" y="723" on="0"/>
        <pt x="326" y="674" on="0"/>
        <pt x="320" y="628" on="1"/>
        <pt x="300" y="480" on="1"/>
        <pt x="297" y="462" on="0"/>
        <pt x="292" y="407" on="0"/>
        <pt x="299" y="356" on="0"/>
        <pt x="326" y="317" on="0"/>
      </contour>
    </TTGlyph>
    <TTGlyph name="bracketleft" xMin="20" yMin="-149" xMax="314" yMax="746">
      <contour>
        <pt x="20" y="-149" on="1"/>
        <pt x="145" y="746" on="1"/>
        <pt x="314" y="746" on="1"/>
        <pt x="310" y="719" on="1"/>
        <pt x="171" y="719" on="1"/>
        <pt x="53" y="-122" on="1"/>
        <pt x="193" y="-122" on="1"/>
        <pt x="189" y="-149" on="1"/>
      </contour>
    </TTGlyph>
    <TTGlyph name="bracketright" xMin="19" yMin="-149" xMax="313" yMax="746">
      <contour>
        <pt x="313" y="746" on="1"/>
        <pt x="188" y="-149" on="1"/>
        <pt x="19" y="-149" on="1"/>
        <pt x="23" y="-122" on="1"/>
        <pt x="162" y="-122" on="1"/>
        <pt x="280" y="719" on="1"/>
        <pt x="140" y="719" on="1"/>
        <pt x="144" y="746" on="1"/>
      </contour>
    </TTGlyph>
    <TTGlyph name="brokenbar" xMin="95" yMin="-233" xMax="254" yMax="700">
      <contour>
        <pt x="123" y="-233" on="1"/>
        <pt x="95" y="-233" on="1"/>
        <pt x="144" y="117" on="1"/>
        <pt x="172" y="117" on="1"/>
      </contour>
      <contour>
        <pt x="204" y="350" on="1"/>
        <pt x="176" y="350" on="1"/>
        <pt x="226" y="700" on="1"/>
        <pt x="254" y="700" on="1"/>
      </contour>
    </TTGlyph>
    <TTGlyph name="bullet" xMin="170" yMin="223" xMax="333" yMax="378">
      <contour>
        <pt x="172" y="300" on="1"/>
        <pt x="177" y="333" on="0"/>
        <pt x="228" y="378" on="0"/>
        <pt x="260" y="378" on="1"/>
        <pt x="293" y="378" on="0"/>
        <pt x="333" y="333" on="0"/>
        <pt x="328" y="300" on="1"/>
        <pt x="323" y="268" on="0"/>
        <pt x="272" y="223" on="0"/>
        <pt x="239" y="223" on="1"/>
        <pt x="223" y="223" on="0"/>
        <pt x="196" y="235" on="0"/>
        <pt x="178" y="256" on="0"/>
        <pt x="170" y="284" on="0"/>
      </contour>
    </TTGlyph>
    <TTGlyph name="c" xMin="56" yMin="-7" xMax="402" yMax="383">
      <contour>
        <pt x="360" y="36" on="1"/>
        <pt x="331" y="16" on="0"/>
        <pt x="265" y="-7" on="0"/>
        <pt x="230" y="-7" on="1"/>
        <pt x="189" y="-7" on="0"/>
        <pt x="123" y="24" on="0"/>
        <pt x="77" y="76" on="0"/>
        <pt x="56" y="147" on="0"/>
        <pt x="62" y="188" on="1"/>
        <pt x="68" y="228" on="0"/>
        <pt x="108" y="300" on="0"/>
        <pt x="168" y="352" on="0"/>
        <pt x="243" y="383" on="0"/>
        <pt x="284" y="383" on="1"/>
        <pt x="320" y="383" on="0"/>
        <pt x="380" y="360" on="0"/>
        <pt x="402" y="340" on="1"/>
        <pt x="389" y="247" on="1"/>
        <pt x="363" y="247" on="1"/>
        <pt x="374" y="324" on="1"/>
        <pt x="355" y="339" on="0"/>
        <pt x="308" y="356" on="0"/>
        <pt x="280" y="356" on="1"/>
        <pt x="245" y="356" on="0"/>
        <pt x="181" y="330" on="0"/>
        <pt x="129" y="284" on="0"/>
        <pt x="95" y="223" on="0"/>
        <pt x="90" y="188" on="1"/>
        <pt x="85" y="153" on="0"/>
        <pt x="102" y="92" on="0"/>
        <pt x="141" y="47" on="0"/>
        <pt x="198" y="21" on="0"/>
        <pt x="233" y="21" on="1"/>
        <pt x="264" y="21" on="0"/>
        <pt x="320" y="40" on="0"/>
        <pt x="344" y="57" on="1"/>
      </contour>
    </TTGlyph>
    <TTGlyph name="ccedilla" xMin="45" yMin="-229" xMax="391" yMax="383">
      <contour>
        <pt x="333" y="57" on="1"/>
        <pt x="347" y="36" on="1"/>
        <pt x="343" y="33" on="0"/>
        <pt x="306" y="16" on="0"/>
        <pt x="264" y="-1" on="0"/>
        <pt x="229" y="-13" on="0"/>
        <pt x="226" y="-10" on="1"/>
        <pt x="223" y="-33" on="0"/>
        <pt x="248" y="-53" on="0"/>
        <pt x="260" y="-61" on="1"/>
        <pt x="280" y="-76" on="0"/>
        <pt x="293" y="-114" on="0"/>
        <pt x="291" y="-130" on="1"/>
        <pt x="284" y="-178" on="0"/>
        <pt x="230" y="-225" on="0"/>
        <pt x="197" y="-227" on="1"/>
        <pt x="178" y="-229" on="0"/>
        <pt x="163" y="-224" on="1"/>
        <pt x="144" y="-218" on="0"/>
        <pt x="117" y="-190" on="0"/>
        <pt x="112" y="-167" on="1"/>
        <pt x="135" y="-159" on="1"/>
        <pt x="138" y="-179" on="0"/>
        <pt x="168" y="-205" on="0"/>
        <pt x="191" y="-205" on="1"/>
        <pt x="220" y="-205" on="0"/>
        <pt x="262" y="-165" on="0"/>
        <pt x="267" y="-136" on="1"/>
        <pt x="270" y="-110" on="0"/>
        <pt x="249" y="-81" on="0"/>
        <pt x="222" y="-60" on="0"/>
        <pt x="200" y="-39" on="0"/>
        <pt x="203" y="-20" on="1"/>
        <pt x="204" y="-5" on="1"/>
        <pt x="166" y="-3" on="0"/>
        <pt x="105" y="29" on="0"/>
        <pt x="64" y="81" on="0"/>
        <pt x="45" y="149" on="0"/>
        <pt x="51" y="188" on="1"/>
        <pt x="57" y="228" on="0"/>
        <pt x="97" y="300" on="0"/>
        <pt x="157" y="352" on="0"/>
        <pt x="232" y="383" on="0"/>
        <pt x="273" y="383" on="1"/>
        <pt x="308" y="383" on="0"/>
        <pt x="368" y="360" on="0"/>
        <pt x="391" y="340" on="1"/>
        <pt x="378" y="247" on="1"/>
        <pt x="352" y="247" on="1"/>
        <pt x="362" y="324" on="1"/>
        <pt x="343" y="339" on="0"/>
        <pt x="297" y="356" on="0"/>
        <pt x="269" y="356" on="1"/>
        <pt x="234" y="356" on="0"/>
        <pt x="169" y="330" on="0"/>
        <pt x="117" y="284" on="0"/>
        <pt x="83" y="223" on="0"/>
        <pt x="78" y="188" on="1"/>
        <pt x="73" y="153" on="0"/>
        <pt x="90" y="92" on="0"/>
        <pt x="129" y="47" on="0"/>
        <pt x="187" y="21" on="0"/>
        <pt x="222" y="21" on="1"/>
        <pt x="252" y="21" on="0"/>
        <pt x="308" y="40" on="0"/>
      </contour>
    </TTGlyph>
    <TTGlyph name="cedilla" xMin="130" yMin="-228" xMax="311" yMax="0">
      <contour>
        <pt x="223" y="0" on="1"/>
        <pt x="244" y="0" on="1"/>
        <pt x="243" y="-6" on="1"/>
        <pt x="241" y="-20" on="0"/>
        <pt x="247" y="-37" on="0"/>
        <pt x="258" y="-49" on="0"/>
        <pt x="271" y="-57" on="0"/>
        <pt x="277" y="-61" on="1"/>
        <pt x="297" y="-76" on="0"/>
        <pt x="311" y="-114" on="0"/>
        <pt x="308" y="-130" on="1"/>
        <pt x="301" y="-180" on="0"/>
        <pt x="244" y="-228" on="0"/>
        <pt x="207" y="-228" on="1"/>
        <pt x="179" y="-228" on="0"/>
        <pt x="135" y="-198" on="0"/>
        <pt x="130" y="-167" on="1"/>
        <pt x="135" y="-165" on="0"/>
        <pt x="146" y="-161" on="0"/>
        <pt x="151" y="-159" on="1"/>
        <pt x="154" y="-179" on="0"/>
        <pt x="184" y="-205" on="0"/>
        <pt x="208" y="-205" on="1"/>
        <pt x="237" y="-205" on="0"/>
        <pt x="280" y="-165" on="0"/>
        <pt x="284" y="-136" on="1"/>
        <pt x="288" y="-110" on="0"/>
        <pt x="267" y="-81" on="0"/>
        <pt x="240" y="-60" on="0"/>
        <pt x="217" y="-39" on="0"/>
        <pt x="220" y="-20" on="1"/>
      </contour>
    </TTGlyph>
    <TTGlyph name="cent" xMin="66" yMin="-68" xMax="412" yMax="438">
      <contour>
        <pt x="354" y="57" on="1"/>
        <pt x="369" y="36" on="1"/>
        <pt x="341" y="16" on="0"/>
        <pt x="279" y="-5" on="0"/>
        <pt x="244" y="-6" on="1"/>
        <pt x="236" y="-68" on="1"/>
        <pt x="208" y="-68" on="1"/>
        <pt x="216" y="-4" on="1"/>
        <pt x="180" y="0" on="0"/>
        <pt x="122" y="33" on="0"/>
        <pt x="83" y="84" on="0"/>
        <pt x="66" y="150" on="0"/>
        <pt x="71" y="188" on="1"/>
        <pt x="77" y="225" on="0"/>
        <pt x="113" y="292" on="0"/>
        <pt x="166" y="344" on="0"/>
        <pt x="234" y="377" on="0"/>
        <pt x="271" y="381" on="1"/>
        <pt x="279" y="438" on="1"/>
        <pt x="307" y="438" on="1"/>
        <pt x="299" y="383" on="1"/>
        <pt x="333" y="382" on="0"/>
        <pt x="391" y="360" on="0"/>
        <pt x="412" y="340" on="1"/>
        <pt x="411" y="339" on="0"/>
        <pt x="411" y="339" on="1"/>
        <pt x="411" y="333" on="1"/>
        <pt x="398" y="247" on="1"/>
        <pt x="372" y="247" on="1"/>
        <pt x="384" y="324" on="1"/>
        <pt x="366" y="338" on="0"/>
        <pt x="321" y="355" on="0"/>
        <pt x="295" y="355" on="1"/>
        <pt x="248" y="21" on="1"/>
        <pt x="277" y="22" on="0"/>
        <pt x="331" y="41" on="0"/>
      </contour>
      <contour>
        <pt x="99" y="188" on="1"/>
        <pt x="94" y="156" on="0"/>
        <pt x="109" y="100" on="0"/>
        <pt x="141" y="56" on="0"/>
        <pt x="190" y="27" on="0"/>
        <pt x="220" y="23" on="1"/>
        <pt x="267" y="352" on="1"/>
        <pt x="235" y="349" on="0"/>
        <pt x="178" y="320" on="0"/>
        <pt x="133" y="277" on="0"/>
        <pt x="103" y="220" on="0"/>
      </contour>
    </TTGlyph>
    <TTGlyph name="colon" xMin="39" yMin="0" xMax="130" yMax="303">
      <contour>
        <pt x="76" y="276" on="1"/>
        <pt x="78" y="287" on="0"/>
        <pt x="95" y="303" on="0"/>
        <pt x="106" y="303" on="1"/>
        <pt x="117" y="303" on="0"/>
        <pt x="130" y="287" on="0"/>
        <pt x="128" y="276" on="1"/>
        <pt x="127" y="265" on="0"/>
        <pt x="109" y="250" on="0"/>
        <pt x="98" y="250" on="1"/>
        <pt x="87" y="250" on="0"/>
        <pt x="74" y="265" on="0"/>
      </contour>
      <contour>
        <pt x="41" y="26" on="1"/>
        <pt x="42" y="37" on="0"/>
        <pt x="60" y="53" on="0"/>
        <pt x="71" y="53" on="1"/>
        <pt x="82" y="53" on="0"/>
        <pt x="95" y="37" on="0"/>
        <pt x="93" y="26" on="1"/>
        <pt x="91" y="15" on="0"/>
        <pt x="74" y="0" on="0"/>
        <pt x="63" y="0" on="1"/>
        <pt x="52" y="0" on="0"/>
        <pt x="39" y="15" on="0"/>
      </contour>
    </TTGlyph>
    <TTGlyph name="comma" xMin="7" yMin="-120" xMax="148" yMax="86">
      <contour>
        <pt x="148" y="86" on="1"/>
        <pt x="119" y="34" on="0"/>
        <pt x="62" y="-68" on="0"/>
        <pt x="33" y="-120" on="1"/>
        <pt x="7" y="-120" on="1"/>
        <pt x="34" y="-68" on="0"/>
        <pt x="86" y="34" on="0"/>
        <pt x="113" y="86" on="1"/>
      </contour>
    </TTGlyph>
    <TTGlyph name="copyright" xMin="171" yMin="117" xMax="700" yMax="628">
      <contour>
        <pt x="401" y="135" on="1"/>
        <pt x="450" y="135" on="0"/>
        <pt x="543" y="171" on="0"/>
        <pt x="616" y="234" on="0"/>
        <pt x="666" y="321" on="0"/>
        <pt x="673" y="371" on="1"/>
        <pt x="680" y="423" on="0"/>
        <pt x="655" y="510" on="0"/>
        <pt x="599" y="574" on="0"/>
        <pt x="517" y="610" on="0"/>
        <pt x="468" y="610" on="1"/>
        <pt x="419" y="610" on="0"/>
        <pt x="328" y="574" on="0"/>
        <pt x="255" y="510" on="0"/>
        <pt x="205" y="423" on="0"/>
        <pt x="198" y="371" on="1"/>
        <pt x="191" y="321" on="0"/>
        <pt x="216" y="234" on="0"/>
        <pt x="271" y="171" on="0"/>
        <pt x="352" y="135" on="0"/>
      </contour>
      <contour>
        <pt x="400" y="117" on="1"/>
        <pt x="346" y="117" on="0"/>
        <pt x="258" y="155" on="0"/>
        <pt x="198" y="223" on="0"/>
        <pt x="171" y="317" on="0"/>
        <pt x="179" y="372" on="1"/>
        <pt x="187" y="427" on="0"/>
        <pt x="240" y="521" on="0"/>
        <pt x="318" y="590" on="0"/>
        <pt x="417" y="628" on="0"/>
        <pt x="471" y="628" on="1"/>
        <pt x="525" y="628" on="0"/>
        <pt x="613" y="590" on="0"/>
        <pt x="673" y="521" on="0"/>
        <pt x="700" y="427" on="0"/>
        <pt x="692" y="372" on="1"/>
        <pt x="684" y="317" on="0"/>
        <pt x="632" y="223" on="0"/>
        <pt x="553" y="155" on="0"/>
        <pt x="454" y="117" on="0"/>
      </contour>
      <contour>
        <pt x="524" y="464" on="1"/>
        <pt x="531" y="507" on="1"/>
        <pt x="501" y="525" on="0"/>
        <pt x="463" y="525" on="1"/>
        <pt x="432" y="525" on="0"/>
        <pt x="375" y="501" on="0"/>
        <pt x="328" y="460" on="0"/>
        <pt x="297" y="405" on="0"/>
        <pt x="293" y="374" on="1"/>
        <pt x="288" y="343" on="0"/>
        <pt x="304" y="289" on="0"/>
        <pt x="338" y="249" on="0"/>
        <pt x="389" y="226" on="0"/>
        <pt x="420" y="226" on="1"/>
        <pt x="461" y="226" on="0"/>
        <pt x="498" y="246" on="1"/>
        <pt x="505" y="236" on="1"/>
        <pt x="485" y="225" on="0"/>
        <pt x="442" y="213" on="0"/>
        <pt x="419" y="213" on="1"/>
        <pt x="386" y="213" on="0"/>
        <pt x="330" y="239" on="0"/>
        <pt x="293" y="283" on="0"/>
        <pt x="275" y="342" on="0"/>
        <pt x="280" y="375" on="1"/>
        <pt x="285" y="409" on="0"/>
        <pt x="319" y="468" on="0"/>
        <pt x="368" y="512" on="0"/>
        <pt x="431" y="537" on="0"/>
        <pt x="464" y="537" on="1"/>
        <pt x="509" y="537" on="0"/>
        <pt x="544" y="515" on="1"/>
        <pt x="537" y="464" on="1"/>
      </contour>
    </TTGlyph>
    <TTGlyph name="currency" xMin="107" yMin="214" xMax="427" yMax="501">
      <contour>
        <pt x="157" y="361" on="1"/>
        <pt x="154" y="338" on="0"/>
        <pt x="166" y="298" on="0"/>
        <pt x="192" y="268" on="0"/>
        <pt x="229" y="250" on="0"/>
        <pt x="252" y="250" on="1"/>
        <pt x="275" y="250" on="0"/>
        <pt x="317" y="268" on="0"/>
        <pt x="351" y="298" on="0"/>
        <pt x="374" y="338" on="0"/>
        <pt x="377" y="361" on="1"/>
        <pt x="380" y="384" on="0"/>
        <pt x="369" y="424" on="0"/>
        <pt x="343" y="454" on="0"/>
        <pt x="305" y="472" on="0"/>
        <pt x="283" y="472" on="1"/>
        <pt x="260" y="472" on="0"/>
        <pt x="218" y="454" on="0"/>
        <pt x="183" y="424" on="0"/>
        <pt x="160" y="384" on="0"/>
      </contour>
      <contour>
        <pt x="129" y="361" on="1"/>
        <pt x="136" y="409" on="0"/>
        <pt x="172" y="446" on="1"/>
        <pt x="164" y="455" on="0"/>
        <pt x="149" y="472" on="0"/>
        <pt x="141" y="481" on="1"/>
        <pt x="163" y="501" on="1"/>
        <pt x="194" y="466" on="1"/>
        <pt x="214" y="481" on="0"/>
        <pt x="261" y="499" on="0"/>
        <pt x="286" y="499" on="1"/>
        <pt x="312" y="499" on="0"/>
        <pt x="354" y="481" on="0"/>
        <pt x="370" y="465" on="1"/>
        <pt x="410" y="500" on="1"/>
        <pt x="427" y="481" on="1"/>
        <pt x="388" y="446" on="1"/>
        <pt x="399" y="429" on="0"/>
        <pt x="409" y="385" on="0"/>
        <pt x="405" y="361" on="1"/>
        <pt x="402" y="335" on="0"/>
        <pt x="377" y="291" on="0"/>
        <pt x="360" y="273" on="1"/>
        <pt x="393" y="235" on="1"/>
        <pt x="370" y="215" on="1"/>
        <pt x="362" y="225" on="0"/>
        <pt x="345" y="243" on="0"/>
        <pt x="337" y="253" on="1"/>
        <pt x="296" y="223" on="0"/>
        <pt x="248" y="223" on="1"/>
        <pt x="224" y="223" on="0"/>
        <pt x="182" y="238" on="0"/>
        <pt x="166" y="252" on="1"/>
        <pt x="124" y="214" on="1"/>
        <pt x="107" y="234" on="1"/>
        <pt x="150" y="272" on="1"/>
        <pt x="123" y="308" on="0"/>
      </contour>
    </TTGlyph>
    <TTGlyph name="d" xMin="56" yMin="-7" xMax="532" yMax="750">
      <contour>
        <pt x="408" y="47" on="1"/>
        <pt x="410" y="61" on="0"/>
        <pt x="414" y="88" on="0"/>
        <pt x="416" y="102" on="1"/>
        <pt x="404" y="80" on="0"/>
        <pt x="366" y="40" on="0"/>
        <pt x="318" y="10" on="0"/>
        <pt x="261" y="-7" on="0"/>
        <pt x="230" y="-7" on="1"/>
        <pt x="189" y="-7" on="0"/>
        <pt x="122" y="24" on="0"/>
        <pt x="77" y="76" on="0"/>
        <pt x="56" y="147" on="0"/>
        <pt x="62" y="188" on="1"/>
        <pt x="68" y="228" on="0"/>
        <pt x="108" y="300" on="0"/>
        <pt x="168" y="352" on="0"/>
        <pt x="244" y="383" on="0"/>
        <pt x="285" y="383" on="1"/>
        <pt x="315" y="383" on="0"/>
        <pt x="367" y="366" on="0"/>
        <pt x="407" y="336" on="0"/>
        <pt x="434" y="296" on="0"/>
        <pt x="440" y="274" on="1"/>
        <pt x="443" y="300" on="0"/>
        <pt x="449" y="350" on="0"/>
        <pt x="452" y="376" on="1"/>
        <pt x="501" y="723" on="1"/>
        <pt x="429" y="723" on="1"/>
        <pt x="433" y="750" on="1"/>
        <pt x="532" y="750" on="1"/>
        <pt x="430" y="27" on="1"/>
        <pt x="504" y="27" on="1"/>
        <pt x="500" y="0" on="1"/>
        <pt x="401" y="0" on="1"/>
      </contour>
      <contour>
        <pt x="90" y="188" on="1"/>
        <pt x="85" y="153" on="0"/>
        <pt x="102" y="92" on="0"/>
        <pt x="141" y="47" on="0"/>
        <pt x="198" y="21" on="0"/>
        <pt x="233" y="21" on="1"/>
        <pt x="268" y="21" on="0"/>
        <pt x="334" y="47" on="0"/>
        <pt x="386" y="92" on="0"/>
        <pt x="421" y="153" on="0"/>
        <pt x="426" y="188" on="1"/>
        <pt x="431" y="223" on="0"/>
        <pt x="413" y="284" on="0"/>
        <pt x="374" y="330" on="0"/>
        <pt x="316" y="356" on="0"/>
        <pt x="281" y="356" on="1"/>
        <pt x="246" y="356" on="0"/>
        <pt x="181" y="330" on="0"/>
        <pt x="129" y="284" on="0"/>
        <pt x="95" y="223" on="0"/>
      </contour>
    </TTGlyph>
    <TTGlyph name="degree" xMin="62" yMin="479" xMax="234" yMax="641">
      <contour>
        <pt x="140" y="501" on="1"/>
        <pt x="165" y="501" on="0"/>
        <pt x="204" y="534" on="0"/>
        <pt x="208" y="560" on="1"/>
        <pt x="212" y="585" on="0"/>
        <pt x="182" y="619" on="0"/>
        <pt x="157" y="619" on="1"/>
        <pt x="132" y="619" on="0"/>
        <pt x="92" y="585" on="0"/>
        <pt x="89" y="560" on="1"/>
        <pt x="85" y="534" on="0"/>
        <pt x="115" y="501" on="0"/>
      </contour>
      <contour>
        <pt x="67" y="559" on="1"/>
        <pt x="72" y="594" on="0"/>
        <pt x="125" y="641" on="0"/>
        <pt x="160" y="641" on="1"/>
        <pt x="194" y="641" on="0"/>
        <pt x="234" y="594" on="0"/>
        <pt x="230" y="559" on="1"/>
        <pt x="225" y="525" on="0"/>
        <pt x="172" y="479" on="0"/>
        <pt x="138" y="479" on="1"/>
        <pt x="103" y="479" on="0"/>
        <pt x="62" y="525" on="0"/>
      </contour>
    </TTGlyph>
    <TTGlyph name="dieresis" xMin="77" yMin="478" xMax="298" yMax="531">
      <contour>
        <pt x="244" y="504" on="1"/>
        <pt x="246" y="515" on="0"/>
        <pt x="263" y="531" on="0"/>
        <pt x="274" y="531" on="1"/>
        <pt x="285" y="531" on="0"/>
        <pt x="298" y="515" on="0"/>
        <pt x="296" y="504" on="1"/>
        <pt x="294" y="493" on="0"/>
        <pt x="278" y="478" on="0"/>
        <pt x="267" y="478" on="1"/>
        <pt x="256" y="478" on="0"/>
        <pt x="242" y="493" on="0"/>
      </contour>
      <contour>
        <pt x="78" y="504" on="1"/>
        <pt x="80" y="515" on="0"/>
        <pt x="98" y="531" on="0"/>
        <pt x="109" y="531" on="1"/>
        <pt x="119" y="531" on="0"/>
        <pt x="133" y="515" on="0"/>
        <pt x="131" y="504" on="1"/>
        <pt x="129" y="493" on="0"/>
        <pt x="113" y="478" on="0"/>
        <pt x="102" y="478" on="1"/>
        <pt x="91" y="478" on="0"/>
        <pt x="77" y="493" on="0"/>
      </contour>
    </TTGlyph>
    <TTGlyph name="divide" xMin="68" yMin="71" xMax="431" yMax="374">
      <contour>
        <pt x="428" y="209" on="1"/>
        <pt x="68" y="209" on="1"/>
        <pt x="71" y="237" on="1"/>
        <pt x="431" y="237" on="1"/>
      </contour>
      <contour>
        <pt x="242" y="347" on="1"/>
        <pt x="244" y="358" on="0"/>
        <pt x="261" y="374" on="0"/>
        <pt x="272" y="374" on="1"/>
        <pt x="283" y="374" on="0"/>
        <pt x="296" y="358" on="0"/>
        <pt x="294" y="347" on="1"/>
        <pt x="293" y="336" on="0"/>
        <pt x="275" y="321" on="0"/>
        <pt x="264" y="321" on="1"/>
        <pt x="253" y="321" on="0"/>
        <pt x="240" y="336" on="0"/>
      </contour>
      <contour>
        <pt x="207" y="97" on="1"/>
        <pt x="208" y="108" on="0"/>
        <pt x="226" y="124" on="0"/>
        <pt x="237" y="124" on="1"/>
        <pt x="248" y="124" on="0"/>
        <pt x="261" y="108" on="0"/>
        <pt x="259" y="97" on="1"/>
        <pt x="257" y="86" on="0"/>
        <pt x="240" y="71" on="0"/>
        <pt x="229" y="71" on="1"/>
        <pt x="218" y="71" on="0"/>
        <pt x="205" y="86" on="0"/>
      </contour>
    </TTGlyph>
    <TTGlyph name="dollar" xMin="2" yMin="-68" xMax="436" yMax="764">
      <contour>
        <pt x="394" y="546" on="1"/>
        <pt x="407" y="643" on="1"/>
        <pt x="391" y="656" on="0"/>
        <pt x="337" y="675" on="0"/>
        <pt x="298" y="677" on="1"/>
        <pt x="257" y="384" on="1"/>
        <pt x="291" y="373" on="0"/>
        <pt x="358" y="348" on="0"/>
        <pt x="409" y="306" on="0"/>
        <pt x="435" y="238" on="0"/>
        <pt x="429" y="186" on="1"/>
        <pt x="424" y="143" on="0"/>
        <pt x="383" y="73" on="0"/>
        <pt x="321" y="23" on="0"/>
        <pt x="243" y="-6" on="0"/>
        <pt x="201" y="-8" on="1"/>
        <pt x="193" y="-68" on="1"/>
        <pt x="166" y="-68" on="1"/>
        <pt x="174" y="-7" on="1"/>
        <pt x="138" y="-6" on="0"/>
        <pt x="80" y="11" on="0"/>
        <pt x="38" y="34" on="0"/>
        <pt x="9" y="60" on="0"/>
        <pt x="2" y="70" on="1"/>
        <pt x="16" y="173" on="1"/>
        <pt x="43" y="173" on="1"/>
        <pt x="30" y="83" on="1"/>
        <pt x="53" y="57" on="0"/>
        <pt x="124" y="22" on="0"/>
        <pt x="178" y="20" on="1"/>
        <pt x="226" y="362" on="1"/>
        <pt x="197" y="371" on="0"/>
        <pt x="143" y="393" on="0"/>
        <pt x="103" y="427" on="0"/>
        <pt x="82" y="478" on="0"/>
        <pt x="86" y="517" on="1"/>
        <pt x="89" y="549" on="0"/>
        <pt x="115" y="613" on="0"/>
        <pt x="162" y="666" on="0"/>
        <pt x="230" y="701" on="0"/>
        <pt x="275" y="703" on="1"/>
        <pt x="283" y="764" on="1"/>
        <pt x="310" y="764" on="1"/>
        <pt x="302" y="704" on="1"/>
        <pt x="334" y="702" on="0"/>
        <pt x="408" y="683" on="0"/>
        <pt x="436" y="657" on="1"/>
        <pt x="421" y="546" on="1"/>
      </contour>
      <contour>
        <pt x="400" y="183" on="1"/>
        <pt x="406" y="227" on="0"/>
        <pt x="385" y="285" on="0"/>
        <pt x="342" y="322" on="0"/>
        <pt x="284" y="345" on="0"/>
        <pt x="253" y="354" on="1"/>
        <pt x="205" y="20" on="1"/>
        <pt x="239" y="22" on="0"/>
        <pt x="305" y="46" on="0"/>
        <pt x="359" y="88" on="0"/>
        <pt x="395" y="147" on="0"/>
      </contour>
      <contour>
        <pt x="115" y="527" on="1"/>
        <pt x="110" y="495" on="0"/>
        <pt x="126" y="451" on="0"/>
        <pt x="159" y="420" on="0"/>
        <pt x="204" y="400" on="0"/>
        <pt x="230" y="392" on="1"/>
        <pt x="271" y="675" on="1"/>
        <pt x="237" y="673" on="0"/>
        <pt x="182" y="647" on="0"/>
        <pt x="143" y="607" on="0"/>
        <pt x="119" y="555" on="0"/>
      </contour>
    </TTGlyph>
    <TTGlyph name="e" xMin="56" yMin="-7" xMax="436" yMax="383">
      <contour>
        <pt x="280" y="356" on="1"/>
        <pt x="239" y="356" on="0"/>
        <pt x="166" y="320" on="0"/>
        <pt x="113" y="262" on="0"/>
        <pt x="85" y="186" on="0"/>
        <pt x="89" y="147" on="1"/>
        <pt x="168" y="177" on="0"/>
        <pt x="325" y="236" on="0"/>
        <pt x="403" y="266" on="1"/>
        <pt x="389" y="306" on="0"/>
        <pt x="325" y="356" on="0"/>
      </contour>
      <contour>
        <pt x="436" y="251" on="1"/>
        <pt x="350" y="218" on="0"/>
        <pt x="180" y="154" on="0"/>
        <pt x="94" y="121" on="1"/>
        <pt x="107" y="76" on="0"/>
        <pt x="180" y="21" on="0"/>
        <pt x="233" y="21" on="1"/>
        <pt x="267" y="21" on="0"/>
        <pt x="329" y="45" on="0"/>
        <pt x="354" y="66" on="1"/>
        <pt x="358" y="61" on="0"/>
        <pt x="365" y="51" on="0"/>
        <pt x="369" y="46" on="1"/>
        <pt x="339" y="21" on="0"/>
        <pt x="269" y="-7" on="0"/>
        <pt x="230" y="-7" on="1"/>
        <pt x="189" y="-7" on="0"/>
        <pt x="123" y="24" on="0"/>
        <pt x="77" y="76" on="0"/>
        <pt x="56" y="147" on="0"/>
        <pt x="62" y="188" on="1"/>
        <pt x="68" y="228" on="0"/>
        <pt x="108" y="300" on="0"/>
        <pt x="168" y="352" on="0"/>
        <pt x="243" y="383" on="0"/>
        <pt x="284" y="383" on="1"/>
        <pt x="344" y="383" on="0"/>
        <pt x="425" y="309" on="0"/>
      </contour>
    </TTGlyph>
    <TTGlyph name="eacute" xMin="56" yMin="-7" xMax="436" yMax="612">
      <component glyphName="e" x="0" y="0" flags="0x204"/>
      <component glyphName="acute" x="182" y="0" flags="0x4"/>
    </TTGlyph>
    <TTGlyph name="ecircumflex" xMin="56" yMin="-7" xMax="436" yMax="660">
      <component glyphName="e" x="0" y="0" flags="0x204"/>
      <component glyphName="asciicircum" x="83" y="0" flags="0x4"/>
    </TTGlyph>
    <TTGlyph name="edieresis" xMin="56" yMin="-7" xMax="436" yMax="531">
      <component glyphName="e" x="0" y="0" flags="0x204"/>
      <component glyphName="dieresis" x="60" y="0" flags="0x4"/>
    </TTGlyph>
    <TTGlyph name="egrave" xMin="56" yMin="-7" xMax="436" yMax="612">
      <component glyphName="e" x="0" y="0" flags="0x204"/>
      <component glyphName="grave" x="178" y="0" flags="0x4"/>
    </TTGlyph>
    <TTGlyph name="eight" xMin="25" yMin="-8" xMax="449" yMax="658">
      <contour>
        <pt x="159" y="508" on="1"/>
        <pt x="156" y="485" on="0"/>
        <pt x="169" y="446" on="0"/>
        <pt x="197" y="418" on="0"/>
        <pt x="239" y="402" on="0"/>
        <pt x="264" y="402" on="1"/>
        <pt x="315" y="402" on="0"/>
        <pt x="390" y="462" on="0"/>
        <pt x="397" y="508" on="1"/>
        <pt x="400" y="533" on="0"/>
        <pt x="388" y="577" on="0"/>
        <pt x="361" y="611" on="0"/>
        <pt x="321" y="631" on="0"/>
        <pt x="296" y="631" on="1"/>
        <pt x="271" y="631" on="0"/>
        <pt x="224" y="611" on="0"/>
        <pt x="187" y="577" on="0"/>
        <pt x="162" y="533" on="0"/>
      </contour>
      <contour>
        <pt x="59" y="198" on="1"/>
        <pt x="54" y="162" on="0"/>
        <pt x="73" y="97" on="0"/>
        <pt x="113" y="48" on="0"/>
        <pt x="173" y="19" on="0"/>
        <pt x="210" y="19" on="1"/>
        <pt x="247" y="19" on="0"/>
        <pt x="317" y="48" on="0"/>
        <pt x="373" y="97" on="0"/>
        <pt x="411" y="162" on="0"/>
        <pt x="416" y="198" on="1"/>
        <pt x="421" y="234" on="0"/>
        <pt x="402" y="298" on="0"/>
        <pt x="359" y="346" on="0"/>
        <pt x="297" y="373" on="0"/>
        <pt x="260" y="373" on="1"/>
        <pt x="223" y="373" on="0"/>
        <pt x="155" y="346" on="0"/>
        <pt x="101" y="298" on="0"/>
        <pt x="65" y="234" on="0"/>
      </contour>
      <contour>
        <pt x="31" y="198" on="1"/>
        <pt x="36" y="232" on="0"/>
        <pt x="66" y="293" on="0"/>
        <pt x="110" y="343" on="0"/>
        <pt x="167" y="380" on="0"/>
        <pt x="199" y="389" on="1"/>
        <pt x="164" y="404" on="0"/>
        <pt x="125" y="471" on="0"/>
        <pt x="132" y="514" on="1"/>
        <pt x="136" y="544" on="0"/>
        <pt x="166" y="596" on="0"/>
        <pt x="211" y="635" on="0"/>
        <pt x="268" y="658" on="0"/>
        <pt x="298" y="658" on="1"/>
        <pt x="329" y="658" on="0"/>
        <pt x="379" y="635" on="0"/>
        <pt x="414" y="595" on="0"/>
        <pt x="429" y="541" on="0"/>
        <pt x="425" y="511" on="1"/>
        <pt x="419" y="469" on="0"/>
        <pt x="364" y="405" on="0"/>
        <pt x="325" y="389" on="1"/>
        <pt x="355" y="380" on="0"/>
        <pt x="404" y="344" on="0"/>
        <pt x="436" y="294" on="0"/>
        <pt x="449" y="232" on="0"/>
        <pt x="444" y="198" on="1"/>
        <pt x="438" y="155" on="0"/>
        <pt x="395" y="80" on="0"/>
        <pt x="330" y="24" on="0"/>
        <pt x="250" y="-8" on="0"/>
        <pt x="208" y="-8" on="1"/>
        <pt x="166" y="-8" on="0"/>
        <pt x="95" y="24" on="0"/>
        <pt x="47" y="80" on="0"/>
        <pt x="25" y="155" on="0"/>
      </contour>
    </TTGlyph>
    <TTGlyph name="emdash" xMin="99" yMin="178" xMax="604" yMax="205">
      <contour>
        <pt x="99" y="178" on="1"/>
        <pt x="102" y="205" on="1"/>
        <pt x="604" y="205" on="1"/>
        <pt x="601" y="178" on="1"/>
      </contour>
    </TTGlyph>
    <TTGlyph name="endash" xMin="100" yMin="178" xMax="404" yMax="205">
      <contour>
        <pt x="100" y="178" on="1"/>
        <pt x="103" y="205" on="1"/>
        <pt x="404" y="205" on="1"/>
        <pt x="401" y="178" on="1"/>
      </contour>
    </TTGlyph>
    <TTGlyph name="equal" xMin="84" yMin="142" xMax="621" yMax="364">
      <contour>
        <pt x="594" y="170" on="1"/>
        <pt x="590" y="142" on="1"/>
        <pt x="84" y="142" on="1"/>
        <pt x="88" y="170" on="1"/>
      </contour>
      <contour>
        <pt x="621" y="364" on="1"/>
        <pt x="617" y="336" on="1"/>
        <pt x="111" y="336" on="1"/>
        <pt x="115" y="364" on="1"/>
      </contour>
    </TTGlyph>
    <TTGlyph name="eth" xMin="57" yMin="-6" xMax="461" yMax="728">
      <contour>
        <pt x="90" y="188" on="1"/>
        <pt x="85" y="153" on="0"/>
        <pt x="102" y="92" on="0"/>
        <pt x="141" y="47" on="0"/>
        <pt x="199" y="21" on="0"/>
        <pt x="234" y="21" on="1"/>
        <pt x="269" y="21" on="0"/>
        <pt x="334" y="48" on="0"/>
        <pt x="386" y="93" on="0"/>
        <pt x="421" y="154" on="0"/>
        <pt x="426" y="189" on="1"/>
        <pt x="430" y="224" on="0"/>
        <pt x="412" y="286" on="0"/>
        <pt x="373" y="331" on="0"/>
        <pt x="315" y="356" on="0"/>
        <pt x="280" y="356" on="1"/>
        <pt x="245" y="356" on="0"/>
        <pt x="180" y="330" on="0"/>
        <pt x="129" y="284" on="0"/>
        <pt x="95" y="223" on="0"/>
      </contour>
      <contour>
        <pt x="203" y="544" on="1"/>
        <pt x="223" y="563" on="0"/>
        <pt x="265" y="602" on="0"/>
        <pt x="286" y="621" on="1"/>
        <pt x="247" y="671" on="0"/>
        <pt x="205" y="710" on="1"/>
        <pt x="210" y="715" on="0"/>
        <pt x="219" y="723" on="0"/>
        <pt x="224" y="728" on="1"/>
        <pt x="246" y="710" on="0"/>
        <pt x="287" y="666" on="0"/>
        <pt x="307" y="641" on="1"/>
        <pt x="326" y="659" on="0"/>
        <pt x="363" y="694" on="0"/>
        <pt x="382" y="712" on="1"/>
        <pt x="386" y="708" on="0"/>
        <pt x="393" y="700" on="0"/>
        <pt x="398" y="696" on="1"/>
        <pt x="378" y="678" on="0"/>
        <pt x="339" y="641" on="0"/>
        <pt x="320" y="622" on="1"/>
        <pt x="353" y="575" on="0"/>
        <pt x="408" y="468" on="0"/>
        <pt x="445" y="356" on="0"/>
        <pt x="461" y="243" on="0"/>
        <pt x="454" y="190" on="1"/>
        <pt x="448" y="149" on="0"/>
        <pt x="408" y="78" on="0"/>
        <pt x="348" y="25" on="0"/>
        <pt x="272" y="-6" on="0"/>
        <pt x="232" y="-6" on="1"/>
        <pt x="191" y="-6" on="0"/>
        <pt x="124" y="23" on="0"/>
        <pt x="78" y="76" on="0"/>
        <pt x="57" y="146" on="0"/>
        <pt x="62" y="187" on="1"/>
        <pt x="67" y="227" on="0"/>
        <pt x="107" y="299" on="0"/>
        <pt x="167" y="352" on="0"/>
        <pt x="242" y="384" on="0"/>
        <pt x="283" y="384" on="1"/>
        <pt x="328" y="384" on="0"/>
        <pt x="397" y="344" on="0"/>
        <pt x="417" y="312" on="1"/>
        <pt x="411" y="365" on="0"/>
        <pt x="358" y="517" on="0"/>
        <pt x="298" y="602" on="1"/>
        <pt x="278" y="583" on="0"/>
        <pt x="238" y="546" on="0"/>
        <pt x="218" y="527" on="1"/>
        <pt x="214" y="532" on="0"/>
        <pt x="207" y="539" on="0"/>
      </contour>
    </TTGlyph>
    <TTGlyph name="exclam" xMin="26" yMin="29" xMax="164" yMax="750">
      <contour>
        <pt x="49" y="29" on="1"/>
        <pt x="39" y="29" on="0"/>
        <pt x="26" y="44" on="0"/>
        <pt x="27" y="55" on="1"/>
        <pt x="28" y="67" on="0"/>
        <pt x="47" y="82" on="0"/>
        <pt x="56" y="82" on="1"/>
        <pt x="67" y="82" on="0"/>
        <pt x="80" y="67" on="0"/>
        <pt x="79" y="55" on="1"/>
        <pt x="77" y="44" on="0"/>
        <pt x="59" y="29" on="0"/>
      </contour>
      <contour>
        <pt x="136" y="750" on="1"/>
        <pt x="164" y="750" on="1"/>
        <pt x="82" y="166" on="1"/>
        <pt x="54" y="166" on="1"/>
      </contour>
    </TTGlyph>
    <TTGlyph name="exclamdown" xMin="89" yMin="-210" xMax="227" yMax="511">
      <component glyphName="exclam" x="253" y="540" scale="-0.999938964844" flags="0x0"/>
    </TTGlyph>
    <TTGlyph name="f" xMin="35" yMin="0" xMax="397" yMax="750">
      <contour>
        <pt x="38" y="27" on="1"/>
        <pt x="99" y="27" on="1"/>
        <pt x="144" y="348" on="1"/>
        <pt x="83" y="348" on="1"/>
        <pt x="87" y="375" on="1"/>
        <pt x="148" y="375" on="1"/>
        <pt x="168" y="518" on="1"/>
        <pt x="176" y="573" on="0"/>
        <pt x="219" y="659" on="0"/>
        <pt x="280" y="717" on="0"/>
        <pt x="356" y="748" on="0"/>
        <pt x="397" y="750" on="1"/>
        <pt x="393" y="723" on="1"/>
        <pt x="359" y="723" on="0"/>
        <pt x="294" y="694" on="0"/>
        <pt x="240" y="642" on="0"/>
        <pt x="203" y="567" on="0"/>
        <pt x="196" y="520" on="1"/>
        <pt x="176" y="375" on="1"/>
        <pt x="303" y="375" on="1"/>
        <pt x="299" y="348" on="1"/>
        <pt x="172" y="348" on="1"/>
        <pt x="127" y="27" on="1"/>
        <pt x="222" y="27" on="1"/>
        <pt x="219" y="0" on="1"/>
        <pt x="35" y="0" on="1"/>
      </contour>
    </TTGlyph>
    <TTGlyph name="five" xMin="74" yMin="-8" xMax="476" yMax="650">
      <contour>
        <pt x="476" y="650" on="1"/>
        <pt x="463" y="559" on="1"/>
        <pt x="436" y="559" on="1"/>
        <pt x="445" y="623" on="1"/>
        <pt x="213" y="623" on="1"/>
        <pt x="179" y="382" on="1"/>
        <pt x="200" y="390" on="0"/>
        <pt x="243" y="401" on="0"/>
        <pt x="265" y="401" on="1"/>
        <pt x="308" y="401" on="0"/>
        <pt x="379" y="369" on="0"/>
        <pt x="428" y="314" on="0"/>
        <pt x="451" y="240" on="0"/>
        <pt x="445" y="198" on="1"/>
        <pt x="439" y="155" on="0"/>
        <pt x="395" y="80" on="0"/>
        <pt x="331" y="24" on="0"/>
        <pt x="250" y="-8" on="0"/>
        <pt x="208" y="-8" on="1"/>
        <pt x="166" y="-8" on="0"/>
        <pt x="98" y="22" on="0"/>
        <pt x="74" y="49" on="1"/>
        <pt x="98" y="68" on="1"/>
        <pt x="118" y="45" on="0"/>
        <pt x="175" y="19" on="0"/>
        <pt x="210" y="19" on="1"/>
        <pt x="247" y="19" on="0"/>
        <pt x="318" y="48" on="0"/>
        <pt x="374" y="97" on="0"/>
        <pt x="412" y="162" on="0"/>
        <pt x="417" y="198" on="1"/>
        <pt x="422" y="234" on="0"/>
        <pt x="402" y="298" on="0"/>
        <pt x="360" y="346" on="0"/>
        <pt x="297" y="373" on="0"/>
        <pt x="260" y="373" on="1"/>
        <pt x="225" y="373" on="0"/>
        <pt x="164" y="350" on="0"/>
        <pt x="144" y="331" on="1"/>
        <pt x="189" y="650" on="1"/>
      </contour>
    </TTGlyph>
    <TTGlyph name="four" xMin="16" yMin="0" xMax="483" yMax="658">
      <contour>
        <pt x="255" y="27" on="1"/>
        <pt x="332" y="27" on="1"/>
        <pt x="354" y="183" on="1"/>
        <pt x="16" y="183" on="1"/>
        <pt x="449" y="658" on="1"/>
        <pt x="386" y="210" on="1"/>
        <pt x="483" y="210" on="1"/>
        <pt x="479" y="183" on="1"/>
        <pt x="382" y="183" on="1"/>
        <pt x="360" y="27" on="1"/>
        <pt x="443" y="27" on="1"/>
        <pt x="439" y="0" on="1"/>
        <pt x="251" y="0" on="1"/>
      </contour>
      <contour>
        <pt x="409" y="576" on="1"/>
        <pt x="77" y="210" on="1"/>
        <pt x="358" y="210" on="1"/>
      </contour>
    </TTGlyph>
    <TTGlyph name="g" xMin="90" yMin="-250" xMax="588" yMax="383">
      <contour>
        <pt x="492" y="375" on="1"/>
        <pt x="588" y="375" on="1"/>
        <pt x="584" y="348" on="1"/>
        <pt x="510" y="348" on="1"/>
        <pt x="457" y="-26" on="1"/>
        <pt x="449" y="-79" on="0"/>
        <pt x="408" y="-161" on="0"/>
        <pt x="350" y="-218" on="0"/>
        <pt x="278" y="-249" on="0"/>
        <pt x="239" y="-250" on="1"/>
        <pt x="197" y="-248" on="0"/>
        <pt x="117" y="-221" on="0"/>
        <pt x="94" y="-190" on="1"/>
        <pt x="118" y="-171" on="1"/>
        <pt x="138" y="-198" on="0"/>
        <pt x="206" y="-222" on="0"/>
        <pt x="241" y="-222" on="1"/>
        <pt x="274" y="-222" on="0"/>
        <pt x="337" y="-194" on="0"/>
        <pt x="388" y="-143" on="0"/>
        <pt x="424" y="-71" on="0"/>
        <pt x="430" y="-27" on="1"/>
        <pt x="440" y="47" on="1"/>
        <pt x="442" y="61" on="0"/>
        <pt x="448" y="87" on="0"/>
        <pt x="450" y="101" on="1"/>
        <pt x="425" y="56" on="0"/>
        <pt x="325" y="-6" on="0"/>
        <pt x="264" y="-6" on="1"/>
        <pt x="223" y="-6" on="0"/>
        <pt x="156" y="24" on="0"/>
        <pt x="111" y="77" on="0"/>
        <pt x="90" y="147" on="0"/>
        <pt x="96" y="188" on="1"/>
        <pt x="102" y="228" on="0"/>
        <pt x="142" y="299" on="0"/>
        <pt x="202" y="352" on="0"/>
        <pt x="278" y="383" on="0"/>
        <pt x="319" y="383" on="1"/>
        <pt x="349" y="383" on="0"/>
        <pt x="400" y="366" on="0"/>
        <pt x="440" y="336" on="0"/>
        <pt x="468" y="296" on="0"/>
        <pt x="474" y="274" on="1"/>
        <pt x="478" y="299" on="0"/>
        <pt x="487" y="349" on="0"/>
      </contour>
      <contour>
        <pt x="124" y="188" on="1"/>
        <pt x="119" y="153" on="0"/>
        <pt x="136" y="92" on="0"/>
        <pt x="175" y="47" on="0"/>
        <pt x="233" y="21" on="0"/>
        <pt x="268" y="21" on="1"/>
        <pt x="303" y="21" on="0"/>
        <pt x="368" y="47" on="0"/>
        <pt x="420" y="92" on="0"/>
        <pt x="455" y="153" on="0"/>
        <pt x="460" y="188" on="1"/>
        <pt x="465" y="223" on="0"/>
        <pt x="447" y="284" on="0"/>
        <pt x="408" y="330" on="0"/>
        <pt x="350" y="356" on="0"/>
        <pt x="315" y="356" on="1"/>
        <pt x="280" y="356" on="0"/>
        <pt x="215" y="330" on="0"/>
        <pt x="163" y="284" on="0"/>
        <pt x="129" y="223" on="0"/>
      </contour>
    </TTGlyph>
    <TTGlyph name="germandbls" xMin="36" yMin="-8" xMax="543" yMax="658">
      <contour>
        <pt x="40" y="27" on="1"/>
        <pt x="118" y="27" on="1"/>
        <pt x="165" y="363" on="1"/>
        <pt x="101" y="363" on="1"/>
        <pt x="105" y="390" on="1"/>
        <pt x="169" y="390" on="1"/>
        <pt x="173" y="425" on="1"/>
        <pt x="181" y="480" on="0"/>
        <pt x="224" y="566" on="0"/>
        <pt x="284" y="625" on="0"/>
        <pt x="358" y="657" on="0"/>
        <pt x="396" y="658" on="1"/>
        <pt x="426" y="657" on="0"/>
        <pt x="475" y="634" on="0"/>
        <pt x="509" y="594" on="0"/>
        <pt x="524" y="541" on="0"/>
        <pt x="520" y="511" on="1"/>
        <pt x="514" y="469" on="0"/>
        <pt x="459" y="405" on="0"/>
        <pt x="420" y="389" on="1"/>
        <pt x="450" y="380" on="0"/>
        <pt x="498" y="344" on="0"/>
        <pt x="530" y="294" on="0"/>
        <pt x="543" y="232" on="0"/>
        <pt x="539" y="198" on="1"/>
        <pt x="533" y="155" on="0"/>
        <pt x="490" y="80" on="0"/>
        <pt x="425" y="24" on="0"/>
        <pt x="345" y="-8" on="0"/>
        <pt x="303" y="-8" on="1"/>
        <pt x="274" y="-8" on="0"/>
        <pt x="224" y="6" on="0"/>
        <pt x="204" y="19" on="1"/>
        <pt x="219" y="43" on="1"/>
        <pt x="255" y="18" on="0"/>
        <pt x="304" y="18" on="1"/>
        <pt x="341" y="18" on="0"/>
        <pt x="412" y="47" on="0"/>
        <pt x="468" y="96" on="0"/>
        <pt x="506" y="162" on="0"/>
        <pt x="511" y="198" on="1"/>
        <pt x="516" y="234" on="0"/>
        <pt x="496" y="297" on="0"/>
        <pt x="454" y="345" on="0"/>
        <pt x="393" y="373" on="0"/>
        <pt x="356" y="373" on="1"/>
        <pt x="356" y="377" on="0"/>
        <pt x="358" y="387" on="1"/>
        <pt x="360" y="401" on="1"/>
        <pt x="384" y="401" on="0"/>
        <pt x="429" y="417" on="0"/>
        <pt x="464" y="445" on="0"/>
        <pt x="488" y="484" on="0"/>
        <pt x="491" y="508" on="1"/>
        <pt x="494" y="532" on="0"/>
        <pt x="483" y="576" on="0"/>
        <pt x="458" y="610" on="0"/>
        <pt x="418" y="630" on="0"/>
        <pt x="393" y="630" on="1"/>
        <pt x="360" y="630" on="0"/>
        <pt x="297" y="602" on="0"/>
        <pt x="245" y="549" on="0"/>
        <pt x="208" y="474" on="0"/>
        <pt x="202" y="428" on="1"/>
        <pt x="142" y="0" on="1"/>
        <pt x="36" y="0" on="1"/>
      </contour>
    </TTGlyph>
    <TTGlyph name="grave" xMin="-9" yMin="479" xMax="86" yMax="612">
      <contour>
        <pt x="19" y="612" on="1"/>
        <pt x="36" y="579" on="0"/>
        <pt x="69" y="512" on="0"/>
        <pt x="86" y="479" on="1"/>
        <pt x="62" y="479" on="1"/>
        <pt x="43" y="512" on="0"/>
        <pt x="8" y="579" on="0"/>
        <pt x="-9" y="612" on="1"/>
      </contour>
    </TTGlyph>
    <TTGlyph name="greater" xMin="79" yMin="-15" xMax="553" yMax="491">
      <contour>
        <pt x="79" y="-15" on="1"/>
        <pt x="84" y="21" on="1"/>
        <pt x="187" y="75" on="0"/>
        <pt x="390" y="184" on="0"/>
        <pt x="493" y="238" on="1"/>
        <pt x="405" y="292" on="0"/>
        <pt x="233" y="401" on="0"/>
        <pt x="145" y="455" on="1"/>
        <pt x="150" y="491" on="1"/>
        <pt x="251" y="428" on="0"/>
        <pt x="451" y="301" on="0"/>
        <pt x="553" y="238" on="1"/>
        <pt x="434" y="175" on="0"/>
        <pt x="198" y="48" on="0"/>
      </contour>
    </TTGlyph>
    <TTGlyph name="guillemotleft" xMin="139" yMin="77" xMax="504" yMax="400">
      <contour>
        <pt x="459" y="77" on="1"/>
        <pt x="310" y="239" on="1"/>
        <pt x="359" y="280" on="0"/>
        <pt x="455" y="359" on="0"/>
        <pt x="504" y="400" on="1"/>
        <pt x="500" y="368" on="1"/>
        <pt x="464" y="336" on="0"/>
        <pt x="391" y="271" on="0"/>
        <pt x="354" y="239" on="1"/>
        <pt x="381" y="206" on="0"/>
        <pt x="436" y="141" on="0"/>
        <pt x="463" y="109" on="1"/>
      </contour>
      <contour>
        <pt x="288" y="77" on="1"/>
        <pt x="139" y="239" on="1"/>
        <pt x="188" y="280" on="0"/>
        <pt x="284" y="359" on="0"/>
        <pt x="333" y="400" on="1"/>
        <pt x="329" y="367" on="1"/>
        <pt x="292" y="335" on="0"/>
        <pt x="220" y="271" on="0"/>
        <pt x="183" y="239" on="1"/>
        <pt x="210" y="206" on="0"/>
        <pt x="265" y="141" on="0"/>
        <pt x="292" y="109" on="1"/>
      </contour>
    </TTGlyph>
    <TTGlyph name="guillemotright" xMin="117" yMin="77" xMax="481" yMax="400">
      <contour>
        <pt x="121" y="109" on="1"/>
        <pt x="157" y="141" on="0"/>
        <pt x="229" y="206" on="0"/>
        <pt x="266" y="239" on="1"/>
        <pt x="158" y="368" on="1"/>
        <pt x="162" y="400" on="1"/>
        <pt x="199" y="359" on="0"/>
        <pt x="273" y="280" on="0"/>
        <pt x="310" y="239" on="1"/>
        <pt x="117" y="77" on="1"/>
      </contour>
      <contour>
        <pt x="292" y="109" on="1"/>
        <pt x="328" y="141" on="0"/>
        <pt x="400" y="206" on="0"/>
        <pt x="437" y="239" on="1"/>
        <pt x="410" y="271" on="0"/>
        <pt x="355" y="335" on="0"/>
        <pt x="329" y="367" on="1"/>
        <pt x="333" y="400" on="1"/>
        <pt x="370" y="359" on="0"/>
        <pt x="444" y="280" on="0"/>
        <pt x="481" y="239" on="1"/>
        <pt x="288" y="77" on="1"/>
      </contour>
    </TTGlyph>
    <TTGlyph name="guilsinglleft" xMin="139" yMin="77" xMax="333" yMax="400">
      <contour>
        <pt x="288" y="77" on="1"/>
        <pt x="139" y="239" on="1"/>
        <pt x="188" y="280" on="0"/>
        <pt x="284" y="359" on="0"/>
        <pt x="333" y="400" on="1"/>
        <pt x="329" y="367" on="1"/>
        <pt x="292" y="335" on="0"/>
        <pt x="220" y="271" on="0"/>
        <pt x="183" y="239" on="1"/>
        <pt x="210" y="206" on="0"/>
        <pt x="265" y="141" on="0"/>
        <pt x="292" y="109" on="1"/>
      </contour>
    </TTGlyph>
    <TTGlyph name="guilsinglright" xMin="117" yMin="77" xMax="310" yMax="400">
      <contour>
        <pt x="121" y="109" on="1"/>
        <pt x="157" y="141" on="0"/>
        <pt x="229" y="206" on="0"/>
        <pt x="266" y="239" on="1"/>
        <pt x="239" y="271" on="0"/>
        <pt x="184" y="335" on="0"/>
        <pt x="158" y="367" on="1"/>
        <pt x="162" y="400" on="1"/>
        <pt x="199" y="359" on="0"/>
        <pt x="273" y="280" on="0"/>
        <pt x="310" y="239" on="1"/>
        <pt x="117" y="77" on="1"/>
      </contour>
    </TTGlyph>
    <TTGlyph name="h" xMin="35" yMin="0" xMax="502" yMax="750">
      <contour>
        <pt x="318" y="27" on="1"/>
        <pt x="397" y="27" on="1"/>
        <pt x="430" y="268" on="1"/>
        <pt x="434" y="303" on="0"/>
        <pt x="394" y="353" on="0"/>
        <pt x="352" y="355" on="1"/>
        <pt x="320" y="355" on="0"/>
        <pt x="258" y="334" on="0"/>
        <pt x="209" y="296" on="0"/>
        <pt x="175" y="243" on="0"/>
        <pt x="170" y="212" on="1"/>
        <pt x="144" y="27" on="1"/>
        <pt x="222" y="27" on="1"/>
        <pt x="219" y="0" on="1"/>
        <pt x="35" y="0" on="1"/>
        <pt x="38" y="27" on="1"/>
        <pt x="116" y="27" on="1"/>
        <pt x="215" y="723" on="1"/>
        <pt x="141" y="723" on="1"/>
        <pt x="145" y="750" on="1"/>
        <pt x="246" y="750" on="1"/>
        <pt x="186" y="322" on="1"/>
        <pt x="176" y="277" on="1"/>
        <pt x="204" y="325" on="0"/>
        <pt x="299" y="382" on="0"/>
        <pt x="356" y="382" on="1"/>
        <pt x="410" y="382" on="0"/>
        <pt x="464" y="320" on="0"/>
        <pt x="459" y="270" on="1"/>
        <pt x="424" y="27" on="1"/>
        <pt x="502" y="27" on="1"/>
        <pt x="499" y="0" on="1"/>
        <pt x="315" y="0" on="1"/>
      </contour>
    </TTGlyph>
    <TTGlyph name="hyphen" xMin="51" yMin="177" xMax="238" yMax="204">
      <contour>
        <pt x="51" y="177" on="1"/>
        <pt x="54" y="204" on="1"/>
        <pt x="238" y="204" on="1"/>
        <pt x="235" y="177" on="1"/>
      </contour>
    </TTGlyph>
    <TTGlyph name="i" xMin="35" yMin="0" xMax="227" yMax="531">
      <contour>
        <pt x="38" y="27" on="1"/>
        <pt x="118" y="27" on="1"/>
        <pt x="163" y="348" on="1"/>
        <pt x="83" y="348" on="1"/>
        <pt x="87" y="375" on="1"/>
        <pt x="194" y="375" on="1"/>
        <pt x="145" y="27" on="1"/>
        <pt x="222" y="27" on="1"/>
        <pt x="219" y="0" on="1"/>
        <pt x="35" y="0" on="1"/>
      </contour>
      <contour>
        <pt x="173" y="504" on="1"/>
        <pt x="175" y="515" on="0"/>
        <pt x="192" y="531" on="0"/>
        <pt x="203" y="531" on="1"/>
        <pt x="214" y="531" on="0"/>
        <pt x="227" y="515" on="0"/>
        <pt x="226" y="504" on="1"/>
        <pt x="224" y="493" on="0"/>
        <pt x="206" y="478" on="0"/>
        <pt x="195" y="478" on="1"/>
        <pt x="184" y="478" on="0"/>
        <pt x="171" y="493" on="0"/>
      </contour>
    </TTGlyph>
    <TTGlyph name="iacute" xMin="35" yMin="0" xMax="325" yMax="612">
      <contour>
        <pt x="38" y="27" on="1"/>
        <pt x="118" y="27" on="1"/>
        <pt x="163" y="348" on="1"/>
        <pt x="83" y="348" on="1"/>
        <pt x="87" y="375" on="1"/>
        <pt x="194" y="375" on="1"/>
        <pt x="145" y="27" on="1"/>
        <pt x="222" y="27" on="1"/>
        <pt x="219" y="0" on="1"/>
        <pt x="35" y="0" on="1"/>
      </contour>
      <contour>
        <pt x="187" y="479" on="1"/>
        <pt x="214" y="512" on="0"/>
        <pt x="268" y="579" on="0"/>
        <pt x="295" y="612" on="1"/>
        <pt x="325" y="612" on="1"/>
        <pt x="296" y="579" on="0"/>
        <pt x="240" y="512" on="0"/>
        <pt x="212" y="479" on="1"/>
      </contour>
    </TTGlyph>
    <TTGlyph name="icircumflex" xMin="35" yMin="0" xMax="302" yMax="660">
      <contour>
        <pt x="38" y="27" on="1"/>
        <pt x="118" y="27" on="1"/>
        <pt x="163" y="348" on="1"/>
        <pt x="83" y="348" on="1"/>
        <pt x="87" y="375" on="1"/>
        <pt x="194" y="375" on="1"/>
        <pt x="145" y="27" on="1"/>
        <pt x="222" y="27" on="1"/>
        <pt x="219" y="0" on="1"/>
        <pt x="35" y="0" on="1"/>
      </contour>
      <contour>
        <pt x="207" y="660" on="1"/>
        <pt x="231" y="615" on="0"/>
        <pt x="278" y="524" on="0"/>
        <pt x="302" y="479" on="1"/>
        <pt x="277" y="479" on="1"/>
        <pt x="258" y="514" on="0"/>
        <pt x="221" y="582" on="0"/>
        <pt x="201" y="617" on="1"/>
        <pt x="87" y="479" on="1"/>
        <pt x="62" y="479" on="1"/>
        <pt x="98" y="524" on="0"/>
        <pt x="171" y="615" on="0"/>
      </contour>
    </TTGlyph>
    <TTGlyph name="idieresis" xMin="35" yMin="0" xMax="300" yMax="531">
      <contour>
        <pt x="38" y="27" on="1"/>
        <pt x="118" y="27" on="1"/>
        <pt x="163" y="348" on="1"/>
        <pt x="83" y="348" on="1"/>
        <pt x="87" y="375" on="1"/>
        <pt x="194" y="375" on="1"/>
        <pt x="145" y="27" on="1"/>
        <pt x="222" y="27" on="1"/>
        <pt x="219" y="0" on="1"/>
        <pt x="35" y="0" on="1"/>
      </contour>
      <contour>
        <pt x="246" y="504" on="1"/>
        <pt x="248" y="515" on="0"/>
        <pt x="265" y="531" on="0"/>
        <pt x="276" y="531" on="1"/>
        <pt x="287" y="531" on="0"/>
        <pt x="300" y="515" on="0"/>
        <pt x="298" y="504" on="1"/>
        <pt x="296" y="493" on="0"/>
        <pt x="280" y="478" on="0"/>
        <pt x="269" y="478" on="1"/>
        <pt x="258" y="478" on="0"/>
        <pt x="244" y="493" on="0"/>
      </contour>
      <contour>
        <pt x="80" y="504" on="1"/>
        <pt x="82" y="515" on="0"/>
        <pt x="100" y="531" on="0"/>
        <pt x="111" y="531" on="1"/>
        <pt x="121" y="531" on="0"/>
        <pt x="135" y="515" on="0"/>
        <pt x="133" y="504" on="1"/>
        <pt x="131" y="493" on="0"/>
        <pt x="115" y="478" on="0"/>
        <pt x="104" y="478" on="1"/>
        <pt x="93" y="478" on="0"/>
        <pt x="79" y="493" on="0"/>
      </contour>
    </TTGlyph>
    <TTGlyph name="igrave" xMin="35" yMin="0" xMax="222" yMax="612">
      <contour>
        <pt x="38" y="27" on="1"/>
        <pt x="118" y="27" on="1"/>
        <pt x="163" y="348" on="1"/>
        <pt x="83" y="348" on="1"/>
        <pt x="87" y="375" on="1"/>
        <pt x="194" y="375" on="1"/>
        <pt x="145" y="27" on="1"/>
        <pt x="222" y="27" on="1"/>
        <pt x="219" y="0" on="1"/>
        <pt x="35" y="0" on="1"/>
      </contour>
      <contour>
        <pt x="132" y="612" on="1"/>
        <pt x="149" y="579" on="0"/>
        <pt x="182" y="512" on="0"/>
        <pt x="199" y="479" on="1"/>
        <pt x="175" y="479" on="1"/>
        <pt x="156" y="512" on="0"/>
        <pt x="121" y="579" on="0"/>
        <pt x="104" y="612" on="1"/>
      </contour>
    </TTGlyph>
    <TTGlyph name="j" xMin="9" yMin="-180" xMax="200" yMax="531">
      <contour>
        <pt x="61" y="375" on="1"/>
        <pt x="167" y="375" on="1"/>
        <pt x="114" y="-6" on="1"/>
        <pt x="106" y="-64" on="0"/>
        <pt x="60" y="-151" on="0"/>
        <pt x="28" y="-180" on="1"/>
        <pt x="9" y="-161" on="1"/>
        <pt x="38" y="-135" on="0"/>
        <pt x="78" y="-58" on="0"/>
        <pt x="85" y="-8" on="1"/>
        <pt x="135" y="348" on="1"/>
        <pt x="58" y="348" on="1"/>
      </contour>
      <contour>
        <pt x="145" y="504" on="1"/>
        <pt x="147" y="515" on="0"/>
        <pt x="165" y="531" on="0"/>
        <pt x="176" y="531" on="1"/>
        <pt x="186" y="531" on="0"/>
        <pt x="200" y="515" on="0"/>
        <pt x="198" y="504" on="1"/>
        <pt x="196" y="493" on="0"/>
        <pt x="179" y="478" on="0"/>
        <pt x="168" y="478" on="1"/>
        <pt x="157" y="478" on="0"/>
        <pt x="143" y="493" on="0"/>
      </contour>
    </TTGlyph>
    <TTGlyph name="k" xMin="35" yMin="0" xMax="475" yMax="750">
      <contour>
        <pt x="284" y="27" on="1"/>
        <pt x="344" y="27" on="1"/>
        <pt x="316" y="73" on="0"/>
        <pt x="261" y="165" on="0"/>
        <pt x="234" y="212" on="1"/>
        <pt x="156" y="147" on="1"/>
        <pt x="139" y="27" on="1"/>
        <pt x="222" y="27" on="1"/>
        <pt x="219" y="0" on="1"/>
        <pt x="35" y="0" on="1"/>
        <pt x="38" y="27" on="1"/>
        <pt x="111" y="27" on="1"/>
        <pt x="209" y="723" on="1"/>
        <pt x="137" y="723" on="1"/>
        <pt x="141" y="750" on="1"/>
        <pt x="241" y="750" on="1"/>
        <pt x="161" y="183" on="1"/>
        <pt x="360" y="348" on="1"/>
        <pt x="292" y="348" on="1"/>
        <pt x="296" y="375" on="1"/>
        <pt x="475" y="375" on="1"/>
        <pt x="472" y="348" on="1"/>
        <pt x="396" y="348" on="1"/>
        <pt x="358" y="316" on="0"/>
        <pt x="296" y="263" on="0"/>
        <pt x="258" y="231" on="1"/>
        <pt x="287" y="180" on="0"/>
        <pt x="348" y="78" on="0"/>
        <pt x="378" y="27" on="1"/>
        <pt x="463" y="27" on="1"/>
        <pt x="460" y="0" on="1"/>
        <pt x="281" y="0" on="1"/>
      </contour>
    </TTGlyph>
    <TTGlyph name="l" xMin="35" yMin="0" xMax="241" yMax="750">
      <contour>
        <pt x="38" y="27" on="1"/>
        <pt x="111" y="27" on="1"/>
        <pt x="209" y="723" on="1"/>
        <pt x="137" y="723" on="1"/>
        <pt x="141" y="750" on="1"/>
        <pt x="241" y="750" on="1"/>
        <pt x="139" y="27" on="1"/>
        <pt x="222" y="27" on="1"/>
        <pt x="219" y="0" on="1"/>
        <pt x="35" y="0" on="1"/>
      </contour>
    </TTGlyph>
    <TTGlyph name="less" xMin="115" yMin="-15" xMax="588" yMax="491">
      <contour>
        <pt x="522" y="21" on="1"/>
        <pt x="517" y="-15" on="1"/>
        <pt x="416" y="48" on="0"/>
        <pt x="216" y="175" on="0"/>
        <pt x="115" y="238" on="1"/>
        <pt x="233" y="301" on="0"/>
        <pt x="469" y="428" on="0"/>
        <pt x="588" y="491" on="1"/>
        <pt x="583" y="455" on="1"/>
        <pt x="481" y="401" on="0"/>
        <pt x="278" y="292" on="0"/>
        <pt x="175" y="238" on="1"/>
        <pt x="262" y="184" on="0"/>
        <pt x="434" y="75" on="0"/>
      </contour>
    </TTGlyph>
    <TTGlyph name="logicalnot" xMin="110" yMin="148" xMax="473" yMax="242">
      <contour>
        <pt x="432" y="148" on="1"/>
        <pt x="442" y="219" on="1"/>
        <pt x="110" y="219" on="1"/>
        <pt x="113" y="242" on="1"/>
        <pt x="473" y="242" on="1"/>
        <pt x="460" y="148" on="1"/>
      </contour>
    </TTGlyph>
    <TTGlyph name="m" xMin="35" yMin="0" xMax="782" yMax="382">
      <contour>
        <pt x="598" y="27" on="1"/>
        <pt x="677" y="27" on="1"/>
        <pt x="711" y="268" on="1"/>
        <pt x="714" y="303" on="0"/>
        <pt x="675" y="353" on="0"/>
        <pt x="632" y="355" on="1"/>
        <pt x="600" y="355" on="0"/>
        <pt x="540" y="334" on="0"/>
        <pt x="491" y="298" on="0"/>
        <pt x="457" y="247" on="0"/>
        <pt x="451" y="217" on="1"/>
        <pt x="424" y="27" on="1"/>
        <pt x="502" y="27" on="1"/>
        <pt x="499" y="0" on="1"/>
        <pt x="315" y="0" on="1"/>
        <pt x="318" y="27" on="1"/>
        <pt x="397" y="27" on="1"/>
        <pt x="430" y="268" on="1"/>
        <pt x="434" y="303" on="0"/>
        <pt x="394" y="353" on="0"/>
        <pt x="352" y="355" on="1"/>
        <pt x="320" y="355" on="0"/>
        <pt x="258" y="334" on="0"/>
        <pt x="209" y="296" on="0"/>
        <pt x="175" y="243" on="0"/>
        <pt x="170" y="212" on="1"/>
        <pt x="144" y="27" on="1"/>
        <pt x="222" y="27" on="1"/>
        <pt x="219" y="0" on="1"/>
        <pt x="35" y="0" on="1"/>
        <pt x="38" y="27" on="1"/>
        <pt x="116" y="27" on="1"/>
        <pt x="162" y="348" on="1"/>
        <pt x="88" y="348" on="1"/>
        <pt x="92" y="375" on="1"/>
        <pt x="186" y="375" on="1"/>
        <pt x="182" y="331" on="1"/>
        <pt x="180" y="316" on="0"/>
        <pt x="178" y="292" on="0"/>
        <pt x="176" y="277" on="1"/>
        <pt x="204" y="325" on="0"/>
        <pt x="299" y="382" on="0"/>
        <pt x="356" y="382" on="1"/>
        <pt x="406" y="382" on="0"/>
        <pt x="460" y="327" on="0"/>
        <pt x="459" y="282" on="1"/>
        <pt x="487" y="327" on="0"/>
        <pt x="581" y="382" on="0"/>
        <pt x="636" y="382" on="1"/>
        <pt x="690" y="382" on="0"/>
        <pt x="745" y="320" on="0"/>
        <pt x="739" y="270" on="1"/>
        <pt x="705" y="27" on="1"/>
        <pt x="782" y="27" on="1"/>
        <pt x="779" y="0" on="1"/>
        <pt x="595" y="0" on="1"/>
      </contour>
    </TTGlyph>
    <TTGlyph name="macron" xMin="85" yMin="489" xMax="317" yMax="511">
      <contour>
        <pt x="85" y="489" on="1"/>
        <pt x="87" y="511" on="1"/>
        <pt x="317" y="511" on="1"/>
        <pt x="315" y="489" on="1"/>
      </contour>
    </TTGlyph>
    <TTGlyph name="mu" xMin="110" yMin="-201" xMax="524" yMax="375">
      <contour>
        <pt x="394" y="375" on="1"/>
        <pt x="498" y="375" on="1"/>
        <pt x="450" y="25" on="1"/>
        <pt x="524" y="25" on="1"/>
        <pt x="520" y="0" on="1"/>
        <pt x="425" y="0" on="1"/>
        <pt x="429" y="53" on="1"/>
        <pt x="435" y="98" on="1"/>
        <pt x="408" y="50" on="0"/>
        <pt x="311" y="-7" on="0"/>
        <pt x="255" y="-7" on="1"/>
        <pt x="224" y="-7" on="0"/>
        <pt x="181" y="17" on="0"/>
        <pt x="171" y="39" on="1"/>
        <pt x="138" y="-201" on="1"/>
        <pt x="110" y="-201" on="1"/>
        <pt x="186" y="348" on="1"/>
        <pt x="110" y="348" on="1"/>
        <pt x="114" y="375" on="1"/>
        <pt x="218" y="375" on="1"/>
        <pt x="181" y="107" on="1"/>
        <pt x="177" y="72" on="0"/>
        <pt x="217" y="22" on="0"/>
        <pt x="260" y="20" on="1"/>
        <pt x="292" y="20" on="0"/>
        <pt x="353" y="41" on="0"/>
        <pt x="403" y="79" on="0"/>
        <pt x="436" y="132" on="0"/>
        <pt x="441" y="163" on="1"/>
        <pt x="466" y="348" on="1"/>
        <pt x="390" y="348" on="1"/>
      </contour>
    </TTGlyph>
    <TTGlyph name="multiply" xMin="128" yMin="0" xMax="435" yMax="275">
      <contour>
        <pt x="381" y="0" on="1"/>
        <pt x="355" y="29" on="0"/>
        <pt x="305" y="89" on="0"/>
        <pt x="279" y="118" on="1"/>
        <pt x="245" y="89" on="0"/>
        <pt x="179" y="29" on="0"/>
        <pt x="146" y="0" on="1"/>
        <pt x="141" y="5" on="0"/>
        <pt x="132" y="15" on="0"/>
        <pt x="128" y="20" on="1"/>
        <pt x="162" y="49" on="0"/>
        <pt x="228" y="108" on="0"/>
        <pt x="262" y="138" on="1"/>
        <pt x="162" y="254" on="1"/>
        <pt x="185" y="274" on="1"/>
        <pt x="285" y="157" on="1"/>
        <pt x="318" y="187" on="0"/>
        <pt x="385" y="245" on="0"/>
        <pt x="419" y="275" on="1"/>
        <pt x="423" y="270" on="0"/>
        <pt x="432" y="260" on="0"/>
        <pt x="435" y="255" on="1"/>
        <pt x="402" y="226" on="0"/>
        <pt x="335" y="167" on="0"/>
        <pt x="301" y="138" on="1"/>
        <pt x="327" y="109" on="0"/>
        <pt x="377" y="49" on="0"/>
        <pt x="403" y="20" on="1"/>
      </contour>
    </TTGlyph>
    <TTGlyph name="n" xMin="35" yMin="0" xMax="502" yMax="382">
      <contour>
        <pt x="318" y="27" on="1"/>
        <pt x="397" y="27" on="1"/>
        <pt x="430" y="268" on="1"/>
        <pt x="434" y="303" on="0"/>
        <pt x="394" y="353" on="0"/>
        <pt x="352" y="355" on="1"/>
        <pt x="320" y="355" on="0"/>
        <pt x="258" y="334" on="0"/>
        <pt x="209" y="296" on="0"/>
        <pt x="175" y="243" on="0"/>
        <pt x="170" y="212" on="1"/>
        <pt x="144" y="27" on="1"/>
        <pt x="222" y="27" on="1"/>
        <pt x="219" y="0" on="1"/>
        <pt x="35" y="0" on="1"/>
        <pt x="38" y="27" on="1"/>
        <pt x="116" y="27" on="1"/>
        <pt x="162" y="348" on="1"/>
        <pt x="88" y="348" on="1"/>
        <pt x="92" y="375" on="1"/>
        <pt x="186" y="375" on="1"/>
        <pt x="182" y="331" on="1"/>
        <pt x="180" y="316" on="0"/>
        <pt x="178" y="292" on="0"/>
        <pt x="176" y="277" on="1"/>
        <pt x="203" y="325" on="0"/>
        <pt x="299" y="382" on="0"/>
        <pt x="356" y="382" on="1"/>
        <pt x="410" y="382" on="0"/>
        <pt x="464" y="320" on="0"/>
        <pt x="459" y="270" on="1"/>
        <pt x="424" y="27" on="1"/>
        <pt x="502" y="27" on="1"/>
        <pt x="499" y="0" on="1"/>
        <pt x="315" y="0" on="1"/>
      </contour>
    </TTGlyph>
    <TTGlyph name="nine" xMin="59" yMin="-8" xMax="484" yMax="634">
      <contour>
        <pt x="451" y="429" on="1"/>
        <pt x="456" y="466" on="0"/>
        <pt x="438" y="530" on="0"/>
        <pt x="396" y="578" on="0"/>
        <pt x="335" y="606" on="0"/>
        <pt x="298" y="606" on="1"/>
        <pt x="261" y="606" on="0"/>
        <pt x="191" y="578" on="0"/>
        <pt x="136" y="530" on="0"/>
        <pt x="98" y="466" on="0"/>
        <pt x="93" y="429" on="1"/>
        <pt x="88" y="392" on="0"/>
        <pt x="107" y="328" on="0"/>
        <pt x="149" y="280" on="0"/>
        <pt x="211" y="252" on="0"/>
        <pt x="248" y="252" on="1"/>
        <pt x="285" y="252" on="0"/>
        <pt x="354" y="280" on="0"/>
        <pt x="409" y="328" on="0"/>
        <pt x="446" y="392" on="0"/>
      </contour>
      <contour>
        <pt x="478" y="429" on="1"/>
        <pt x="468" y="357" on="0"/>
        <pt x="389" y="233" on="0"/>
        <pt x="277" y="125" on="0"/>
        <pt x="146" y="32" on="0"/>
        <pt x="85" y="-8" on="1"/>
        <pt x="82" y="-3" on="0"/>
        <pt x="74" y="10" on="0"/>
        <pt x="70" y="15" on="1"/>
        <pt x="202" y="95" on="0"/>
        <pt x="355" y="239" on="0"/>
        <pt x="387" y="290" on="1"/>
        <pt x="359" y="260" on="0"/>
        <pt x="285" y="225" on="0"/>
        <pt x="243" y="225" on="1"/>
        <pt x="200" y="225" on="0"/>
        <pt x="129" y="257" on="0"/>
        <pt x="81" y="313" on="0"/>
        <pt x="59" y="387" on="0"/>
        <pt x="65" y="429" on="1"/>
        <pt x="71" y="471" on="0"/>
        <pt x="114" y="546" on="0"/>
        <pt x="178" y="602" on="0"/>
        <pt x="258" y="634" on="0"/>
        <pt x="301" y="634" on="1"/>
        <pt x="344" y="634" on="0"/>
        <pt x="415" y="602" on="0"/>
        <pt x="463" y="546" on="0"/>
        <pt x="484" y="471" on="0"/>
      </contour>
    </TTGlyph>
    <TTGlyph name="ntilde" xMin="35" yMin="0" xMax="502" yMax="534">
      <component glyphName="n" x="0" y="0" flags="0x204"/>
      <component glyphName="asciitilde" x="58" y="-9" flags="0x4"/>
    </TTGlyph>
    <TTGlyph name="numbersign" xMin="13" yMin="0" xMax="521" yMax="643">
      <contour>
        <pt x="201" y="400" on="1"/>
        <pt x="190" y="361" on="0"/>
        <pt x="171" y="284" on="0"/>
        <pt x="161" y="245" on="1"/>
        <pt x="317" y="245" on="1"/>
        <pt x="327" y="284" on="0"/>
        <pt x="346" y="361" on="0"/>
        <pt x="357" y="400" on="1"/>
      </contour>
      <contour>
        <pt x="253" y="0" on="1"/>
        <pt x="267" y="55" on="0"/>
        <pt x="295" y="163" on="0"/>
        <pt x="309" y="218" on="1"/>
        <pt x="153" y="218" on="1"/>
        <pt x="139" y="163" on="0"/>
        <pt x="111" y="55" on="0"/>
        <pt x="97" y="0" on="1"/>
        <pt x="69" y="0" on="1"/>
        <pt x="83" y="55" on="0"/>
        <pt x="111" y="163" on="0"/>
        <pt x="125" y="218" on="1"/>
        <pt x="13" y="218" on="1"/>
        <pt x="15" y="225" on="0"/>
        <pt x="18" y="238" on="0"/>
        <pt x="20" y="245" on="1"/>
        <pt x="133" y="245" on="1"/>
        <pt x="143" y="284" on="0"/>
        <pt x="162" y="361" on="0"/>
        <pt x="173" y="400" on="1"/>
        <pt x="62" y="400" on="1"/>
        <pt x="63" y="407" on="0"/>
        <pt x="66" y="420" on="0"/>
        <pt x="68" y="427" on="1"/>
        <pt x="180" y="427" on="1"/>
        <pt x="237" y="643" on="1"/>
        <pt x="265" y="643" on="1"/>
        <pt x="208" y="427" on="1"/>
        <pt x="364" y="427" on="1"/>
        <pt x="421" y="643" on="1"/>
        <pt x="449" y="643" on="1"/>
        <pt x="392" y="427" on="1"/>
        <pt x="521" y="427" on="1"/>
        <pt x="515" y="400" on="1"/>
        <pt x="385" y="400" on="1"/>
        <pt x="374" y="361" on="0"/>
        <pt x="355" y="284" on="0"/>
        <pt x="345" y="245" on="1"/>
        <pt x="473" y="245" on="1"/>
        <pt x="471" y="238" on="0"/>
        <pt x="468" y="225" on="0"/>
        <pt x="466" y="218" on="1"/>
        <pt x="337" y="218" on="1"/>
        <pt x="323" y="163" on="0"/>
        <pt x="295" y="55" on="0"/>
        <pt x="281" y="0" on="1"/>
      </contour>
    </TTGlyph>
    <TTGlyph name="o" xMin="57" yMin="-7" xMax="461" yMax="384">
      <contour>
        <pt x="63" y="188" on="1"/>
        <pt x="69" y="228" on="0"/>
        <pt x="109" y="300" on="0"/>
        <pt x="169" y="353" on="0"/>
        <pt x="244" y="384" on="0"/>
        <pt x="285" y="384" on="1"/>
        <pt x="326" y="384" on="0"/>
        <pt x="393" y="353" on="0"/>
        <pt x="440" y="300" on="0"/>
        <pt x="461" y="228" on="0"/>
        <pt x="455" y="188" on="1"/>
        <pt x="449" y="147" on="0"/>
        <pt x="409" y="76" on="0"/>
        <pt x="348" y="24" on="0"/>
        <pt x="272" y="-7" on="0"/>
        <pt x="231" y="-7" on="1"/>
        <pt x="190" y="-7" on="0"/>
        <pt x="123" y="24" on="0"/>
        <pt x="78" y="76" on="0"/>
        <pt x="57" y="147" on="0"/>
      </contour>
      <contour>
        <pt x="91" y="188" on="1"/>
        <pt x="86" y="153" on="0"/>
        <pt x="103" y="92" on="0"/>
        <pt x="142" y="47" on="0"/>
        <pt x="199" y="21" on="0"/>
        <pt x="234" y="21" on="1"/>
        <pt x="268" y="21" on="0"/>
        <pt x="333" y="47" on="0"/>
        <pt x="386" y="92" on="0"/>
        <pt x="421" y="153" on="0"/>
        <pt x="426" y="188" on="1"/>
        <pt x="431" y="223" on="0"/>
        <pt x="413" y="284" on="0"/>
        <pt x="374" y="330" on="0"/>
        <pt x="316" y="356" on="0"/>
        <pt x="281" y="356" on="1"/>
        <pt x="246" y="356" on="0"/>
        <pt x="182" y="330" on="0"/>
        <pt x="130" y="284" on="0"/>
        <pt x="96" y="223" on="0"/>
      </contour>
    </TTGlyph>
    <TTGlyph name="oacute" xMin="57" yMin="-7" xMax="461" yMax="612">
      <component glyphName="o" x="0" y="0" flags="0x204"/>
      <component glyphName="acute" x="200" y="0" flags="0x4"/>
    </TTGlyph>
    <TTGlyph name="ocircumflex" xMin="57" yMin="-7" xMax="461" yMax="660">
      <component glyphName="o" x="0" y="0" flags="0x204"/>
      <component glyphName="asciicircum" x="87" y="0" flags="0x4"/>
    </TTGlyph>
    <TTGlyph name="odieresis" xMin="57" yMin="-7" xMax="461" yMax="531">
      <component glyphName="o" x="0" y="0" flags="0x204"/>
      <component glyphName="dieresis" x="112" y="0" flags="0x4"/>
    </TTGlyph>
    <TTGlyph name="ograve" xMin="57" yMin="-7" xMax="461" yMax="612">
      <component glyphName="o" x="0" y="0" flags="0x204"/>
      <component glyphName="grave" x="217" y="0" flags="0x4"/>
    </TTGlyph>
    <TTGlyph name="one" xMin="12" yMin="0" xMax="211" yMax="650">
      <contour>
        <pt x="16" y="27" on="1"/>
        <pt x="96" y="27" on="1"/>
        <pt x="179" y="623" on="1"/>
        <pt x="75" y="623" on="1"/>
        <pt x="79" y="650" on="1"/>
        <pt x="211" y="650" on="1"/>
        <pt x="124" y="27" on="1"/>
        <pt x="204" y="27" on="1"/>
        <pt x="200" y="0" on="1"/>
        <pt x="12" y="0" on="1"/>
      </contour>
    </TTGlyph>
    <TTGlyph name="onehalf" xMin="106" yMin="-19" xMax="860" yMax="735">
      <contour>
        <pt x="108" y="253" on="1"/>
        <pt x="165" y="253" on="1"/>
        <pt x="224" y="676" on="1"/>
        <pt x="150" y="676" on="1"/>
        <pt x="153" y="695" on="1"/>
        <pt x="247" y="695" on="1"/>
        <pt x="185" y="253" on="1"/>
        <pt x="242" y="253" on="1"/>
        <pt x="239" y="234" on="1"/>
        <pt x="106" y="234" on="1"/>
      </contour>
      <contour>
        <pt x="606" y="19" on="1"/>
        <pt x="824" y="19" on="1"/>
        <pt x="836" y="96" on="1"/>
        <pt x="855" y="96" on="1"/>
        <pt x="841" y="0" on="1"/>
        <pt x="554" y="0" on="1"/>
        <pt x="606" y="44" on="0"/>
        <pt x="703" y="129" on="0"/>
        <pt x="780" y="209" on="0"/>
        <pt x="830" y="284" on="0"/>
        <pt x="835" y="318" on="1"/>
        <pt x="840" y="354" on="0"/>
        <pt x="826" y="404" on="0"/>
        <pt x="797" y="434" on="0"/>
        <pt x="761" y="446" on="0"/>
        <pt x="744" y="446" on="1"/>
        <pt x="711" y="446" on="0"/>
        <pt x="665" y="422" on="0"/>
        <pt x="635" y="388" on="0"/>
        <pt x="620" y="347" on="0"/>
        <pt x="617" y="330" on="1"/>
        <pt x="611" y="281" on="0"/>
        <pt x="635" y="250" on="1"/>
        <pt x="621" y="239" on="1"/>
        <pt x="607" y="255" on="0"/>
        <pt x="594" y="301" on="0"/>
        <pt x="597" y="330" on="1"/>
        <pt x="602" y="358" on="0"/>
        <pt x="626" y="407" on="0"/>
        <pt x="664" y="444" on="0"/>
        <pt x="715" y="465" on="0"/>
        <pt x="747" y="465" on="1"/>
        <pt x="776" y="465" on="0"/>
        <pt x="820" y="444" on="0"/>
        <pt x="848" y="407" on="0"/>
        <pt x="860" y="356" on="0"/>
        <pt x="855" y="326" on="1"/>
        <pt x="850" y="286" on="0"/>
        <pt x="801" y="208" on="0"/>
        <pt x="730" y="132" on="0"/>
        <pt x="646" y="56" on="0"/>
      </contour>
      <contour>
        <pt x="234" y="-19" on="1"/>
        <pt x="331" y="171" on="0"/>
        <pt x="521" y="545" on="0"/>
        <pt x="618" y="735" on="1"/>
        <pt x="646" y="735" on="1"/>
        <pt x="549" y="545" on="0"/>
        <pt x="359" y="171" on="0"/>
        <pt x="262" y="-19" on="1"/>
      </contour>
    </TTGlyph>
    <TTGlyph name="onequarter" xMin="120" yMin="-19" xMax="833" yMax="735">
      <contour>
        <pt x="234" y="-19" on="1"/>
        <pt x="331" y="171" on="0"/>
        <pt x="521" y="545" on="0"/>
        <pt x="618" y="735" on="1"/>
        <pt x="646" y="735" on="1"/>
        <pt x="549" y="545" on="0"/>
        <pt x="359" y="171" on="0"/>
        <pt x="262" y="-19" on="1"/>
      </contour>
      <contour>
        <pt x="663" y="20" on="1"/>
        <pt x="721" y="20" on="1"/>
        <pt x="737" y="136" on="1"/>
        <pt x="486" y="136" on="1"/>
        <pt x="808" y="490" on="1"/>
        <pt x="761" y="156" on="1"/>
        <pt x="833" y="156" on="1"/>
        <pt x="830" y="136" on="1"/>
        <pt x="758" y="136" on="1"/>
        <pt x="741" y="20" on="1"/>
        <pt x="803" y="20" on="1"/>
        <pt x="800" y="0" on="1"/>
        <pt x="660" y="0" on="1"/>
      </contour>
      <contour>
        <pt x="778" y="429" on="1"/>
        <pt x="531" y="156" on="1"/>
        <pt x="740" y="156" on="1"/>
      </contour>
      <contour>
        <pt x="122" y="253" on="1"/>
        <pt x="179" y="253" on="1"/>
        <pt x="238" y="676" on="1"/>
        <pt x="164" y="676" on="1"/>
        <pt x="167" y="695" on="1"/>
        <pt x="261" y="695" on="1"/>
        <pt x="199" y="253" on="1"/>
        <pt x="256" y="253" on="1"/>
        <pt x="253" y="234" on="1"/>
        <pt x="120" y="234" on="1"/>
      </contour>
    </TTGlyph>
    <TTGlyph name="onesuperior" xMin="57" yMin="401" xMax="149" yMax="700">
      <contour>
        <pt x="59" y="413" on="1"/>
        <pt x="96" y="413" on="1"/>
        <pt x="134" y="688" on="1"/>
        <pt x="86" y="688" on="1"/>
        <pt x="88" y="700" on="1"/>
        <pt x="149" y="700" on="1"/>
        <pt x="109" y="413" on="1"/>
        <pt x="145" y="413" on="1"/>
        <pt x="144" y="401" on="1"/>
        <pt x="57" y="401" on="1"/>
      </contour>
    </TTGlyph>
    <TTGlyph name="ordfeminine" xMin="98" yMin="301" xMax="422" yMax="582">
      <contour>
        <pt x="103" y="442" on="1"/>
        <pt x="107" y="470" on="0"/>
        <pt x="136" y="522" on="0"/>
        <pt x="179" y="560" on="0"/>
        <pt x="234" y="582" on="0"/>
        <pt x="264" y="582" on="1"/>
        <pt x="285" y="582" on="0"/>
        <pt x="322" y="570" on="0"/>
        <pt x="351" y="548" on="0"/>
        <pt x="371" y="519" on="0"/>
        <pt x="375" y="504" on="1"/>
        <pt x="378" y="522" on="0"/>
        <pt x="385" y="558" on="0"/>
        <pt x="388" y="576" on="1"/>
        <pt x="404" y="576" on="1"/>
        <pt x="368" y="325" on="1"/>
        <pt x="422" y="325" on="1"/>
        <pt x="419" y="306" on="1"/>
        <pt x="347" y="306" on="1"/>
        <pt x="352" y="340" on="1"/>
        <pt x="354" y="350" on="0"/>
        <pt x="357" y="369" on="0"/>
        <pt x="358" y="380" on="1"/>
        <pt x="349" y="364" on="0"/>
        <pt x="322" y="335" on="0"/>
        <pt x="287" y="313" on="0"/>
        <pt x="246" y="301" on="0"/>
        <pt x="224" y="301" on="1"/>
        <pt x="194" y="301" on="0"/>
        <pt x="146" y="323" on="0"/>
        <pt x="114" y="361" on="0"/>
        <pt x="98" y="412" on="0"/>
      </contour>
      <contour>
        <pt x="123" y="442" on="1"/>
        <pt x="119" y="416" on="0"/>
        <pt x="132" y="372" on="0"/>
        <pt x="160" y="340" on="0"/>
        <pt x="201" y="321" on="0"/>
        <pt x="226" y="321" on="1"/>
        <pt x="251" y="321" on="0"/>
        <pt x="299" y="340" on="0"/>
        <pt x="336" y="372" on="0"/>
        <pt x="362" y="416" on="0"/>
        <pt x="365" y="442" on="1"/>
        <pt x="369" y="467" on="0"/>
        <pt x="356" y="511" on="0"/>
        <pt x="328" y="544" on="0"/>
        <pt x="286" y="563" on="0"/>
        <pt x="261" y="563" on="1"/>
        <pt x="235" y="563" on="0"/>
        <pt x="189" y="544" on="0"/>
        <pt x="151" y="511" on="0"/>
        <pt x="127" y="467" on="0"/>
      </contour>
    </TTGlyph>
    <TTGlyph name="ordmasculine" xMin="106" yMin="301" xMax="397" yMax="583">
      <contour>
        <pt x="110" y="442" on="1"/>
        <pt x="115" y="470" on="0"/>
        <pt x="144" y="522" on="0"/>
        <pt x="187" y="561" on="0"/>
        <pt x="241" y="583" on="0"/>
        <pt x="271" y="583" on="1"/>
        <pt x="300" y="583" on="0"/>
        <pt x="348" y="561" on="0"/>
        <pt x="382" y="522" on="0"/>
        <pt x="397" y="470" on="0"/>
        <pt x="393" y="442" on="1"/>
        <pt x="389" y="412" on="0"/>
        <pt x="360" y="361" on="0"/>
        <pt x="316" y="323" on="0"/>
        <pt x="261" y="301" on="0"/>
        <pt x="232" y="301" on="1"/>
        <pt x="202" y="301" on="0"/>
        <pt x="154" y="323" on="0"/>
        <pt x="121" y="361" on="0"/>
        <pt x="106" y="412" on="0"/>
      </contour>
      <contour>
        <pt x="131" y="442" on="1"/>
        <pt x="127" y="416" on="0"/>
        <pt x="139" y="372" on="0"/>
        <pt x="167" y="340" on="0"/>
        <pt x="209" y="321" on="0"/>
        <pt x="234" y="321" on="1"/>
        <pt x="258" y="321" on="0"/>
        <pt x="305" y="340" on="0"/>
        <pt x="343" y="372" on="0"/>
        <pt x="369" y="416" on="0"/>
        <pt x="372" y="442" on="1"/>
        <pt x="376" y="467" on="0"/>
        <pt x="363" y="511" on="0"/>
        <pt x="335" y="544" on="0"/>
        <pt x="293" y="563" on="0"/>
        <pt x="268" y="563" on="1"/>
        <pt x="242" y="563" on="0"/>
        <pt x="196" y="544" on="0"/>
        <pt x="159" y="511" on="0"/>
        <pt x="134" y="467" on="0"/>
      </contour>
    </TTGlyph>
    <TTGlyph name="oslash" xMin="53" yMin="-12" xMax="460" yMax="387">
      <contour>
        <pt x="90" y="188" on="1"/>
        <pt x="85" y="153" on="0"/>
        <pt x="102" y="94" on="0"/>
        <pt x="121" y="71" on="1"/>
        <pt x="184" y="135" on="0"/>
        <pt x="308" y="263" on="0"/>
        <pt x="371" y="327" on="1"/>
        <pt x="353" y="341" on="0"/>
        <pt x="307" y="356" on="0"/>
        <pt x="281" y="356" on="1"/>
        <pt x="246" y="356" on="0"/>
        <pt x="181" y="330" on="0"/>
        <pt x="129" y="284" on="0"/>
        <pt x="95" y="223" on="0"/>
      </contour>
      <contour>
        <pt x="234" y="21" on="1"/>
        <pt x="269" y="21" on="0"/>
        <pt x="334" y="47" on="0"/>
        <pt x="386" y="92" on="0"/>
        <pt x="421" y="153" on="0"/>
        <pt x="426" y="188" on="1"/>
        <pt x="431" y="226" on="0"/>
        <pt x="410" y="290" on="0"/>
        <pt x="387" y="313" on="1"/>
        <pt x="324" y="249" on="0"/>
        <pt x="198" y="121" on="0"/>
        <pt x="135" y="57" on="1"/>
        <pt x="174" y="21" on="0"/>
      </contour>
      <contour>
        <pt x="63" y="188" on="1"/>
        <pt x="69" y="228" on="0"/>
        <pt x="109" y="300" on="0"/>
        <pt x="169" y="352" on="0"/>
        <pt x="244" y="383" on="0"/>
        <pt x="285" y="383" on="1"/>
        <pt x="317" y="383" on="0"/>
        <pt x="371" y="365" on="0"/>
        <pt x="392" y="348" on="1"/>
        <pt x="401" y="358" on="0"/>
        <pt x="421" y="377" on="0"/>
        <pt x="430" y="387" on="1"/>
        <pt x="434" y="383" on="0"/>
        <pt x="441" y="376" on="0"/>
        <pt x="444" y="372" on="1"/>
        <pt x="407" y="335" on="1"/>
        <pt x="434" y="309" on="0"/>
        <pt x="460" y="232" on="0"/>
        <pt x="454" y="188" on="1"/>
        <pt x="448" y="147" on="0"/>
        <pt x="408" y="76" on="0"/>
        <pt x="348" y="24" on="0"/>
        <pt x="272" y="-7" on="0"/>
        <pt x="231" y="-7" on="1"/>
        <pt x="196" y="-7" on="0"/>
        <pt x="136" y="16" on="0"/>
        <pt x="114" y="36" on="1"/>
        <pt x="102" y="24" on="0"/>
        <pt x="79" y="0" on="0"/>
        <pt x="68" y="-12" on="1"/>
        <pt x="64" y="-8" on="0"/>
        <pt x="57" y="-2" on="0"/>
        <pt x="53" y="2" on="1"/>
        <pt x="65" y="15" on="0"/>
        <pt x="88" y="38" on="0"/>
        <pt x="99" y="50" on="1"/>
        <pt x="76" y="76" on="0"/>
        <pt x="57" y="147" on="0"/>
      </contour>
    </TTGlyph>
    <TTGlyph name="otilde" xMin="57" yMin="-7" xMax="461" yMax="543">
      <component glyphName="o" x="0" y="0" flags="0x204"/>
      <component glyphName="asciitilde" x="19" y="0" flags="0x4"/>
    </TTGlyph>
    <TTGlyph name="p" xMin="-2" yMin="-250" xMax="522" yMax="382">
      <contour>
        <pt x="1" y="-223" on="1"/>
        <pt x="66" y="-223" on="1"/>
        <pt x="147" y="348" on="1"/>
        <pt x="73" y="348" on="1"/>
        <pt x="77" y="375" on="1"/>
        <pt x="172" y="375" on="1"/>
        <pt x="169" y="349" on="0"/>
        <pt x="164" y="297" on="0"/>
        <pt x="160" y="271" on="1"/>
        <pt x="172" y="293" on="0"/>
        <pt x="211" y="334" on="0"/>
        <pt x="260" y="364" on="0"/>
        <pt x="317" y="382" on="0"/>
        <pt x="347" y="382" on="1"/>
        <pt x="388" y="382" on="0"/>
        <pt x="455" y="351" on="0"/>
        <pt x="501" y="299" on="0"/>
        <pt x="522" y="227" on="0"/>
        <pt x="516" y="187" on="1"/>
        <pt x="510" y="146" on="0"/>
        <pt x="469" y="75" on="0"/>
        <pt x="409" y="23" on="0"/>
        <pt x="333" y="-8" on="0"/>
        <pt x="292" y="-8" on="1"/>
        <pt x="231" y="-8" on="0"/>
        <pt x="149" y="55" on="0"/>
        <pt x="137" y="100" on="1"/>
        <pt x="136" y="88" on="0"/>
        <pt x="135" y="64" on="0"/>
        <pt x="134" y="53" on="1"/>
        <pt x="95" y="-223" on="1"/>
        <pt x="184" y="-223" on="1"/>
        <pt x="181" y="-250" on="1"/>
        <pt x="-2" y="-250" on="1"/>
      </contour>
      <contour>
        <pt x="488" y="187" on="1"/>
        <pt x="493" y="222" on="0"/>
        <pt x="475" y="283" on="0"/>
        <pt x="436" y="328" on="0"/>
        <pt x="379" y="354" on="0"/>
        <pt x="344" y="354" on="1"/>
        <pt x="309" y="354" on="0"/>
        <pt x="244" y="328" on="0"/>
        <pt x="192" y="283" on="0"/>
        <pt x="157" y="222" on="0"/>
        <pt x="152" y="187" on="1"/>
        <pt x="147" y="152" on="0"/>
        <pt x="164" y="91" on="0"/>
        <pt x="203" y="45" on="0"/>
        <pt x="261" y="19" on="0"/>
        <pt x="296" y="19" on="1"/>
        <pt x="331" y="19" on="0"/>
        <pt x="396" y="45" on="0"/>
        <pt x="448" y="91" on="0"/>
        <pt x="483" y="152" on="0"/>
      </contour>
    </TTGlyph>
    <TTGlyph name="paragraph" xMin="115" yMin="0" xMax="597" yMax="750">
      <contour>
        <pt x="229" y="0" on="1"/>
        <pt x="201" y="0" on="1"/>
        <pt x="260" y="423" on="1"/>
        <pt x="226" y="423" on="0"/>
        <pt x="170" y="448" on="0"/>
        <pt x="132" y="492" on="0"/>
        <pt x="115" y="552" on="0"/>
        <pt x="120" y="586" on="1"/>
        <pt x="125" y="620" on="0"/>
        <pt x="159" y="680" on="0"/>
        <pt x="209" y="724" on="0"/>
        <pt x="272" y="750" on="0"/>
        <pt x="306" y="750" on="1"/>
        <pt x="597" y="750" on="1"/>
        <pt x="593" y="725" on="1"/>
        <pt x="493" y="725" on="1"/>
        <pt x="394" y="25" on="1"/>
        <pt x="495" y="25" on="1"/>
        <pt x="492" y="0" on="1"/>
        <pt x="364" y="0" on="1"/>
        <pt x="465" y="725" on="1"/>
        <pt x="330" y="725" on="1"/>
      </contour>
    </TTGlyph>
    <TTGlyph name="parenleft" xMin="130" yMin="-163" xMax="383" yMax="747">
      <contour>
        <pt x="141" y="292" on="1"/>
        <pt x="151" y="367" on="0"/>
        <pt x="198" y="503" on="0"/>
        <pt x="261" y="619" on="0"/>
        <pt x="333" y="714" on="0"/>
        <pt x="369" y="747" on="1"/>
        <pt x="372" y="741" on="0"/>
        <pt x="379" y="730" on="0"/>
        <pt x="383" y="724" on="1"/>
        <pt x="350" y="691" on="0"/>
        <pt x="282" y="601" on="0"/>
        <pt x="223" y="491" on="0"/>
        <pt x="179" y="363" on="0"/>
        <pt x="169" y="292" on="1"/>
        <pt x="159" y="221" on="0"/>
        <pt x="167" y="93" on="0"/>
        <pt x="195" y="-17" on="0"/>
        <pt x="238" y="-107" on="0"/>
        <pt x="262" y="-140" on="1"/>
        <pt x="257" y="-146" on="0"/>
        <pt x="247" y="-157" on="0"/>
        <pt x="242" y="-163" on="1"/>
        <pt x="215" y="-130" on="0"/>
        <pt x="169" y="-35" on="0"/>
        <pt x="139" y="81" on="0"/>
        <pt x="130" y="217" on="0"/>
      </contour>
    </TTGlyph>
    <TTGlyph name="parenright" xMin="43" yMin="-164" xMax="296" yMax="746">
      <contour>
        <pt x="286" y="291" on="1"/>
        <pt x="275" y="216" on="0"/>
        <pt x="228" y="80" on="0"/>
        <pt x="165" y="-36" on="0"/>
        <pt x="93" y="-131" on="0"/>
        <pt x="57" y="-164" on="1"/>
        <pt x="53" y="-158" on="0"/>
        <pt x="46" y="-147" on="0"/>
        <pt x="43" y="-141" on="1"/>
        <pt x="76" y="-108" on="0"/>
        <pt x="144" y="-18" on="0"/>
        <pt x="203" y="92" on="0"/>
        <pt x="247" y="220" on="0"/>
        <pt x="257" y="291" on="1"/>
        <pt x="267" y="362" on="0"/>
        <pt x="259" y="490" on="0"/>
        <pt x="231" y="600" on="0"/>
        <pt x="188" y="690" on="0"/>
        <pt x="164" y="723" on="1"/>
        <pt x="169" y="729" on="0"/>
        <pt x="179" y="740" on="0"/>
        <pt x="184" y="746" on="1"/>
        <pt x="211" y="713" on="0"/>
        <pt x="257" y="618" on="0"/>
        <pt x="287" y="502" on="0"/>
        <pt x="296" y="366" on="0"/>
      </contour>
    </TTGlyph>
    <TTGlyph name="percent" xMin="120" yMin="0" xMax="619" yMax="501">
      <contour>
        <pt x="416" y="112" on="1"/>
        <pt x="414" y="94" on="0"/>
        <pt x="423" y="63" on="0"/>
        <pt x="443" y="40" on="0"/>
        <pt x="472" y="27" on="0"/>
        <pt x="490" y="27" on="1"/>
        <pt x="508" y="27" on="0"/>
        <pt x="541" y="40" on="0"/>
        <pt x="568" y="63" on="0"/>
        <pt x="585" y="94" on="0"/>
        <pt x="588" y="112" on="1"/>
        <pt x="592" y="147" on="0"/>
        <pt x="549" y="197" on="0"/>
        <pt x="514" y="197" on="1"/>
        <pt x="496" y="197" on="0"/>
        <pt x="463" y="184" on="0"/>
        <pt x="436" y="161" on="0"/>
        <pt x="419" y="130" on="0"/>
      </contour>
      <contour>
        <pt x="486" y="0" on="1"/>
        <pt x="463" y="0" on="0"/>
        <pt x="424" y="18" on="0"/>
        <pt x="397" y="48" on="0"/>
        <pt x="385" y="89" on="0"/>
        <pt x="388" y="113" on="1"/>
        <pt x="392" y="136" on="0"/>
        <pt x="416" y="177" on="0"/>
        <pt x="451" y="207" on="0"/>
        <pt x="495" y="224" on="0"/>
        <pt x="518" y="224" on="1"/>
        <pt x="541" y="224" on="0"/>
        <pt x="580" y="207" on="0"/>
        <pt x="607" y="177" on="0"/>
        <pt x="619" y="136" on="0"/>
        <pt x="616" y="113" on="1"/>
        <pt x="613" y="89" on="0"/>
        <pt x="588" y="48" on="0"/>
        <pt x="553" y="18" on="0"/>
        <pt x="509" y="0" on="0"/>
      </contour>
      <contour>
        <pt x="151" y="388" on="1"/>
        <pt x="149" y="370" on="0"/>
        <pt x="158" y="340" on="0"/>
        <pt x="178" y="317" on="0"/>
        <pt x="207" y="304" on="0"/>
        <pt x="225" y="304" on="1"/>
        <pt x="243" y="304" on="0"/>
        <pt x="276" y="317" on="0"/>
        <pt x="303" y="340" on="0"/>
        <pt x="320" y="370" on="0"/>
        <pt x="323" y="388" on="1"/>
        <pt x="327" y="423" on="0"/>
        <pt x="284" y="473" on="0"/>
        <pt x="249" y="473" on="1"/>
        <pt x="231" y="473" on="0"/>
        <pt x="198" y="460" on="0"/>
        <pt x="171" y="437" on="0"/>
        <pt x="154" y="406" on="0"/>
      </contour>
      <contour>
        <pt x="221" y="276" on="1"/>
        <pt x="198" y="276" on="0"/>
        <pt x="159" y="294" on="0"/>
        <pt x="132" y="324" on="0"/>
        <pt x="120" y="365" on="0"/>
        <pt x="123" y="389" on="1"/>
        <pt x="126" y="412" on="0"/>
        <pt x="150" y="453" on="0"/>
        <pt x="186" y="483" on="0"/>
        <pt x="230" y="501" on="0"/>
        <pt x="253" y="501" on="1"/>
        <pt x="276" y="501" on="0"/>
        <pt x="314" y="483" on="0"/>
        <pt x="341" y="453" on="0"/>
        <pt x="354" y="412" on="0"/>
        <pt x="351" y="389" on="1"/>
        <pt x="347" y="365" on="0"/>
        <pt x="323" y="324" on="0"/>
        <pt x="287" y="294" on="0"/>
        <pt x="244" y="276" on="0"/>
      </contour>
      <contour>
        <pt x="165" y="0" on="1"/>
        <pt x="258" y="126" on="0"/>
        <pt x="441" y="374" on="0"/>
        <pt x="534" y="500" on="1"/>
        <pt x="565" y="500" on="1"/>
        <pt x="472" y="374" on="0"/>
        <pt x="289" y="126" on="0"/>
        <pt x="196" y="0" on="1"/>
      </contour>
    </TTGlyph>
    <TTGlyph name="period" xMin="57" yMin="0" xMax="114" yMax="53">
      <contour>
        <pt x="59" y="26" on="1"/>
        <pt x="61" y="37" on="0"/>
        <pt x="78" y="53" on="0"/>
        <pt x="89" y="53" on="1"/>
        <pt x="100" y="53" on="0"/>
        <pt x="114" y="37" on="0"/>
        <pt x="112" y="26" on="1"/>
        <pt x="110" y="15" on="0"/>
        <pt x="93" y="0" on="0"/>
        <pt x="82" y="0" on="1"/>
        <pt x="71" y="0" on="0"/>
        <pt x="57" y="15" on="0"/>
      </contour>
    </TTGlyph>
    <TTGlyph name="periodcentered" xMin="57" yMin="254" xMax="114" yMax="307">
      <contour>
        <pt x="59" y="280" on="1"/>
        <pt x="61" y="291" on="0"/>
        <pt x="78" y="307" on="0"/>
        <pt x="89" y="307" on="1"/>
        <pt x="100" y="307" on="0"/>
        <pt x="114" y="291" on="0"/>
        <pt x="112" y="280" on="1"/>
        <pt x="110" y="269" on="0"/>
        <pt x="93" y="254" on="0"/>
        <pt x="82" y="254" on="1"/>
        <pt x="71" y="254" on="0"/>
        <pt x="57" y="269" on="0"/>
      </contour>
    </TTGlyph>
    <TTGlyph name="plus" xMin="84" yMin="51" xMax="448" yMax="411">
      <contour>
        <pt x="226" y="51" on="1"/>
        <pt x="250" y="218" on="1"/>
        <pt x="84" y="218" on="1"/>
        <pt x="88" y="245" on="1"/>
        <pt x="254" y="245" on="1"/>
        <pt x="277" y="411" on="1"/>
        <pt x="305" y="411" on="1"/>
        <pt x="282" y="245" on="1"/>
        <pt x="448" y="245" on="1"/>
        <pt x="444" y="218" on="1"/>
        <pt x="278" y="218" on="1"/>
        <pt x="254" y="51" on="1"/>
      </contour>
    </TTGlyph>
    <TTGlyph name="plusminus" xMin="86" yMin="129" xMax="484" yMax="571">
      <contour>
        <pt x="263" y="211" on="1"/>
        <pt x="286" y="378" on="1"/>
        <pt x="120" y="378" on="1"/>
        <pt x="124" y="405" on="1"/>
        <pt x="290" y="405" on="1"/>
        <pt x="314" y="571" on="1"/>
        <pt x="342" y="571" on="1"/>
        <pt x="318" y="405" on="1"/>
        <pt x="484" y="405" on="1"/>
        <pt x="480" y="378" on="1"/>
        <pt x="314" y="378" on="1"/>
        <pt x="291" y="211" on="1"/>
      </contour>
      <contour>
        <pt x="446" y="129" on="1"/>
        <pt x="86" y="129" on="1"/>
        <pt x="89" y="156" on="1"/>
        <pt x="449" y="156" on="1"/>
      </contour>
    </TTGlyph>
    <TTGlyph name="q" xMin="90" yMin="-250" xMax="588" yMax="382">
      <contour>
        <pt x="315" y="-223" on="1"/>
        <pt x="401" y="-223" on="1"/>
        <pt x="440" y="53" on="1"/>
        <pt x="442" y="64" on="0"/>
        <pt x="447" y="88" on="0"/>
        <pt x="449" y="100" on="1"/>
        <pt x="437" y="77" on="0"/>
        <pt x="399" y="38" on="0"/>
        <pt x="351" y="9" on="0"/>
        <pt x="294" y="-8" on="0"/>
        <pt x="264" y="-8" on="1"/>
        <pt x="223" y="-8" on="0"/>
        <pt x="156" y="23" on="0"/>
        <pt x="111" y="75" on="0"/>
        <pt x="90" y="146" on="0"/>
        <pt x="96" y="187" on="1"/>
        <pt x="102" y="227" on="0"/>
        <pt x="142" y="299" on="0"/>
        <pt x="202" y="351" on="0"/>
        <pt x="278" y="382" on="0"/>
        <pt x="319" y="382" on="1"/>
        <pt x="349" y="382" on="0"/>
        <pt x="401" y="364" on="0"/>
        <pt x="441" y="334" on="0"/>
        <pt x="468" y="293" on="0"/>
        <pt x="474" y="271" on="1"/>
        <pt x="478" y="297" on="0"/>
        <pt x="488" y="349" on="0"/>
        <pt x="492" y="375" on="1"/>
        <pt x="588" y="375" on="1"/>
        <pt x="584" y="348" on="1"/>
        <pt x="510" y="348" on="1"/>
        <pt x="429" y="-223" on="1"/>
        <pt x="499" y="-223" on="1"/>
        <pt x="496" y="-250" on="1"/>
        <pt x="312" y="-250" on="1"/>
      </contour>
      <contour>
        <pt x="124" y="187" on="1"/>
        <pt x="119" y="152" on="0"/>
        <pt x="136" y="91" on="0"/>
        <pt x="175" y="45" on="0"/>
        <pt x="232" y="19" on="0"/>
        <pt x="267" y="19" on="1"/>
        <pt x="302" y="19" on="0"/>
        <pt x="368" y="45" on="0"/>
        <pt x="420" y="91" on="0"/>
        <pt x="455" y="152" on="0"/>
        <pt x="460" y="187" on="1"/>
        <pt x="465" y="222" on="0"/>
        <pt x="447" y="283" on="0"/>
        <pt x="408" y="328" on="0"/>
        <pt x="350" y="354" on="0"/>
        <pt x="315" y="354" on="1"/>
        <pt x="280" y="354" on="0"/>
        <pt x="215" y="328" on="0"/>
        <pt x="163" y="283" on="0"/>
        <pt x="129" y="222" on="0"/>
      </contour>
    </TTGlyph>
    <TTGlyph name="question" xMin="63" yMin="20" xMax="445" yMax="732">
      <contour>
        <pt x="87" y="587" on="1"/>
        <pt x="81" y="589" on="0"/>
        <pt x="69" y="593" on="0"/>
        <pt x="63" y="595" on="1"/>
        <pt x="76" y="622" on="0"/>
        <pt x="117" y="672" on="0"/>
        <pt x="170" y="710" on="0"/>
        <pt x="234" y="732" on="0"/>
        <pt x="270" y="732" on="1"/>
        <pt x="311" y="732" on="0"/>
        <pt x="379" y="701" on="0"/>
        <pt x="424" y="648" on="0"/>
        <pt x="445" y="577" on="0"/>
        <pt x="439" y="537" on="1"/>
        <pt x="431" y="483" on="0"/>
        <pt x="367" y="401" on="0"/>
        <pt x="317" y="369" on="1"/>
        <pt x="297" y="355" on="0"/>
        <pt x="261" y="336" on="0"/>
        <pt x="232" y="311" on="0"/>
        <pt x="212" y="274" on="0"/>
        <pt x="207" y="242" on="1"/>
        <pt x="196" y="164" on="1"/>
        <pt x="168" y="164" on="1"/>
        <pt x="182" y="261" on="1"/>
        <pt x="186" y="292" on="0"/>
        <pt x="214" y="330" on="0"/>
        <pt x="255" y="360" on="0"/>
        <pt x="305" y="387" on="0"/>
        <pt x="332" y="408" on="1"/>
        <pt x="367" y="435" on="0"/>
        <pt x="406" y="500" on="0"/>
        <pt x="411" y="537" on="1"/>
        <pt x="416" y="573" on="0"/>
        <pt x="399" y="634" on="0"/>
        <pt x="360" y="679" on="0"/>
        <pt x="302" y="705" on="0"/>
        <pt x="267" y="705" on="1"/>
        <pt x="208" y="705" on="0"/>
        <pt x="111" y="641" on="0"/>
      </contour>
      <contour>
        <pt x="162" y="20" on="1"/>
        <pt x="153" y="20" on="0"/>
        <pt x="139" y="35" on="0"/>
        <pt x="141" y="46" on="1"/>
        <pt x="142" y="58" on="0"/>
        <pt x="160" y="73" on="0"/>
        <pt x="169" y="73" on="1"/>
        <pt x="179" y="73" on="0"/>
        <pt x="194" y="58" on="0"/>
        <pt x="192" y="46" on="1"/>
        <pt x="190" y="35" on="0"/>
        <pt x="172" y="20" on="0"/>
      </contour>
    </TTGlyph>
    <TTGlyph name="questiondown" xMin="8" yMin="-193" xMax="390" yMax="519">
      <component glyphName="question" x="453" y="539" scale="-0.999877929688" flags="0x4"/>
    </TTGlyph>
    <TTGlyph name="quotedbl" xMin="45" yMin="472" xMax="244" yMax="720">
      <contour>
        <pt x="178" y="472" on="1"/>
        <pt x="213" y="720" on="1"/>
        <pt x="244" y="720" on="1"/>
        <pt x="234" y="657" on="0"/>
        <pt x="215" y="535" on="0"/>
        <pt x="205" y="472" on="1"/>
      </contour>
      <contour>
        <pt x="45" y="472" on="1"/>
        <pt x="80" y="720" on="1"/>
        <pt x="111" y="720" on="1"/>
        <pt x="101" y="657" on="0"/>
        <pt x="82" y="535" on="0"/>
        <pt x="72" y="472" on="1"/>
      </contour>
    </TTGlyph>
    <TTGlyph name="quotedblbase" xMin="22" yMin="-48" xMax="204" yMax="92">
      <contour>
        <pt x="33" y="-48" on="1"/>
        <pt x="27" y="-39" on="0"/>
        <pt x="22" y="-29" on="1"/>
        <pt x="46" y="-9" on="0"/>
        <pt x="73" y="50" on="0"/>
        <pt x="71" y="85" on="1"/>
        <pt x="77" y="87" on="0"/>
        <pt x="91" y="90" on="0"/>
        <pt x="98" y="92" on="1"/>
        <pt x="100" y="52" on="0"/>
        <pt x="65" y="-22" on="0"/>
      </contour>
      <contour>
        <pt x="137" y="-48" on="1"/>
        <pt x="131" y="-39" on="0"/>
        <pt x="126" y="-29" on="1"/>
        <pt x="150" y="-9" on="0"/>
        <pt x="177" y="50" on="0"/>
        <pt x="175" y="85" on="1"/>
        <pt x="181" y="87" on="0"/>
        <pt x="195" y="90" on="0"/>
        <pt x="202" y="92" on="1"/>
        <pt x="204" y="52" on="0"/>
        <pt x="169" y="-22" on="0"/>
      </contour>
    </TTGlyph>
    <TTGlyph name="quotedblleft" xMin="36" yMin="571" xMax="196" yMax="711">
      <contour>
        <pt x="196" y="590" on="1"/>
        <pt x="191" y="585" on="0"/>
        <pt x="184" y="576" on="0"/>
        <pt x="181" y="571" on="1"/>
        <pt x="155" y="597" on="0"/>
        <pt x="140" y="671" on="0"/>
        <pt x="154" y="711" on="1"/>
        <pt x="160" y="709" on="0"/>
        <pt x="173" y="706" on="0"/>
        <pt x="179" y="704" on="1"/>
        <pt x="168" y="669" on="0"/>
        <pt x="178" y="610" on="0"/>
      </contour>
      <contour>
        <pt x="92" y="590" on="1"/>
        <pt x="87" y="585" on="0"/>
        <pt x="80" y="576" on="0"/>
        <pt x="77" y="571" on="1"/>
        <pt x="51" y="597" on="0"/>
        <pt x="36" y="671" on="0"/>
        <pt x="50" y="711" on="1"/>
        <pt x="56" y="709" on="0"/>
        <pt x="69" y="706" on="0"/>
        <pt x="75" y="704" on="1"/>
        <pt x="64" y="669" on="0"/>
        <pt x="74" y="610" on="0"/>
      </contour>
    </TTGlyph>
    <TTGlyph name="quotedblright" xMin="40" yMin="571" xMax="222" yMax="711">
      <contour>
        <pt x="50" y="571" on="1"/>
        <pt x="47" y="576" on="0"/>
        <pt x="42" y="585" on="0"/>
        <pt x="40" y="590" on="1"/>
        <pt x="64" y="610" on="0"/>
        <pt x="91" y="669" on="0"/>
        <pt x="89" y="704" on="1"/>
        <pt x="95" y="706" on="0"/>
        <pt x="109" y="709" on="0"/>
        <pt x="115" y="711" on="1"/>
        <pt x="118" y="671" on="0"/>
        <pt x="82" y="597" on="0"/>
      </contour>
      <contour>
        <pt x="154" y="571" on="1"/>
        <pt x="151" y="576" on="0"/>
        <pt x="146" y="585" on="0"/>
        <pt x="144" y="590" on="1"/>
        <pt x="168" y="610" on="0"/>
        <pt x="195" y="669" on="0"/>
        <pt x="193" y="704" on="1"/>
        <pt x="199" y="706" on="0"/>
        <pt x="213" y="709" on="0"/>
        <pt x="219" y="711" on="1"/>
        <pt x="222" y="671" on="0"/>
        <pt x="186" y="597" on="0"/>
      </contour>
    </TTGlyph>
    <TTGlyph name="quoteleft" xMin="43" yMin="571" xMax="99" yMax="711">
      <contour>
        <pt x="99" y="590" on="1"/>
        <pt x="95" y="585" on="0"/>
        <pt x="87" y="576" on="0"/>
        <pt x="84" y="571" on="1"/>
        <pt x="58" y="597" on="0"/>
        <pt x="43" y="671" on="0"/>
        <pt x="57" y="711" on="1"/>
        <pt x="64" y="709" on="0"/>
        <pt x="76" y="706" on="0"/>
        <pt x="82" y="704" on="1"/>
        <pt x="71" y="669" on="0"/>
        <pt x="81" y="610" on="0"/>
      </contour>
    </TTGlyph>
    <TTGlyph name="quoteright" xMin="56" yMin="571" xMax="135" yMax="711">
      <contour>
        <pt x="67" y="571" on="1"/>
        <pt x="64" y="576" on="0"/>
        <pt x="59" y="585" on="0"/>
        <pt x="56" y="590" on="1"/>
        <pt x="80" y="610" on="0"/>
        <pt x="107" y="669" on="0"/>
        <pt x="105" y="704" on="1"/>
        <pt x="112" y="706" on="0"/>
        <pt x="126" y="709" on="0"/>
        <pt x="132" y="711" on="1"/>
        <pt x="135" y="671" on="0"/>
        <pt x="99" y="597" on="0"/>
      </contour>
    </TTGlyph>
    <TTGlyph name="quotesinglbase" xMin="22" yMin="-48" xMax="100" yMax="92">
      <contour>
        <pt x="33" y="-48" on="1"/>
        <pt x="27" y="-39" on="0"/>
        <pt x="22" y="-29" on="1"/>
        <pt x="46" y="-9" on="0"/>
        <pt x="73" y="50" on="0"/>
        <pt x="71" y="85" on="1"/>
        <pt x="77" y="87" on="0"/>
        <pt x="91" y="90" on="0"/>
        <pt x="98" y="92" on="1"/>
        <pt x="100" y="52" on="0"/>
        <pt x="65" y="-22" on="0"/>
      </contour>
    </TTGlyph>
    <TTGlyph name="quotesingle" xMin="44" yMin="472" xMax="110" yMax="720">
      <contour>
        <pt x="44" y="472" on="1"/>
        <pt x="79" y="720" on="1"/>
        <pt x="110" y="720" on="1"/>
        <pt x="100" y="657" on="0"/>
        <pt x="81" y="535" on="0"/>
        <pt x="71" y="472" on="1"/>
      </contour>
    </TTGlyph>
    <TTGlyph name="r" xMin="35" yMin="0" xMax="353" yMax="382">
      <contour>
        <pt x="38" y="27" on="1"/>
        <pt x="116" y="27" on="1"/>
        <pt x="162" y="348" on="1"/>
        <pt x="88" y="348" on="1"/>
        <pt x="92" y="375" on="1"/>
        <pt x="186" y="375" on="1"/>
        <pt x="182" y="331" on="1"/>
        <pt x="180" y="316" on="0"/>
        <pt x="178" y="292" on="0"/>
        <pt x="176" y="277" on="1"/>
        <pt x="205" y="326" on="0"/>
        <pt x="302" y="381" on="0"/>
        <pt x="353" y="382" on="1"/>
        <pt x="348" y="355" on="1"/>
        <pt x="316" y="354" on="0"/>
        <pt x="255" y="332" on="0"/>
        <pt x="207" y="294" on="0"/>
        <pt x="174" y="242" on="0"/>
        <pt x="170" y="212" on="1"/>
        <pt x="144" y="27" on="1"/>
        <pt x="222" y="27" on="1"/>
        <pt x="219" y="0" on="1"/>
        <pt x="35" y="0" on="1"/>
      </contour>
    </TTGlyph>
    <TTGlyph name="registered" xMin="171" yMin="117" xMax="700" yMax="628">
      <contour>
        <pt x="401" y="135" on="1"/>
        <pt x="450" y="135" on="0"/>
        <pt x="543" y="171" on="0"/>
        <pt x="616" y="234" on="0"/>
        <pt x="666" y="321" on="0"/>
        <pt x="673" y="371" on="1"/>
        <pt x="680" y="423" on="0"/>
        <pt x="655" y="510" on="0"/>
        <pt x="599" y="574" on="0"/>
        <pt x="517" y="610" on="0"/>
        <pt x="468" y="610" on="1"/>
        <pt x="419" y="610" on="0"/>
        <pt x="328" y="574" on="0"/>
        <pt x="255" y="510" on="0"/>
        <pt x="205" y="423" on="0"/>
        <pt x="198" y="371" on="1"/>
        <pt x="191" y="321" on="0"/>
        <pt x="216" y="234" on="0"/>
        <pt x="271" y="171" on="0"/>
        <pt x="352" y="135" on="0"/>
      </contour>
      <contour>
        <pt x="400" y="117" on="1"/>
        <pt x="346" y="117" on="0"/>
        <pt x="258" y="155" on="0"/>
        <pt x="198" y="223" on="0"/>
        <pt x="171" y="317" on="0"/>
        <pt x="179" y="372" on="1"/>
        <pt x="187" y="427" on="0"/>
        <pt x="240" y="521" on="0"/>
        <pt x="318" y="590" on="0"/>
        <pt x="417" y="628" on="0"/>
        <pt x="471" y="628" on="1"/>
        <pt x="525" y="628" on="0"/>
        <pt x="613" y="590" on="0"/>
        <pt x="673" y="521" on="0"/>
        <pt x="700" y="427" on="0"/>
        <pt x="692" y="372" on="1"/>
        <pt x="684" y="317" on="0"/>
        <pt x="632" y="223" on="0"/>
        <pt x="553" y="155" on="0"/>
        <pt x="454" y="117" on="0"/>
      </contour>
      <contour>
        <pt x="312" y="223" on="1"/>
        <pt x="343" y="223" on="1"/>
        <pt x="386" y="528" on="1"/>
        <pt x="355" y="528" on="1"/>
        <pt x="357" y="541" on="1"/>
        <pt x="456" y="541" on="1"/>
        <pt x="470" y="541" on="0"/>
        <pt x="503" y="532" on="0"/>
        <pt x="530" y="511" on="0"/>
        <pt x="545" y="479" on="0"/>
        <pt x="542" y="456" on="1"/>
        <pt x="537" y="422" on="0"/>
        <pt x="495" y="378" on="0"/>
        <pt x="459" y="371" on="1"/>
        <pt x="507" y="223" on="1"/>
        <pt x="548" y="223" on="1"/>
        <pt x="547" y="210" on="1"/>
        <pt x="499" y="210" on="1"/>
        <pt x="445" y="370" on="1"/>
        <pt x="440" y="369" on="0"/>
        <pt x="428" y="368" on="0"/>
        <pt x="423" y="368" on="1"/>
        <pt x="377" y="368" on="1"/>
        <pt x="356" y="223" on="1"/>
        <pt x="401" y="223" on="1"/>
        <pt x="399" y="210" on="1"/>
        <pt x="311" y="210" on="1"/>
      </contour>
      <contour>
        <pt x="379" y="381" on="1"/>
        <pt x="430" y="381" on="1"/>
        <pt x="456" y="381" on="0"/>
        <pt x="493" y="395" on="0"/>
        <pt x="516" y="418" on="0"/>
        <pt x="527" y="444" on="0"/>
        <pt x="529" y="456" on="1"/>
        <pt x="533" y="485" on="0"/>
        <pt x="489" y="528" on="0"/>
        <pt x="451" y="528" on="1"/>
        <pt x="399" y="528" on="1"/>
      </contour>
    </TTGlyph>
    <TTGlyph name="s" xMin="58" yMin="-8" xMax="322" yMax="380">
      <contour>
        <pt x="93" y="97" on="1"/>
        <pt x="86" y="42" on="1"/>
        <pt x="104" y="27" on="0"/>
        <pt x="152" y="19" on="0"/>
        <pt x="175" y="19" on="1"/>
        <pt x="187" y="19" on="0"/>
        <pt x="219" y="29" on="0"/>
        <pt x="248" y="49" on="0"/>
        <pt x="271" y="79" on="0"/>
        <pt x="274" y="100" on="1"/>
        <pt x="278" y="128" on="0"/>
        <pt x="254" y="159" on="0"/>
        <pt x="214" y="178" on="0"/>
        <pt x="166" y="191" on="0"/>
        <pt x="126" y="211" on="0"/>
        <pt x="102" y="246" on="0"/>
        <pt x="107" y="278" on="1"/>
        <pt x="110" y="303" on="0"/>
        <pt x="134" y="341" on="0"/>
        <pt x="168" y="367" on="0"/>
        <pt x="207" y="380" on="0"/>
        <pt x="226" y="380" on="1"/>
        <pt x="228" y="380" on="0"/>
        <pt x="252" y="379" on="0"/>
        <pt x="282" y="373" on="0"/>
        <pt x="313" y="360" on="0"/>
        <pt x="322" y="348" on="1"/>
        <pt x="312" y="278" on="1"/>
        <pt x="286" y="278" on="1"/>
        <pt x="294" y="334" on="1"/>
        <pt x="287" y="341" on="0"/>
        <pt x="264" y="349" on="0"/>
        <pt x="242" y="352" on="0"/>
        <pt x="224" y="353" on="0"/>
        <pt x="221" y="353" on="1"/>
        <pt x="209" y="353" on="0"/>
        <pt x="181" y="345" on="0"/>
        <pt x="156" y="329" on="0"/>
        <pt x="138" y="301" on="0"/>
        <pt x="135" y="282" on="1"/>
        <pt x="132" y="256" on="0"/>
        <pt x="156" y="228" on="0"/>
        <pt x="197" y="210" on="0"/>
        <pt x="244" y="196" on="0"/>
        <pt x="284" y="173" on="0"/>
        <pt x="307" y="136" on="0"/>
        <pt x="303" y="103" on="1"/>
        <pt x="300" y="85" on="0"/>
        <pt x="281" y="46" on="0"/>
        <pt x="248" y="13" on="0"/>
        <pt x="200" y="-8" on="0"/>
        <pt x="169" y="-8" on="1"/>
        <pt x="161" y="-8" on="0"/>
        <pt x="133" y="-6" on="0"/>
        <pt x="100" y="2" on="0"/>
        <pt x="68" y="15" on="0"/>
        <pt x="58" y="27" on="1"/>
        <pt x="67" y="97" on="1"/>
      </contour>
    </TTGlyph>
    <TTGlyph name="section" xMin="191" yMin="-18" xMax="429" yMax="736">
      <contour>
        <pt x="225" y="321" on="1"/>
        <pt x="233" y="294" on="0"/>
        <pt x="279" y="267" on="0"/>
        <pt x="308" y="269" on="1"/>
        <pt x="327" y="270" on="0"/>
        <pt x="361" y="289" on="0"/>
        <pt x="386" y="317" on="0"/>
        <pt x="401" y="351" on="0"/>
        <pt x="401" y="369" on="1"/>
        <pt x="401" y="389" on="0"/>
        <pt x="387" y="421" on="0"/>
        <pt x="362" y="443" on="0"/>
        <pt x="330" y="453" on="0"/>
        <pt x="312" y="452" on="1"/>
        <pt x="286" y="450" on="0"/>
        <pt x="247" y="423" on="0"/>
        <pt x="224" y="385" on="0"/>
        <pt x="218" y="341" on="0"/>
      </contour>
      <contour>
        <pt x="266" y="153" on="1"/>
        <pt x="244" y="201" on="0"/>
        <pt x="214" y="269" on="0"/>
        <pt x="201" y="300" on="1"/>
        <pt x="191" y="321" on="0"/>
        <pt x="191" y="367" on="0"/>
        <pt x="208" y="411" on="0"/>
        <pt x="239" y="449" on="0"/>
        <pt x="261" y="462" on="1"/>
        <pt x="287" y="476" on="0"/>
        <pt x="343" y="476" on="0"/>
        <pt x="366" y="465" on="1"/>
        <pt x="354" y="490" on="0"/>
        <pt x="332" y="541" on="0"/>
        <pt x="321" y="567" on="1"/>
        <pt x="310" y="593" on="0"/>
        <pt x="302" y="631" on="0"/>
        <pt x="304" y="659" on="0"/>
        <pt x="315" y="680" on="0"/>
        <pt x="323" y="688" on="1"/>
        <pt x="337" y="703" on="0"/>
        <pt x="384" y="727" on="0"/>
        <pt x="403" y="736" on="1"/>
        <pt x="405" y="731" on="0"/>
        <pt x="410" y="719" on="0"/>
        <pt x="413" y="713" on="1"/>
        <pt x="399" y="705" on="0"/>
        <pt x="375" y="693" on="0"/>
        <pt x="361" y="685" on="1"/>
        <pt x="333" y="670" on="0"/>
        <pt x="331" y="619" on="0"/>
        <pt x="352" y="569" on="1"/>
        <pt x="353" y="569" on="1"/>
        <pt x="370" y="531" on="0"/>
        <pt x="402" y="456" on="0"/>
        <pt x="419" y="418" on="1"/>
        <pt x="429" y="397" on="0"/>
        <pt x="428" y="352" on="0"/>
        <pt x="412" y="308" on="0"/>
        <pt x="380" y="271" on="0"/>
        <pt x="358" y="258" on="1"/>
        <pt x="332" y="243" on="0"/>
        <pt x="276" y="242" on="0"/>
        <pt x="253" y="254" on="1"/>
        <pt x="298" y="152" on="1"/>
        <pt x="320" y="100" on="0"/>
        <pt x="313" y="46" on="0"/>
        <pt x="297" y="30" on="1"/>
        <pt x="283" y="14" on="0"/>
        <pt x="236" y="-9" on="0"/>
        <pt x="218" y="-18" on="1"/>
        <pt x="216" y="-12" on="0"/>
        <pt x="210" y="0" on="0"/>
        <pt x="207" y="6" on="1"/>
        <pt x="221" y="13" on="0"/>
        <pt x="245" y="26" on="0"/>
        <pt x="259" y="33" on="1"/>
        <pt x="287" y="48" on="0"/>
        <pt x="289" y="101" on="0"/>
      </contour>
    </TTGlyph>
    <TTGlyph name="semicolon" xMin="-22" yMin="-120" xMax="163" yMax="303">
      <contour>
        <pt x="109" y="276" on="1"/>
        <pt x="111" y="287" on="0"/>
        <pt x="128" y="303" on="0"/>
        <pt x="139" y="303" on="1"/>
        <pt x="149" y="303" on="0"/>
        <pt x="163" y="287" on="0"/>
        <pt x="162" y="276" on="1"/>
        <pt x="160" y="265" on="0"/>
        <pt x="142" y="250" on="0"/>
        <pt x="132" y="250" on="1"/>
        <pt x="121" y="250" on="0"/>
        <pt x="107" y="265" on="0"/>
      </contour>
      <contour>
        <pt x="118" y="86" on="1"/>
        <pt x="89" y="34" on="0"/>
        <pt x="33" y="-68" on="0"/>
        <pt x="4" y="-120" on="1"/>
        <pt x="-22" y="-120" on="1"/>
        <pt x="4" y="-68" on="0"/>
        <pt x="56" y="34" on="0"/>
        <pt x="83" y="86" on="1"/>
      </contour>
    </TTGlyph>
    <TTGlyph name="seven" xMin="46" yMin="0" xMax="462" yMax="650">
      <contour>
        <pt x="462" y="650" on="1"/>
        <pt x="79" y="0" on="1"/>
        <pt x="46" y="0" on="1"/>
        <pt x="414" y="622" on="1"/>
        <pt x="82" y="622" on="1"/>
        <pt x="74" y="559" on="1"/>
        <pt x="47" y="559" on="1"/>
        <pt x="59" y="650" on="1"/>
      </contour>
    </TTGlyph>
    <TTGlyph name="six" xMin="27" yMin="-8" xMax="453" yMax="634">
      <contour>
        <pt x="61" y="196" on="1"/>
        <pt x="55" y="159" on="0"/>
        <pt x="74" y="95" on="0"/>
        <pt x="115" y="47" on="0"/>
        <pt x="176" y="19" on="0"/>
        <pt x="213" y="19" on="1"/>
        <pt x="250" y="19" on="0"/>
        <pt x="320" y="47" on="0"/>
        <pt x="376" y="95" on="0"/>
        <pt x="414" y="159" on="0"/>
        <pt x="419" y="196" on="1"/>
        <pt x="424" y="233" on="0"/>
        <pt x="404" y="297" on="0"/>
        <pt x="362" y="345" on="0"/>
        <pt x="300" y="373" on="0"/>
        <pt x="263" y="373" on="1"/>
        <pt x="226" y="373" on="0"/>
        <pt x="158" y="345" on="0"/>
        <pt x="103" y="297" on="0"/>
        <pt x="66" y="233" on="0"/>
      </contour>
      <contour>
        <pt x="33" y="194" on="1"/>
        <pt x="43" y="266" on="0"/>
        <pt x="122" y="391" on="0"/>
        <pt x="233" y="500" on="0"/>
        <pt x="364" y="593" on="0"/>
        <pt x="426" y="634" on="1"/>
        <pt x="430" y="628" on="0"/>
        <pt x="437" y="616" on="0"/>
        <pt x="441" y="611" on="1"/>
        <pt x="310" y="531" on="0"/>
        <pt x="157" y="387" on="0"/>
        <pt x="125" y="336" on="1"/>
        <pt x="152" y="365" on="0"/>
        <pt x="226" y="401" on="0"/>
        <pt x="268" y="401" on="1"/>
        <pt x="311" y="401" on="0"/>
        <pt x="382" y="369" on="0"/>
        <pt x="430" y="313" on="0"/>
        <pt x="453" y="238" on="0"/>
        <pt x="447" y="196" on="1"/>
        <pt x="441" y="154" on="0"/>
        <pt x="397" y="80" on="0"/>
        <pt x="333" y="24" on="0"/>
        <pt x="253" y="-8" on="0"/>
        <pt x="210" y="-8" on="1"/>
        <pt x="168" y="-8" on="0"/>
        <pt x="97" y="24" on="0"/>
        <pt x="49" y="78" on="0"/>
        <pt x="27" y="152" on="0"/>
      </contour>
    </TTGlyph>
    <TTGlyph name="slash" xMin="-36" yMin="-19" xMax="376" yMax="736">
      <contour>
        <pt x="-36" y="-19" on="1"/>
        <pt x="61" y="171" on="0"/>
        <pt x="251" y="546" on="0"/>
        <pt x="348" y="736" on="1"/>
        <pt x="376" y="736" on="1"/>
        <pt x="279" y="546" on="0"/>
        <pt x="89" y="171" on="0"/>
        <pt x="-8" y="-19" on="1"/>
      </contour>
    </TTGlyph>
    <TTGlyph name="sterling" xMin="27" yMin="0" xMax="528" yMax="634">
      <contour>
        <pt x="498" y="0" on="1"/>
        <pt x="27" y="0" on="1"/>
        <pt x="30" y="27" on="1"/>
        <pt x="74" y="27" on="1"/>
        <pt x="91" y="27" on="0"/>
        <pt x="114" y="40" on="0"/>
        <pt x="129" y="72" on="0"/>
        <pt x="140" y="126" on="0"/>
        <pt x="146" y="167" on="1"/>
        <pt x="165" y="303" on="1"/>
        <pt x="100" y="303" on="1"/>
        <pt x="103" y="331" on="1"/>
        <pt x="168" y="331" on="1"/>
        <pt x="193" y="500" on="1"/>
        <pt x="203" y="570" on="0"/>
        <pt x="305" y="634" on="0"/>
        <pt x="383" y="634" on="1"/>
        <pt x="450" y="634" on="0"/>
        <pt x="514" y="583" on="0"/>
        <pt x="528" y="543" on="1"/>
        <pt x="505" y="531" on="1"/>
        <pt x="497" y="551" on="0"/>
        <pt x="477" y="580" on="0"/>
        <pt x="449" y="598" on="0"/>
        <pt x="408" y="607" on="0"/>
        <pt x="379" y="607" on="1"/>
        <pt x="338" y="607" on="0"/>
        <pt x="281" y="590" on="0"/>
        <pt x="243" y="561" on="0"/>
        <pt x="223" y="522" on="0"/>
        <pt x="220" y="499" on="1"/>
        <pt x="196" y="331" on="1"/>
        <pt x="323" y="331" on="1"/>
        <pt x="319" y="303" on="1"/>
        <pt x="193" y="303" on="1"/>
        <pt x="167" y="120" on="1"/>
        <pt x="162" y="91" on="0"/>
        <pt x="148" y="41" on="0"/>
        <pt x="131" y="27" on="1"/>
        <pt x="473" y="27" on="1"/>
        <pt x="489" y="134" on="1"/>
        <pt x="517" y="134" on="1"/>
      </contour>
    </TTGlyph>
    <TTGlyph name="t" xMin="83" yMin="0" xMax="324" yMax="619">
      <contour>
        <pt x="209" y="619" on="1"/>
        <pt x="237" y="619" on="1"/>
        <pt x="203" y="375" on="1"/>
        <pt x="324" y="375" on="1"/>
        <pt x="320" y="348" on="1"/>
        <pt x="199" y="348" on="1"/>
        <pt x="154" y="27" on="1"/>
        <pt x="238" y="27" on="1"/>
        <pt x="235" y="0" on="1"/>
        <pt x="123" y="0" on="1"/>
        <pt x="171" y="348" on="1"/>
        <pt x="83" y="348" on="1"/>
        <pt x="87" y="375" on="1"/>
        <pt x="175" y="375" on="1"/>
      </contour>
    </TTGlyph>
    <TTGlyph name="thorn" xMin="-54" yMin="-250" xMax="481" yMax="750">
      <contour>
        <pt x="-50" y="-223" on="1"/>
        <pt x="26" y="-223" on="1"/>
        <pt x="159" y="723" on="1"/>
        <pt x="82" y="723" on="1"/>
        <pt x="86" y="750" on="1"/>
        <pt x="270" y="750" on="1"/>
        <pt x="266" y="723" on="1"/>
        <pt x="187" y="723" on="1"/>
        <pt x="131" y="329" on="1"/>
        <pt x="129" y="315" on="0"/>
        <pt x="122" y="285" on="0"/>
        <pt x="120" y="271" on="1"/>
        <pt x="132" y="294" on="0"/>
        <pt x="171" y="334" on="0"/>
        <pt x="220" y="364" on="0"/>
        <pt x="277" y="381" on="0"/>
        <pt x="307" y="381" on="1"/>
        <pt x="348" y="381" on="0"/>
        <pt x="415" y="350" on="0"/>
        <pt x="460" y="298" on="0"/>
        <pt x="481" y="227" on="0"/>
        <pt x="475" y="187" on="1"/>
        <pt x="469" y="146" on="0"/>
        <pt x="429" y="75" on="0"/>
        <pt x="369" y="23" on="0"/>
        <pt x="293" y="-8" on="0"/>
        <pt x="252" y="-8" on="1"/>
        <pt x="191" y="-8" on="0"/>
        <pt x="109" y="55" on="0"/>
        <pt x="98" y="100" on="1"/>
        <pt x="96" y="88" on="0"/>
        <pt x="95" y="64" on="0"/>
        <pt x="93" y="53" on="1"/>
        <pt x="54" y="-223" on="1"/>
        <pt x="136" y="-223" on="1"/>
        <pt x="133" y="-250" on="1"/>
        <pt x="-54" y="-250" on="1"/>
      </contour>
      <contour>
        <pt x="447" y="187" on="1"/>
        <pt x="452" y="222" on="0"/>
        <pt x="435" y="283" on="0"/>
        <pt x="396" y="328" on="0"/>
        <pt x="338" y="354" on="0"/>
        <pt x="303" y="354" on="1"/>
        <pt x="268" y="354" on="0"/>
        <pt x="203" y="328" on="0"/>
        <pt x="151" y="283" on="0"/>
        <pt x="117" y="222" on="0"/>
        <pt x="112" y="187" on="1"/>
        <pt x="107" y="152" on="0"/>
        <pt x="124" y="91" on="0"/>
        <pt x="163" y="45" on="0"/>
        <pt x="221" y="19" on="0"/>
        <pt x="256" y="19" on="1"/>
        <pt x="291" y="19" on="0"/>
        <pt x="356" y="45" on="0"/>
        <pt x="408" y="91" on="0"/>
        <pt x="442" y="152" on="0"/>
      </contour>
    </TTGlyph>
    <TTGlyph name="three" xMin="49" yMin="-8" xMax="470" yMax="650">
      <contour>
        <pt x="177" y="354" on="1"/>
        <pt x="413" y="622" on="1"/>
        <pt x="172" y="622" on="1"/>
        <pt x="163" y="559" on="1"/>
        <pt x="136" y="559" on="1"/>
        <pt x="149" y="650" on="1"/>
        <pt x="470" y="650" on="1"/>
        <pt x="247" y="401" on="1"/>
        <pt x="290" y="400" on="0"/>
        <pt x="361" y="369" on="0"/>
        <pt x="410" y="315" on="0"/>
        <pt x="433" y="241" on="0"/>
        <pt x="427" y="198" on="1"/>
        <pt x="421" y="155" on="0"/>
        <pt x="377" y="80" on="0"/>
        <pt x="313" y="24" on="0"/>
        <pt x="233" y="-8" on="0"/>
        <pt x="190" y="-8" on="1"/>
        <pt x="145" y="-8" on="0"/>
        <pt x="73" y="28" on="0"/>
        <pt x="49" y="59" on="1"/>
        <pt x="72" y="81" on="1"/>
        <pt x="91" y="54" on="0"/>
        <pt x="153" y="19" on="0"/>
        <pt x="192" y="19" on="1"/>
        <pt x="229" y="19" on="0"/>
        <pt x="299" y="48" on="0"/>
        <pt x="356" y="97" on="0"/>
        <pt x="394" y="162" on="0"/>
        <pt x="399" y="198" on="1"/>
        <pt x="404" y="235" on="0"/>
        <pt x="384" y="300" on="0"/>
        <pt x="341" y="348" on="0"/>
        <pt x="279" y="376" on="0"/>
        <pt x="242" y="376" on="1"/>
        <pt x="225" y="376" on="0"/>
        <pt x="192" y="364" on="0"/>
      </contour>
    </TTGlyph>
    <TTGlyph name="threequarters" xMin="122" yMin="-19" xMax="1032" yMax="736">
      <contour>
        <pt x="220" y="479" on="1"/>
        <pt x="402" y="686" on="1"/>
        <pt x="217" y="686" on="1"/>
        <pt x="210" y="638" on="1"/>
        <pt x="189" y="638" on="1"/>
        <pt x="199" y="708" on="1"/>
        <pt x="446" y="708" on="1"/>
        <pt x="274" y="516" on="1"/>
        <pt x="308" y="515" on="0"/>
        <pt x="362" y="491" on="0"/>
        <pt x="400" y="449" on="0"/>
        <pt x="418" y="392" on="0"/>
        <pt x="413" y="359" on="1"/>
        <pt x="409" y="326" on="0"/>
        <pt x="375" y="268" on="0"/>
        <pt x="325" y="225" on="0"/>
        <pt x="264" y="200" on="0"/>
        <pt x="231" y="200" on="1"/>
        <pt x="196" y="200" on="0"/>
        <pt x="140" y="228" on="0"/>
        <pt x="122" y="252" on="1"/>
        <pt x="140" y="269" on="1"/>
        <pt x="154" y="248" on="0"/>
        <pt x="202" y="221" on="0"/>
        <pt x="232" y="221" on="1"/>
        <pt x="261" y="221" on="0"/>
        <pt x="315" y="243" on="0"/>
        <pt x="358" y="281" on="0"/>
        <pt x="388" y="331" on="0"/>
        <pt x="392" y="359" on="1"/>
        <pt x="396" y="387" on="0"/>
        <pt x="380" y="438" on="0"/>
        <pt x="347" y="475" on="0"/>
        <pt x="299" y="496" on="0"/>
        <pt x="271" y="496" on="1"/>
        <pt x="257" y="496" on="0"/>
        <pt x="232" y="487" on="0"/>
      </contour>
      <contour>
        <pt x="404" y="-19" on="1"/>
        <pt x="501" y="171" on="0"/>
        <pt x="691" y="546" on="0"/>
        <pt x="788" y="736" on="1"/>
        <pt x="816" y="736" on="1"/>
        <pt x="719" y="546" on="0"/>
        <pt x="529" y="171" on="0"/>
        <pt x="432" y="-19" on="1"/>
      </contour>
      <contour>
        <pt x="862" y="20" on="1"/>
        <pt x="919" y="20" on="1"/>
        <pt x="936" y="136" on="1"/>
        <pt x="684" y="136" on="1"/>
        <pt x="1006" y="490" on="1"/>
        <pt x="959" y="156" on="1"/>
        <pt x="1032" y="156" on="1"/>
        <pt x="1029" y="136" on="1"/>
        <pt x="956" y="136" on="1"/>
        <pt x="940" y="20" on="1"/>
        <pt x="1002" y="20" on="1"/>
        <pt x="999" y="0" on="1"/>
        <pt x="859" y="0" on="1"/>
      </contour>
      <contour>
        <pt x="977" y="429" on="1"/>
        <pt x="729" y="156" on="1"/>
        <pt x="939" y="156" on="1"/>
      </contour>
    </TTGlyph>
</ttFont>
